if (_typeface_js && _typeface_js.loadFace) _typeface_js.loadFace({"glyphs":{"0":{"ha":684,"x_min":68,"x_max":616,"o":"m 220 1 q 161 13 189 1 q 112 45 133 24 q 80 93 92 66 q 68 152 68 121 l 68 812 q 80 871 68 844 q 112 920 92 899 q 161 952 133 941 q 220 964 189 964 l 467 964 q 525 952 498 964 q 572 920 552 941 q 605 871 593 899 q 616 812 616 844 l 616 152 q 605 93 616 121 q 572 45 593 66 q 525 13 552 24 q 467 1 498 1 l 220 1 m 344 35 q 439 71 412 35 q 467 184 467 107 l 467 780 q 439 893 467 857 q 344 930 412 930 q 285 921 309 930 q 247 893 261 911 q 225 847 232 875 q 219 780 219 819 l 219 184 q 225 118 219 146 q 247 71 232 90 q 285 44 261 53 q 344 35 309 35 z "},"1":{"ha":387,"x_min":17,"x_max":283,"o":"m 283 964 l 283 159 q 276 84 283 114 q 251 35 269 54 q 204 8 234 16 q 130 0 175 0 l 130 833 l 65 713 l 17 713 l 126 921 q 157 955 139 945 q 208 964 175 964 l 283 964 z "},"2":{"ha":671,"x_min":68,"x_max":637,"o":"m 476 964 q 535 952 507 964 q 584 920 563 941 q 616 872 604 899 q 628 813 628 844 l 628 751 q 615 664 628 700 q 580 601 602 628 q 528 550 558 573 q 465 503 498 528 l 288 373 q 239 319 257 351 q 221 249 221 288 l 221 33 l 444 33 q 515 41 486 33 q 563 66 545 49 q 589 113 581 84 q 597 184 597 142 l 597 249 l 637 249 l 637 151 q 631 102 636 128 q 611 53 627 76 q 565 15 595 31 q 485 0 535 0 l 68 0 l 68 258 q 100 389 68 331 q 189 487 132 447 l 360 611 q 417 652 390 632 q 464 693 444 673 q 496 735 484 714 q 509 781 509 757 l 509 796 q 503 856 509 831 q 486 896 498 880 q 454 920 473 911 q 406 930 434 928 l 332 930 q 263 918 294 930 q 208 883 231 905 q 170 831 184 861 q 149 764 155 800 l 108 764 l 108 813 q 109 845 108 828 q 114 879 110 863 q 126 911 117 896 q 149 939 134 927 q 187 957 164 950 q 243 964 210 964 l 476 964 z "},"3":{"ha":698,"x_min":68,"x_max":630,"o":"m 349 35 q 409 43 385 35 q 450 71 434 52 q 472 117 465 89 q 479 185 479 146 l 479 365 q 471 435 479 407 q 445 481 463 464 q 397 507 427 499 q 326 515 368 515 l 229 515 l 229 549 l 326 549 q 397 557 368 549 q 445 583 427 565 q 471 629 463 600 q 479 700 479 658 l 479 779 q 471 850 479 821 q 445 897 463 879 q 397 923 427 915 q 326 930 368 930 l 306 930 q 239 916 269 929 q 187 881 210 903 q 151 828 165 859 q 131 763 136 798 l 89 763 l 89 812 q 92 861 90 835 q 107 911 94 888 q 147 949 119 934 q 224 964 174 964 l 478 964 q 536 952 509 964 q 583 920 564 941 q 614 871 603 899 q 626 812 626 844 l 626 667 q 605 587 626 623 q 547 532 584 551 q 607 477 584 513 q 630 397 630 441 l 630 152 q 618 93 630 121 q 586 44 606 65 q 537 12 565 24 q 478 0 509 0 l 219 0 q 160 12 188 0 q 112 44 133 24 q 80 93 92 65 q 68 152 68 121 l 68 281 l 106 281 q 129 188 110 233 q 179 109 147 143 q 253 55 210 75 q 349 35 296 35 z "},"4":{"ha":677,"x_min":0,"x_max":644,"o":"m 644 282 l 547 282 l 547 159 q 541 84 547 114 q 516 35 534 54 q 469 8 499 16 q 394 0 439 0 l 394 282 l 0 282 l 0 321 l 416 933 q 432 952 425 944 q 449 966 440 960 q 470 974 458 971 q 498 977 482 977 l 547 977 l 547 321 l 644 321 l 644 282 m 46 321 l 394 321 l 394 831 l 46 321 z "},"5":{"ha":635,"x_min":17,"x_max":567,"o":"m 537 964 q 529 892 537 919 q 503 850 521 865 q 454 831 484 836 q 380 827 424 827 l 92 827 l 92 640 q 136 667 109 656 q 205 678 163 678 l 416 678 q 474 666 447 678 q 523 634 502 654 q 555 585 543 613 q 567 526 567 557 l 567 152 q 555 93 567 120 q 523 44 543 65 q 474 12 502 24 q 416 0 447 0 l 168 0 q 110 12 137 0 q 61 44 82 24 q 29 92 41 64 q 17 151 17 119 l 17 281 l 55 281 q 81 173 59 220 q 136 96 103 127 q 210 50 170 65 q 290 34 250 34 q 349 43 325 35 q 389 71 374 52 q 410 117 404 89 q 417 184 417 145 l 417 493 q 406 567 417 538 q 372 614 394 597 q 318 637 350 631 q 246 644 286 644 q 178 638 206 644 q 133 617 151 631 q 105 579 115 603 q 94 522 96 556 l 54 522 l 54 884 q 54 922 54 907 q 58 946 55 937 q 69 960 62 956 q 89 964 76 964 l 537 964 z "},"6":{"ha":721,"x_min":68,"x_max":617,"o":"m 342 35 q 438 71 410 35 q 467 184 467 107 l 467 493 q 438 606 467 569 q 342 642 410 642 q 246 606 274 642 q 218 493 218 569 l 218 184 q 246 71 218 107 q 342 35 274 35 m 218 0 q 160 12 187 0 q 112 44 132 24 q 80 93 92 65 q 68 152 68 120 l 68 814 q 80 872 68 845 q 112 920 92 900 q 160 952 132 941 q 218 964 187 964 l 465 964 q 543 949 515 964 q 583 911 570 934 q 598 863 595 889 q 600 814 600 836 l 600 765 l 558 765 q 537 833 553 802 q 498 885 522 864 q 442 919 474 907 q 370 930 410 930 q 301 922 330 930 q 254 897 273 914 q 227 850 236 879 q 218 781 218 821 l 218 677 l 466 677 q 525 665 497 677 q 573 632 552 653 q 605 584 593 612 q 617 526 617 557 l 617 152 q 605 93 617 120 q 573 44 593 65 q 525 12 552 24 q 466 0 497 0 l 218 0 z "},"7":{"ha":680,"x_min":17,"x_max":680,"o":"m 502 930 l 212 930 q 93 891 130 930 q 56 781 56 852 l 56 763 l 17 763 l 17 876 q 19 925 17 907 q 30 951 22 943 q 54 962 38 960 q 98 964 71 964 l 680 964 l 172 -15 q 110 26 132 6 q 82 70 88 46 q 84 122 76 93 q 113 190 93 151 l 497 930 l 502 930 z "},"8":{"ha":698,"x_min":68,"x_max":630,"o":"m 220 0 q 161 12 189 0 q 112 44 133 24 q 80 93 92 65 q 68 152 68 121 l 68 397 q 93 480 68 444 q 156 535 117 517 q 102 590 121 555 q 82 667 82 625 l 82 812 q 94 871 82 844 q 125 920 105 899 q 172 952 145 941 q 230 964 199 964 l 467 964 q 526 952 498 964 q 573 920 553 941 q 604 871 593 899 q 616 812 616 844 l 616 667 q 596 590 616 625 q 542 535 576 555 q 577 512 561 526 q 605 480 593 498 q 624 441 617 462 q 630 397 630 420 l 630 152 q 618 93 630 121 q 586 44 606 65 q 537 12 565 24 q 478 0 509 0 l 220 0 m 348 928 q 256 892 283 928 q 229 780 229 855 l 229 701 q 256 588 229 625 q 348 551 283 551 q 441 588 414 551 q 468 701 468 625 l 468 780 q 441 892 468 855 q 348 928 414 928 m 348 515 q 288 506 312 515 q 248 479 263 497 q 226 432 233 460 q 219 365 219 404 l 219 184 q 226 117 219 146 q 248 71 233 89 q 288 43 263 52 q 348 35 312 35 q 409 43 384 35 q 450 71 434 52 q 472 117 465 89 q 479 184 479 146 l 479 365 q 449 479 479 443 q 348 515 420 515 z "},"9":{"ha":722,"x_min":68,"x_max":618,"o":"m 342 930 q 246 893 274 930 q 218 780 218 857 l 218 471 q 246 357 218 394 q 342 321 274 321 q 438 357 410 321 q 467 471 467 394 l 467 780 q 438 893 467 857 q 342 930 410 930 m 466 964 q 525 952 497 964 q 573 920 553 941 q 606 872 594 899 q 618 813 618 844 l 618 151 q 606 93 618 120 q 573 44 594 65 q 525 12 553 24 q 466 0 497 0 l 220 0 q 142 15 170 0 q 102 53 115 31 q 87 103 90 76 q 85 152 85 130 l 85 200 l 126 200 q 147 132 132 163 q 186 80 162 102 q 242 45 210 58 q 315 33 275 33 q 430 68 393 33 q 467 184 467 102 l 467 286 l 219 286 q 160 297 188 286 q 112 330 133 309 q 80 378 92 351 q 68 437 68 406 l 68 813 q 80 872 68 844 q 112 920 92 899 q 160 952 133 941 q 219 964 188 964 l 466 964 z "}," ":{"ha":364,"x_min":0,"x_max":0,"o":""},"!":{"ha":292,"x_min":56,"x_max":230,"o":"m 145 162 q 178 155 163 162 q 205 136 193 148 q 223 109 216 125 q 230 76 230 93 q 223 41 230 57 q 205 13 216 24 q 178 -6 193 1 q 145 -13 163 -13 q 111 -6 127 -13 q 82 14 94 1 q 63 42 70 26 q 56 76 56 58 q 63 109 56 93 q 82 136 70 124 q 111 155 94 148 q 145 162 127 162 m 163 298 l 127 298 l 70 814 q 73 891 65 860 q 100 942 80 922 q 151 969 119 961 q 225 977 182 977 l 163 298 z "},"\"":{"ha":490,"x_min":87,"x_max":403,"o":"m 195 1038 q 214 995 214 1017 q 204 950 214 975 q 184 896 195 926 q 165 828 174 865 q 159 745 157 791 l 142 745 q 137 828 145 791 q 117 895 128 865 q 97 949 106 925 q 87 995 87 974 q 93 1017 87 1006 q 106 1038 98 1029 q 126 1054 115 1048 q 151 1059 138 1059 q 175 1054 163 1059 q 195 1038 186 1049 m 385 1038 q 403 995 403 1017 q 393 950 403 975 q 373 896 384 926 q 355 828 363 865 q 349 745 347 791 l 332 745 q 327 828 335 791 q 307 895 318 865 q 286 949 296 925 q 277 995 277 974 q 282 1017 277 1006 q 295 1038 287 1029 q 315 1054 304 1048 q 340 1059 327 1059 q 364 1054 353 1059 q 385 1038 376 1049 z "},"#":{"ha":646,"x_min":34,"x_max":612,"o":"m 34 524 q 38 548 34 540 q 52 560 42 557 q 77 564 61 564 q 116 564 92 564 l 182 564 l 182 711 q 206 707 198 711 q 218 694 214 703 q 221 668 221 684 q 222 629 222 652 l 222 564 l 417 564 l 417 711 q 441 707 433 711 q 453 694 450 703 q 457 668 456 684 q 457 629 457 652 l 457 564 l 612 564 q 608 539 612 547 q 595 528 604 531 q 569 524 585 524 q 530 524 553 524 l 457 524 l 457 328 l 612 328 q 608 304 612 312 q 595 292 604 296 q 569 289 585 289 q 530 288 553 288 l 457 288 l 457 133 q 432 137 441 133 q 420 151 424 141 q 417 176 417 160 q 417 215 417 191 l 417 288 l 222 288 l 222 133 q 197 137 205 133 q 185 151 189 141 q 182 176 182 160 q 182 215 182 191 l 182 288 l 34 288 q 38 313 34 304 q 52 325 42 321 q 77 328 61 328 q 116 328 92 328 l 182 328 l 182 524 l 34 524 m 222 328 l 417 328 l 417 524 l 222 524 l 222 328 z "},"&":{"ha":770,"x_min":34,"x_max":838,"o":"m 838 1 l 726 1 q 652 13 681 1 q 598 52 624 25 q 556 16 583 31 q 482 1 529 1 l 185 1 q 126 13 154 1 q 78 45 99 24 q 46 93 58 66 q 34 152 34 121 l 34 258 q 54 355 34 311 q 105 437 73 399 q 177 506 137 474 q 260 566 218 538 l 178 694 q 154 759 159 724 q 156 826 149 793 q 182 887 163 859 q 228 937 200 916 q 269 957 245 949 q 330 964 294 964 l 441 964 q 500 952 473 964 q 548 920 528 941 q 581 872 569 899 q 593 813 593 844 l 593 752 q 583 678 593 711 q 555 617 572 645 q 513 567 537 590 q 460 524 488 544 l 595 321 l 595 484 q 597 494 595 488 q 604 507 599 500 q 620 518 610 513 q 646 522 629 522 l 633 522 l 650 522 l 663 522 q 665 521 665 522 l 663 521 q 649 516 655 521 q 640 505 644 512 q 634 491 636 498 q 633 476 633 483 l 633 262 l 764 66 q 778 46 769 58 q 796 25 786 35 q 817 9 806 16 q 838 2 827 2 l 838 1 m 342 443 q 287 404 315 424 q 238 360 260 383 q 201 309 216 336 q 186 249 187 281 l 186 168 q 194 100 186 126 q 220 59 202 74 q 268 39 239 44 q 340 34 298 34 l 441 35 q 527 47 494 35 q 576 87 559 58 l 342 443 m 368 931 q 346 931 358 931 q 321 929 334 930 q 297 923 309 927 q 277 913 285 920 q 264 897 269 907 q 258 874 259 886 q 261 849 258 862 q 273 823 264 836 l 378 648 l 421 683 q 460 732 446 704 q 473 797 473 760 q 450 899 473 867 q 368 931 426 931 z "},"'":{"ha":319,"x_min":97,"x_max":222,"o":"m 205 1038 q 222 995 222 1018 q 213 950 222 975 q 193 896 203 926 q 174 828 182 865 q 168 745 166 791 l 152 745 q 146 828 155 791 q 127 895 138 865 q 106 949 116 925 q 97 995 97 974 q 102 1017 97 1006 q 115 1038 106 1029 q 135 1054 124 1048 q 160 1059 146 1059 q 184 1054 172 1059 q 205 1038 195 1049 z "},"(":{"ha":436,"x_min":104,"x_max":436,"o":"m 436 1019 l 414 1019 q 341 1011 371 1019 q 293 986 311 1004 q 266 938 274 968 q 258 865 258 909 l 258 37 q 266 -37 258 -7 q 293 -84 274 -66 q 341 -110 311 -102 q 414 -117 371 -117 l 436 -117 l 436 -152 l 258 -152 q 198 -140 226 -152 q 149 -107 170 -127 q 116 -58 128 -86 q 104 2 104 -30 l 104 899 q 116 959 104 930 q 149 1008 128 987 q 198 1042 170 1029 q 258 1054 226 1054 l 436 1054 l 436 1019 z "},")":{"ha":436,"x_min":0,"x_max":332,"o":"m 0 1054 l 178 1054 q 238 1042 210 1054 q 287 1008 267 1029 q 320 959 308 987 q 332 899 332 930 l 332 2 q 320 -58 332 -30 q 287 -107 308 -86 q 238 -140 267 -127 q 178 -152 210 -152 l 0 -152 l 0 -117 l 22 -117 q 95 -110 65 -117 q 143 -84 125 -102 q 170 -37 162 -66 q 178 37 178 -7 l 178 865 q 170 938 178 909 q 143 986 162 968 q 95 1011 125 1004 q 22 1019 65 1019 l 0 1019 l 0 1054 z "},"*":{"ha":479,"x_min":17,"x_max":411,"o":"m 255 957 q 271 918 271 937 q 255 877 271 897 q 247 865 252 873 q 237 844 242 857 q 227 812 231 831 q 218 766 222 793 l 218 764 l 220 766 q 256 795 242 782 q 279 820 270 809 q 292 839 288 831 q 298 852 296 847 q 352 894 313 894 q 394 878 378 894 q 411 840 411 863 q 406 814 411 825 q 393 796 401 804 q 374 785 385 789 q 353 781 364 781 q 340 782 346 781 q 322 783 334 783 q 284 778 309 783 q 223 757 260 773 l 224 756 q 285 736 261 741 q 322 731 309 731 q 340 732 334 731 q 353 734 346 734 q 374 730 364 734 q 393 718 385 726 q 406 699 401 710 q 411 675 411 688 q 394 636 411 652 q 352 621 378 621 q 298 662 313 621 q 292 675 296 667 q 279 694 288 683 q 256 719 270 705 q 220 749 242 732 q 218 749 218 749 l 218 748 q 227 702 222 721 q 237 669 231 682 q 247 649 242 656 q 255 637 252 642 q 271 597 271 617 q 267 576 271 587 q 255 557 262 566 q 237 543 248 549 q 214 538 227 538 q 192 543 202 538 q 173 557 181 549 q 161 576 165 566 q 157 597 157 587 q 173 637 157 618 q 181 649 176 642 q 192 669 186 656 q 202 701 197 682 q 210 748 207 720 l 210 749 q 209 749 210 749 q 172 719 186 732 q 150 694 158 705 q 137 675 141 683 q 131 662 133 667 q 77 621 115 621 q 34 636 51 621 q 17 675 17 652 q 22 699 17 688 q 35 718 27 710 q 54 730 43 726 q 75 734 64 734 q 89 732 83 734 q 106 731 94 731 q 144 736 120 731 q 204 756 168 741 q 205 757 205 757 q 204 758 205 757 q 144 779 168 774 q 106 783 120 783 q 89 782 94 783 q 75 781 83 781 q 54 785 64 781 q 35 796 43 789 q 22 814 27 804 q 17 840 17 825 q 34 878 17 863 q 77 894 51 894 q 131 852 115 894 q 137 839 133 847 q 150 820 141 831 q 172 795 158 809 q 209 766 186 782 q 210 764 210 764 l 210 766 q 202 812 207 793 q 192 844 197 831 q 182 865 187 857 q 173 877 177 872 q 157 918 157 896 q 161 938 157 928 q 173 957 165 949 q 192 970 181 965 q 214 976 202 976 q 236 971 226 976 q 255 957 247 966 z "},"+":{"ha":791,"x_min":104,"x_max":687,"o":"m 104 334 q 108 359 104 351 q 121 371 112 368 q 146 374 131 374 q 186 374 162 374 l 371 374 l 371 568 q 372 607 371 591 q 377 632 373 623 q 391 646 382 642 q 416 650 400 650 l 416 374 l 687 374 q 683 350 687 358 q 669 338 679 342 q 644 335 660 335 q 605 334 628 334 l 416 334 l 416 151 q 415 111 416 127 q 410 86 414 96 q 396 73 405 77 q 371 68 387 68 l 371 334 l 104 334 z "},",":{"ha":351,"x_min":67,"x_max":252,"o":"m 106 -129 q 146 -79 128 -107 q 172 -18 165 -50 q 144 -17 157 -18 q 119 -11 131 -16 q 96 2 106 -7 q 78 25 86 11 q 68 57 70 39 q 72 91 67 75 q 87 122 77 108 q 113 146 98 137 q 147 158 129 156 q 183 154 165 159 q 214 137 200 149 q 237 107 229 125 q 244 34 252 72 q 215 -38 237 -4 q 162 -99 193 -72 q 100 -142 131 -127 q 100 -135 100 -136 q 106 -129 101 -134 l 106 -129 z "},"-":{"ha":469,"x_min":68,"x_max":401,"o":"m 68 368 q 72 393 68 385 q 85 405 76 401 q 111 408 95 408 q 150 408 126 408 l 401 408 q 397 384 401 392 q 384 372 393 376 q 358 369 374 369 q 319 368 342 368 l 68 368 z "},".":{"ha":347,"x_min":68,"x_max":243,"o":"m 156 152 q 189 145 174 152 q 217 126 205 138 q 236 99 229 115 q 243 65 243 83 q 236 32 243 47 q 217 3 229 16 q 189 -16 205 -9 q 156 -23 174 -23 q 122 -16 138 -23 q 94 3 106 -9 q 75 32 82 16 q 68 65 68 47 q 75 98 68 83 q 94 126 82 114 q 122 145 106 138 q 156 152 138 152 z "},"/":{"ha":665,"x_min":0,"x_max":665,"o":"m 0 -184 q 299 371 150 94 q 598 926 448 649 q 612 951 607 943 q 623 962 617 960 q 638 965 629 965 q 665 964 647 964 q 370 414 515 687 q 76 -136 226 141 q 61 -163 66 -154 q 49 -177 56 -173 q 32 -183 43 -182 q 0 -184 21 -184 z "},":":{"ha":380,"x_min":104,"x_max":277,"o":"m 191 608 q 252 582 227 608 q 277 520 277 556 q 251 461 277 486 q 191 435 226 435 q 130 461 156 435 q 104 520 104 486 q 130 582 104 556 q 191 608 155 608 m 191 151 q 252 125 227 151 q 277 65 277 100 q 252 3 277 29 q 191 -22 227 -22 q 130 4 156 -22 q 104 65 104 31 q 129 125 104 100 q 191 151 155 151 z "},";":{"ha":387,"x_min":106,"x_max":290,"o":"m 197 613 q 258 587 233 613 q 283 526 283 562 q 258 466 283 491 q 197 441 233 441 q 137 466 163 441 q 111 526 111 491 q 136 587 111 562 q 197 613 162 613 m 144 -129 q 185 -79 167 -107 q 210 -18 203 -50 q 183 -17 196 -18 q 157 -11 170 -16 q 135 2 145 -7 q 117 25 125 11 q 107 57 109 39 q 111 91 106 75 q 126 122 115 108 q 152 146 136 137 q 186 158 168 156 q 221 154 204 159 q 253 137 239 149 q 275 107 267 125 q 283 34 290 72 q 254 -38 275 -4 q 201 -99 232 -72 q 138 -142 170 -127 q 139 -135 138 -136 q 144 -129 140 -134 z "},"<":{"ha":679,"x_min":0,"x_max":679,"o":"m 0 504 l 677 860 q 677 829 677 840 q 672 812 676 819 q 659 801 668 806 q 631 785 649 795 l 55 471 l 631 162 q 661 145 651 152 q 675 129 671 138 q 679 110 679 121 q 677 81 678 98 l 0 444 l 0 504 z "},"=":{"ha":791,"x_min":104,"x_max":687,"o":"m 104 530 q 108 554 104 546 q 121 566 112 563 q 146 570 131 570 q 186 570 162 570 l 687 570 q 683 545 687 553 q 669 534 679 537 q 644 530 660 530 q 605 530 628 530 l 104 530 m 104 294 q 108 318 104 310 q 121 330 112 327 q 146 334 131 334 q 186 334 162 334 l 687 334 q 683 309 687 317 q 669 298 679 301 q 644 294 660 294 q 605 294 628 294 l 104 294 z "},">":{"ha":679,"x_min":0,"x_max":679,"o":"m 679 444 l 1 81 q 0 110 1 98 q 4 129 0 121 q 18 145 8 138 q 48 162 28 152 l 624 471 l 48 785 q 20 801 30 795 q 7 812 11 806 q 2 829 3 819 q 1 860 1 840 l 679 504 l 679 444 z "},"?":{"ha":600,"x_min":0,"x_max":532,"o":"m 254 153 q 287 145 271 153 q 315 126 303 138 q 334 99 327 115 q 341 65 341 83 q 334 31 341 47 q 315 3 327 15 q 287 -16 302 -9 q 254 -23 271 -23 q 221 -16 237 -23 q 193 3 205 -9 q 174 32 181 16 q 167 65 167 47 q 174 99 167 83 q 193 127 181 115 q 221 146 205 139 q 254 153 237 153 m 383 783 q 375 852 383 824 q 350 899 368 881 q 303 924 332 916 q 233 931 275 931 l 222 931 q 153 919 184 931 q 98 885 121 907 q 60 832 75 863 q 40 767 45 802 l 0 767 l 0 815 q 1 847 0 830 q 5 880 1 863 q 17 912 9 897 q 40 939 25 927 q 78 957 55 950 q 134 964 100 964 l 383 964 q 441 952 414 964 q 489 920 469 941 q 521 873 509 900 q 532 815 532 846 l 532 585 q 520 527 532 554 q 488 479 509 500 q 441 447 468 459 q 382 435 414 435 q 327 426 349 435 q 293 397 305 416 q 276 354 281 379 q 271 297 271 328 l 237 297 l 237 404 q 263 484 237 448 q 328 540 288 521 q 352 555 342 547 q 370 577 363 563 q 380 611 376 591 q 383 664 383 632 l 383 783 z "},"@":{"ha":1176,"x_min":68,"x_max":1072,"o":"m 683 471 q 632 479 659 479 q 579 479 605 479 q 507 472 536 479 q 460 447 478 465 q 434 400 442 429 q 427 329 427 372 l 427 201 q 433 135 427 163 q 454 88 439 106 q 492 61 469 70 q 551 52 516 52 q 653 87 623 51 q 683 201 683 123 l 683 471 m 921 747 q 980 735 952 747 q 1028 703 1008 723 q 1060 655 1048 682 q 1072 596 1072 627 l 1072 168 q 1060 110 1072 137 q 1028 61 1048 82 q 980 29 1008 41 q 921 17 952 17 l 833 17 q 784 25 807 17 q 742 49 762 34 q 699 25 722 34 q 650 17 675 17 l 458 17 q 399 29 427 17 q 351 61 372 41 q 319 110 331 82 q 307 168 307 137 l 307 362 q 319 421 307 393 q 352 469 332 448 q 400 501 372 489 q 458 513 427 513 l 747 513 q 779 509 768 513 q 795 496 790 505 q 801 469 800 486 q 801 425 801 452 l 801 201 q 807 145 802 172 q 823 97 812 118 q 848 64 833 77 q 884 52 863 52 q 919 64 905 52 q 940 97 932 77 q 951 145 948 118 q 954 201 954 172 l 954 563 q 946 634 954 605 q 920 680 938 663 q 873 706 902 698 q 801 713 844 713 l 342 713 q 269 706 298 713 q 221 680 239 698 q 196 634 203 663 q 188 563 188 605 l 188 -33 q 196 -103 188 -75 q 221 -150 203 -132 q 269 -175 239 -168 q 342 -183 298 -183 l 1072 -183 l 1072 -216 l 220 -216 q 161 -204 189 -216 q 113 -172 134 -193 q 80 -124 92 -152 q 68 -66 68 -97 l 68 596 q 80 655 68 627 q 113 703 92 682 q 161 735 134 723 q 220 747 189 747 l 921 747 z "},"A":{"ha":735,"x_min":-17,"x_max":757,"o":"m 755 3 q 757 1 757 3 q 755 0 757 0 l 699 0 q 631 10 660 0 q 581 37 602 20 q 549 73 561 53 q 530 113 536 93 l 452 375 l 170 375 l 60 35 q 44 6 52 13 q 16 0 35 0 l -16 0 q -17 1 -17 0 q -16 3 -17 3 q 9 14 2 3 q 23 43 17 26 l 294 896 q 321 942 304 925 q 357 966 338 958 q 391 976 375 975 q 414 978 407 978 l 705 62 q 712 41 709 52 q 721 22 715 31 q 735 8 727 14 q 755 3 743 3 m 180 410 l 442 410 l 317 844 l 180 410 z "},"B":{"ha":825,"x_min":104,"x_max":758,"o":"m 555 964 q 614 952 587 964 q 662 920 642 941 q 695 872 683 899 q 707 814 707 844 l 707 634 q 690 564 707 596 q 644 511 673 532 q 690 491 669 505 q 726 458 711 477 q 749 415 741 439 q 758 365 758 391 l 758 152 q 746 93 758 121 q 713 45 734 66 q 666 13 693 24 q 607 1 638 1 l 104 1 l 104 876 q 105 925 104 907 q 114 951 106 943 q 137 962 121 960 q 184 964 153 964 l 555 964 m 258 928 l 258 515 l 401 515 q 474 523 444 515 q 522 549 503 531 q 548 595 540 566 q 555 667 555 625 l 555 780 q 548 851 555 823 q 522 897 540 880 q 474 921 503 914 q 401 928 444 928 l 258 928 m 258 482 l 258 35 l 454 35 q 526 42 496 35 q 573 67 555 50 q 599 113 591 85 q 607 184 607 142 l 607 333 q 599 404 607 375 q 573 450 591 432 q 526 475 555 467 q 454 482 496 482 l 258 482 z "},"C":{"ha":798,"x_min":104,"x_max":730,"o":"m 562 964 q 621 952 593 964 q 669 920 648 941 q 702 871 690 899 q 714 812 714 844 l 714 683 l 675 683 q 652 792 671 746 q 604 869 633 839 q 537 915 574 900 q 460 930 500 930 l 409 930 q 339 922 368 930 q 291 896 310 913 q 264 849 273 878 q 255 780 255 821 l 255 184 q 264 114 255 143 q 291 67 273 85 q 339 41 310 50 q 409 33 368 33 l 460 33 q 543 51 501 33 q 617 103 584 68 q 671 188 650 137 q 692 305 692 239 l 692 373 l 730 373 l 730 151 q 718 93 730 120 q 685 44 706 65 q 637 12 665 24 q 578 0 610 0 l 255 0 q 196 12 224 0 q 148 44 169 24 q 116 93 127 65 q 104 151 104 120 l 104 812 q 116 871 104 844 q 148 920 127 899 q 196 952 169 941 q 255 964 224 964 l 562 964 z "},"D":{"ha":899,"x_min":104,"x_max":795,"o":"m 259 930 l 259 35 l 526 35 q 579 47 557 37 q 615 75 602 57 q 635 119 629 92 q 642 183 642 146 l 642 781 q 615 892 642 855 q 526 930 589 930 l 259 930 m 104 875 q 105 924 104 906 q 114 951 106 942 q 137 962 121 960 q 185 964 154 964 l 642 964 q 701 952 673 964 q 750 919 729 940 q 783 871 771 899 q 795 812 795 843 l 795 153 q 783 94 795 121 q 750 45 771 66 q 701 12 729 24 q 642 0 673 0 l 104 0 l 104 875 z "},"E":{"ha":798,"x_min":104,"x_max":730,"o":"m 258 931 l 258 511 l 311 511 q 367 522 339 511 q 418 554 395 532 q 457 607 441 575 q 476 683 473 640 l 505 683 l 505 315 l 476 315 q 454 385 471 355 q 415 435 438 415 q 365 465 392 455 q 311 476 338 475 l 258 476 l 258 33 l 448 33 q 550 56 505 33 q 626 116 595 79 q 675 203 658 154 q 692 306 692 253 l 692 374 l 730 374 l 730 151 q 718 92 730 119 q 685 44 706 64 q 637 12 665 24 q 578 0 609 0 l 104 0 l 104 876 q 105 927 104 909 q 114 954 106 945 q 137 963 121 962 q 182 964 153 964 l 623 964 q 670 962 654 964 q 693 951 686 960 q 702 925 701 943 q 703 876 703 907 l 703 684 l 665 684 l 665 780 q 657 851 665 823 q 631 898 649 880 q 583 924 612 916 q 511 931 553 931 l 258 931 z "},"F":{"ha":755,"x_min":104,"x_max":688,"o":"m 258 931 l 258 511 l 310 511 q 367 521 338 511 q 418 553 395 532 q 456 607 441 574 q 475 682 472 639 l 505 682 l 505 315 l 475 315 q 454 386 471 355 q 415 436 438 416 q 365 467 392 456 q 310 477 337 477 l 258 477 l 258 159 q 251 84 258 114 q 226 35 243 54 q 179 8 208 16 q 104 0 149 0 l 104 876 q 105 927 104 909 q 114 954 106 945 q 137 963 121 962 q 182 964 153 964 l 608 964 q 654 961 637 964 q 677 948 670 958 q 686 921 685 938 q 688 876 688 903 l 688 684 l 648 684 l 648 781 q 640 851 648 823 q 614 898 632 880 q 567 923 596 916 q 495 931 538 931 l 258 931 z "},"G":{"ha":826,"x_min":104,"x_max":758,"o":"m 584 964 q 643 952 615 964 q 690 920 670 941 q 723 872 711 899 q 734 813 734 844 l 734 684 l 696 684 q 674 778 693 733 q 624 857 655 823 q 549 910 592 890 q 454 930 506 930 l 408 930 q 336 923 366 930 q 289 898 307 916 q 262 851 271 880 q 254 780 254 823 l 254 185 q 262 114 254 143 q 289 67 271 85 q 336 42 307 50 q 408 34 366 34 l 454 34 q 526 42 496 34 q 574 67 555 50 q 601 114 593 85 q 609 185 609 143 l 609 408 l 477 408 l 477 442 l 678 442 q 717 441 701 442 q 742 433 732 439 q 754 414 751 427 q 758 376 758 401 l 758 152 q 746 93 758 121 q 714 45 734 66 q 666 12 694 24 q 608 0 639 0 l 254 0 q 196 12 223 0 q 148 45 168 24 q 116 93 127 66 q 104 152 104 121 l 104 813 q 114 872 104 844 q 143 920 124 899 q 191 952 163 941 q 254 964 218 964 l 584 964 z "},"H":{"ha":884,"x_min":104,"x_max":780,"o":"m 626 481 l 258 481 l 258 165 q 249 78 258 111 q 222 28 241 45 q 174 5 203 11 q 104 0 145 0 l 104 811 q 258 977 104 977 l 258 515 l 626 515 l 626 812 q 780 977 626 977 l 780 165 q 771 78 780 111 q 744 28 763 45 q 696 5 726 11 q 626 0 667 0 l 626 481 z "},"I":{"ha":361,"x_min":104,"x_max":257,"o":"m 257 159 q 250 84 257 115 q 225 35 243 54 q 179 8 208 16 q 104 0 149 0 l 104 814 q 112 891 104 860 q 138 942 120 922 q 185 969 156 961 q 257 977 214 977 l 257 159 z "},"J":{"ha":668,"x_min":17,"x_max":564,"o":"m 564 153 q 552 94 564 122 q 520 45 541 66 q 472 12 500 24 q 414 0 445 0 l 149 0 q 97 13 121 0 q 55 48 73 26 q 27 97 37 70 q 17 153 17 125 l 17 374 l 55 374 l 55 307 q 76 188 55 239 q 131 104 98 138 q 207 54 165 71 q 291 37 249 37 q 348 45 325 37 q 386 73 372 54 q 407 119 400 91 q 413 185 413 147 l 413 814 q 421 892 413 861 q 447 942 429 923 q 493 969 465 961 q 564 977 522 977 l 564 153 z "},"K":{"ha":833,"x_min":104,"x_max":838,"o":"m 256 502 l 640 936 q 653 949 646 942 q 670 963 660 956 q 692 973 680 969 q 722 977 705 977 l 766 977 q 769 976 770 977 q 766 974 768 974 q 724 965 741 974 q 690 936 708 956 l 372 580 l 752 68 q 769 45 760 56 q 788 24 778 33 q 809 9 798 15 q 836 3 821 3 q 838 1 838 3 q 836 0 838 0 l 712 0 q 660 1 680 0 q 624 11 640 3 q 592 36 608 19 q 554 85 576 54 l 256 498 l 256 157 q 249 83 256 113 q 225 35 242 53 q 178 8 208 16 q 104 0 149 0 l 104 816 q 112 892 104 861 q 138 942 120 923 q 185 969 156 961 q 256 977 214 977 l 256 502 z "},"L":{"ha":670,"x_min":104,"x_max":653,"o":"m 258 34 l 373 34 q 474 57 429 34 q 550 117 519 79 q 599 203 582 155 q 616 305 616 252 l 616 374 l 653 374 l 653 151 q 641 93 653 120 q 608 44 629 65 q 560 12 587 24 q 502 0 532 0 l 104 0 l 104 814 q 112 890 104 859 q 138 941 120 922 q 186 968 157 960 q 258 976 216 976 l 258 34 z "},"M":{"ha":1015,"x_min":104,"x_max":911,"o":"m 911 977 l 911 159 q 904 84 911 115 q 879 35 897 54 q 832 8 861 16 q 757 0 802 0 l 757 909 l 481 0 l 416 0 l 141 919 l 141 81 q 140 42 141 58 q 136 18 140 27 q 125 4 132 8 q 104 0 117 0 l 104 854 q 113 921 104 897 q 143 958 123 945 q 196 974 164 970 q 273 977 229 977 l 503 191 l 701 854 q 731 926 715 901 q 770 963 747 951 q 828 976 794 974 q 911 977 861 977 z "},"N":{"ha":878,"x_min":104,"x_max":774,"o":"m 774 977 l 774 0 q 709 0 739 0 q 655 5 679 1 q 615 20 632 9 q 587 50 597 30 l 140 908 l 141 80 q 140 42 141 58 q 136 18 140 27 q 125 4 133 8 q 104 0 118 0 l 104 834 q 111 900 104 873 q 135 945 117 928 q 183 969 153 962 q 262 977 214 977 l 736 62 l 736 896 q 738 935 736 919 q 743 960 739 950 q 754 973 747 969 q 774 977 762 977 z "},"O":{"ha":896,"x_min":104,"x_max":792,"o":"m 640 964 q 699 952 671 964 q 748 920 727 941 q 780 872 768 900 q 792 812 792 844 l 792 152 q 780 93 792 121 q 748 44 768 65 q 699 12 727 24 q 640 0 671 0 l 256 0 q 197 12 224 0 q 149 44 170 24 q 116 93 128 65 q 104 152 104 121 l 104 812 q 116 872 104 844 q 149 920 128 900 q 197 952 170 941 q 256 964 224 964 l 640 964 m 409 931 q 337 924 366 931 q 290 899 308 916 q 263 852 271 881 q 256 781 256 823 l 256 184 q 263 114 256 142 q 290 67 271 85 q 337 42 308 50 q 409 34 366 34 l 486 34 q 558 42 529 34 q 606 67 588 50 q 632 114 624 85 q 640 184 640 142 l 640 781 q 632 852 640 823 q 606 899 624 881 q 558 924 588 916 q 486 931 529 931 l 409 931 z "},"P":{"ha":772,"x_min":104,"x_max":739,"o":"m 589 964 q 647 952 620 964 q 694 919 674 940 q 727 871 715 899 q 739 812 739 844 l 739 633 q 727 575 739 602 q 694 527 715 547 q 647 494 674 506 q 588 481 619 481 l 256 481 l 256 157 q 249 83 256 113 q 225 35 242 53 q 178 8 208 16 q 104 0 149 0 l 104 874 q 105 926 104 908 q 114 953 106 945 q 136 963 121 962 q 180 964 152 964 l 589 964 m 256 930 l 256 516 l 434 516 q 506 524 476 516 q 554 549 535 531 q 581 595 572 566 q 589 666 589 624 l 589 779 q 581 850 589 821 q 554 897 572 879 q 506 922 535 914 q 434 930 476 930 l 256 930 z "},"Q":{"ha":892,"x_min":104,"x_max":789,"o":"m 516 -197 q 457 -190 484 -197 q 409 -165 429 -182 q 377 -119 389 -147 q 365 -47 365 -90 l 365 1 l 253 1 q 195 13 222 1 q 148 46 168 25 q 116 94 127 66 q 104 153 104 121 l 104 814 q 116 872 104 845 q 148 920 127 900 q 195 952 168 941 q 253 964 222 964 l 639 964 q 697 952 670 964 q 745 920 724 941 q 777 872 765 900 q 789 814 789 845 l 789 153 q 777 94 789 121 q 745 46 765 66 q 697 13 724 25 q 639 1 670 1 l 516 1 q 515 -30 515 -16 q 515 -58 515 -45 q 518 -104 515 -84 q 530 -137 521 -123 q 557 -156 540 -150 q 606 -163 575 -163 l 606 -197 l 516 -197 m 407 930 q 335 923 364 930 q 288 898 306 916 q 261 851 269 880 q 253 781 253 823 l 253 186 q 261 115 253 144 q 288 68 269 86 q 335 43 306 51 q 407 35 364 35 l 485 35 q 557 43 528 35 q 604 68 586 51 q 631 115 623 86 q 639 186 639 144 l 639 781 q 631 851 639 823 q 604 898 623 880 q 557 923 586 916 q 485 930 528 930 l 407 930 z "},"R":{"ha":808,"x_min":104,"x_max":825,"o":"m 587 964 q 645 952 618 964 q 693 920 673 941 q 726 871 714 899 q 738 812 738 844 l 738 633 q 726 574 738 602 q 693 526 714 547 q 645 493 673 505 q 587 481 618 481 l 435 481 l 741 66 q 757 43 749 54 q 775 23 766 32 q 797 9 785 15 q 825 3 809 3 q 824 0 825 0 l 682 0 q 646 4 663 0 q 611 17 628 7 q 577 43 594 26 q 542 83 560 59 l 256 481 l 256 158 q 250 84 256 114 q 225 35 243 54 q 179 8 208 16 q 104 0 149 0 l 104 872 q 105 926 104 907 q 114 953 106 945 q 136 963 121 962 q 181 964 152 964 l 587 964 m 256 930 l 256 516 l 433 516 q 506 524 476 516 q 553 549 535 531 q 580 595 572 566 q 588 667 588 624 l 588 779 q 580 851 588 822 q 553 897 572 880 q 506 922 535 915 q 433 930 476 930 l 256 930 z "},"S":{"ha":772,"x_min":68,"x_max":705,"o":"m 106 374 l 106 306 q 123 203 106 252 q 171 116 140 154 q 248 56 203 79 q 349 33 293 33 l 399 33 q 472 43 442 33 q 519 71 501 52 q 545 119 537 90 q 553 184 553 147 l 553 231 q 543 294 553 267 q 514 340 532 320 q 472 374 496 359 q 419 401 448 388 q 342 434 382 417 q 261 472 301 452 q 185 516 221 492 q 122 569 149 541 q 98 603 108 584 q 81 644 87 623 q 72 687 75 665 q 68 730 68 709 q 69 771 68 747 q 75 822 70 795 q 92 873 80 848 q 127 919 104 899 q 186 952 150 939 q 275 964 222 964 l 512 964 q 571 952 543 964 q 620 920 600 941 q 653 872 641 899 q 665 813 665 844 l 665 684 l 626 684 q 604 779 623 734 q 553 857 585 823 q 478 910 521 890 q 383 930 435 930 l 374 930 q 299 923 328 930 q 252 897 269 915 q 227 851 234 880 q 220 779 220 822 q 225 731 220 755 q 252 683 231 707 q 312 633 273 659 q 420 579 352 608 q 480 554 448 567 q 544 526 512 542 q 605 490 576 510 q 656 443 633 470 q 691 380 678 416 q 705 300 705 345 l 705 240 q 650 62 705 123 q 482 0 595 0 l 220 0 q 161 12 189 0 q 113 44 134 24 q 80 93 92 65 q 68 151 68 120 l 68 374 l 106 374 z "},"T":{"ha":646,"x_min":0,"x_max":646,"o":"m 245 0 l 245 929 l 193 929 q 121 922 150 929 q 73 897 92 914 q 47 850 55 879 q 39 780 39 822 l 39 684 l 0 684 l 0 876 q 2 924 0 907 q 11 951 3 942 q 35 962 18 960 q 80 964 51 964 l 564 964 q 611 962 594 964 q 635 951 627 960 q 645 924 643 942 q 646 876 646 906 l 646 684 l 607 684 l 607 780 q 599 850 607 822 q 572 897 591 879 q 525 922 554 914 q 452 929 495 929 l 399 929 l 399 162 q 391 85 399 117 q 365 35 383 54 q 317 8 347 16 q 245 0 288 0 z "},"U":{"ha":786,"x_min":104,"x_max":682,"o":"m 104 814 q 112 891 104 860 q 138 941 120 922 q 186 968 157 960 q 258 977 216 977 l 258 184 q 274 106 258 135 q 310 61 289 77 q 353 40 331 45 q 387 35 374 35 l 490 35 q 562 42 532 35 q 610 67 591 50 q 637 114 629 85 q 645 186 645 143 l 645 896 q 646 934 645 919 q 650 959 646 949 q 661 972 653 968 q 682 977 669 977 l 682 153 q 677 103 682 130 q 657 53 673 76 q 611 15 642 31 q 530 0 581 0 l 256 0 q 197 12 224 0 q 148 45 169 24 q 116 93 127 66 q 104 153 104 121 l 104 814 z "},"V":{"ha":682,"x_min":-22,"x_max":699,"o":"m 397 148 q 506 538 452 341 q 615 928 560 736 q 631 957 621 951 q 661 964 641 964 l 696 964 l 697 963 q 699 961 699 962 q 666 951 676 959 q 649 920 656 943 l 384 -14 q 363 -13 379 -14 q 329 -1 348 -11 q 292 30 310 9 q 262 91 273 52 l 39 901 q 31 926 35 915 q 20 944 26 937 q 3 957 14 952 q -22 961 -7 961 q -19 964 -22 964 l 46 964 q 101 957 75 964 q 149 936 127 950 q 186 901 171 922 q 210 850 202 880 l 397 148 z "},"W":{"ha":1114,"x_min":-22,"x_max":1131,"o":"m 389 148 l 536 690 l 477 901 q 469 923 473 912 q 459 942 465 934 q 445 955 454 950 q 422 960 436 960 l 422 960 q 421 962 421 960 l 422 964 l 484 964 q 551 953 523 964 q 598 926 579 943 q 629 890 618 910 q 646 851 641 870 l 833 148 q 943 538 889 340 q 1051 928 996 736 q 1065 957 1057 949 q 1090 964 1074 964 l 1131 964 q 1124 961 1130 964 q 1110 951 1118 958 q 1096 938 1103 945 q 1087 921 1089 930 l 821 -14 q 799 -12 815 -14 q 765 0 783 -9 q 729 32 747 10 q 701 92 711 53 l 554 627 l 377 -14 q 356 -12 372 -14 q 322 0 341 -9 q 285 32 304 10 q 255 92 267 53 l 33 901 q 25 923 29 912 q 16 942 22 934 q 2 955 11 950 q -20 960 -6 960 q -22 962 -22 960 l -22 963 l -21 963 q -20 964 -20 964 l 39 964 q 106 953 77 964 q 154 926 134 943 q 186 890 174 910 q 204 851 199 870 l 389 148 z "},"X":{"ha":736,"x_min":-17,"x_max":753,"o":"m 649 0 q 607 4 629 0 q 565 18 585 7 q 527 45 545 28 q 496 91 509 63 l 326 448 l 103 43 q 74 11 92 22 q 26 0 56 0 l -16 0 l -17 1 l -17 3 q -16 4 -17 4 q 24 13 7 4 q 53 43 41 22 l 306 493 l 115 892 q 102 915 109 903 q 88 937 96 927 q 70 953 80 947 q 46 960 60 960 q 45 962 45 960 l 45 962 q 46 964 45 964 l 118 964 q 174 962 149 964 q 218 951 198 960 q 254 925 237 943 q 286 875 270 907 l 419 595 l 588 920 q 618 954 600 944 q 667 964 635 964 l 701 964 q 703 962 702 964 l 704 962 q 701 960 704 960 q 664 950 679 960 q 639 920 648 940 l 440 549 l 671 65 q 685 43 677 54 q 704 24 693 33 q 726 9 714 15 q 750 4 738 4 q 753 1 753 4 q 752 1 753 1 q 750 0 751 0 l 649 0 z "},"Y":{"ha":701,"x_min":-17,"x_max":718,"o":"m 264 462 l 60 894 q 46 919 54 907 q 31 940 39 931 q 11 955 22 949 q -16 961 -1 961 q -17 962 -17 961 q -16 964 -17 964 l 60 964 q 115 962 91 964 q 159 952 140 960 q 196 925 179 943 q 227 876 212 907 l 393 522 l 600 919 q 630 953 612 943 q 677 964 647 964 l 717 964 q 718 962 718 964 q 717 961 718 961 q 678 951 693 961 q 652 919 663 942 l 418 475 l 418 162 q 410 86 418 117 q 384 36 402 55 q 336 8 366 17 q 264 0 307 0 l 264 462 z "},"Z":{"ha":799,"x_min":68,"x_max":736,"o":"m 555 930 l 368 930 q 273 910 316 930 q 198 857 230 890 q 148 778 167 823 q 126 683 130 733 l 87 683 l 87 813 q 99 872 87 844 q 132 920 111 899 q 180 952 153 941 q 239 964 208 964 l 736 964 l 246 33 l 450 33 q 551 56 506 33 q 628 117 596 79 q 676 204 659 155 q 692 306 692 254 l 692 374 l 731 374 l 731 152 q 719 93 731 121 q 687 44 707 65 q 638 12 666 24 q 579 0 610 0 l 68 0 l 555 930 z "},"[":{"ha":376,"x_min":68,"x_max":309,"o":"m 68 876 q 69 924 68 907 q 78 951 71 942 q 102 962 86 960 q 148 964 118 964 l 309 964 l 309 930 l 229 930 l 229 -182 l 309 -182 l 309 -216 l 148 -216 q 102 -214 118 -216 q 78 -203 86 -212 q 69 -177 71 -195 q 68 -127 68 -159 l 68 876 z "},"\\":{"ha":672,"x_min":0,"x_max":665,"o":"m 665 -184 q 632 -183 643 -184 q 615 -177 622 -182 q 604 -163 609 -173 q 589 -136 599 -154 q 294 414 439 141 q 0 964 150 687 q 27 965 18 964 q 42 962 36 965 q 52 951 47 960 q 66 926 57 943 q 366 371 216 649 q 665 -184 515 94 z "},"]":{"ha":376,"x_min":68,"x_max":309,"o":"m 309 -127 q 307 -177 309 -159 q 298 -203 306 -195 q 274 -214 290 -212 q 229 -216 258 -216 l 68 -216 l 68 -182 l 148 -182 l 148 930 l 68 930 l 68 964 l 229 964 q 274 962 258 964 q 298 951 290 960 q 307 924 306 942 q 309 876 309 907 l 309 -127 z "},"^":{"ha":1164,"x_min":391,"x_max":772,"o":"m 772 846 l 582 971 l 391 846 l 528 1026 q 549 1044 537 1042 q 581 1046 561 1046 l 583 1046 q 615 1044 603 1046 q 636 1026 627 1042 l 772 846 z "},"_":{"ha":685,"x_min":0,"x_max":685,"o":"m 0 -40 q 4 -15 0 -24 q 18 -3 8 -7 q 43 0 27 0 q 82 0 58 0 l 685 0 q 681 -24 685 -16 q 667 -36 677 -33 q 642 -40 658 -39 q 603 -40 626 -40 l 0 -40 z "},"`":{"ha":1159,"x_min":457,"x_max":703,"o":"m 522 1019 q 564 1000 550 1015 q 590 962 579 985 q 614 909 600 938 q 648 848 628 880 q 703 785 669 816 l 682 785 q 621 833 651 815 q 563 864 590 852 q 512 887 535 877 q 475 911 489 897 q 463 930 467 919 q 458 955 458 942 q 461 979 457 967 q 475 1001 465 991 q 522 1019 493 1021 z "},"a":{"ha":730,"x_min":68,"x_max":626,"o":"m 476 498 l 476 562 q 437 677 476 643 q 318 712 399 712 q 250 704 278 712 q 204 679 222 696 q 179 632 186 661 q 171 562 171 604 l 171 546 l 132 546 l 132 657 q 134 706 132 688 q 144 732 136 724 q 168 744 152 741 q 212 746 184 746 l 476 746 q 531 733 504 746 q 579 698 557 720 q 613 650 600 677 q 626 595 626 623 l 626 152 q 614 95 626 121 q 581 47 602 68 q 532 15 559 27 q 476 0 505 2 l 218 0 q 159 12 186 0 q 112 44 132 24 q 80 93 92 65 q 68 152 68 121 l 68 347 q 80 405 68 378 q 112 453 92 433 q 159 486 132 474 q 218 498 186 498 l 476 498 m 476 464 l 372 464 q 300 456 330 464 q 252 431 271 448 q 226 384 234 413 q 218 314 218 355 l 218 185 q 224 119 218 146 q 246 74 231 92 q 285 47 261 56 q 344 35 309 37 q 406 46 380 37 q 447 73 431 55 q 469 118 463 91 q 476 185 476 146 l 476 464 z "},"b":{"ha":731,"x_min":68,"x_max":627,"o":"m 221 978 l 221 747 l 477 747 q 536 735 509 747 q 583 703 563 724 q 615 655 604 683 q 627 597 627 628 l 627 151 q 615 92 627 119 q 583 44 604 64 q 536 12 563 24 q 477 0 509 0 l 68 0 l 68 815 q 76 892 68 861 q 102 943 84 924 q 150 970 121 962 q 221 978 179 978 m 221 713 l 221 33 l 321 33 q 394 41 364 33 q 443 67 424 49 q 469 114 461 85 q 477 185 477 143 l 477 564 q 469 634 477 606 q 443 681 461 663 q 394 706 424 699 q 321 713 364 713 l 221 713 z "},"c":{"ha":662,"x_min":68,"x_max":594,"o":"m 553 547 q 532 613 548 583 q 490 665 515 643 q 432 700 465 688 q 361 713 399 713 q 295 705 322 713 q 251 679 268 697 q 226 632 234 661 q 218 562 218 604 l 218 184 q 226 113 218 142 q 252 66 234 84 q 300 41 271 49 q 372 34 330 34 l 404 34 q 474 42 446 34 q 520 67 503 50 q 546 114 538 85 q 553 184 553 142 l 553 249 l 594 249 l 594 152 q 589 103 594 130 q 569 53 585 76 q 523 15 553 31 q 442 0 492 0 l 220 0 q 162 12 190 0 q 114 44 135 24 q 80 93 93 65 q 68 152 68 120 l 68 595 q 80 654 68 627 q 114 703 93 682 q 163 735 136 724 q 220 747 190 747 l 442 747 q 523 732 492 747 q 569 694 553 717 q 589 645 585 671 q 594 595 594 618 l 594 547 l 553 547 z "},"d":{"ha":731,"x_min":68,"x_max":627,"o":"m 474 713 l 372 713 q 300 706 329 713 q 253 681 271 699 q 227 634 235 663 q 219 564 219 606 l 219 184 q 226 118 219 146 q 248 72 233 90 q 287 44 262 53 q 347 35 311 35 q 445 71 416 35 q 474 184 474 108 l 474 713 m 219 0 q 162 11 189 0 q 114 39 135 21 q 80 83 93 58 q 68 138 68 109 l 68 596 q 80 655 68 627 q 112 703 92 683 q 160 735 133 724 q 219 747 188 747 l 474 747 l 474 816 q 482 892 474 861 q 508 943 490 924 q 555 970 526 962 q 627 978 585 978 l 627 138 q 617 75 627 101 q 587 33 607 49 q 539 8 568 16 q 473 0 510 1 l 219 0 z "},"e":{"ha":694,"x_min":68,"x_max":626,"o":"m 347 712 q 247 676 276 712 q 218 564 218 641 l 218 499 l 475 499 l 475 564 q 469 630 475 602 q 447 676 462 659 q 407 703 431 694 q 347 712 382 712 m 218 466 l 218 184 q 226 113 218 142 q 252 66 234 83 q 299 40 270 48 q 372 33 329 33 l 379 33 q 451 40 422 33 q 498 66 480 48 q 525 113 517 83 q 532 184 532 142 l 532 248 l 571 248 l 571 151 q 566 102 571 128 q 546 53 562 75 q 500 15 530 30 q 420 0 471 0 l 218 0 q 164 13 191 0 q 116 47 137 26 q 81 95 94 68 q 68 151 68 122 l 68 597 q 80 653 68 627 q 113 700 92 680 q 161 733 134 720 q 218 747 188 745 l 475 747 q 534 735 507 747 q 582 703 562 724 q 614 655 602 682 q 626 597 626 627 l 626 466 l 218 466 z "},"f":{"ha":357,"x_min":0,"x_max":425,"o":"m 234 851 l 234 747 l 382 747 l 382 713 l 234 713 l 234 158 q 227 84 234 114 q 202 35 220 54 q 155 8 184 16 q 81 0 125 0 l 81 713 l 0 713 l 0 747 l 81 747 l 81 814 q 92 872 81 845 q 122 920 102 900 q 170 952 142 941 q 231 964 197 964 l 360 964 q 398 960 385 964 q 417 944 411 955 q 424 917 423 933 q 425 876 425 900 l 425 815 l 385 815 q 376 860 382 840 q 359 895 370 880 q 332 918 349 909 q 294 926 316 926 q 249 904 263 926 q 234 851 234 883 z "},"g":{"ha":732,"x_min":68,"x_max":629,"o":"m 108 -70 q 121 -124 111 -102 q 149 -159 131 -146 q 195 -179 168 -173 q 261 -185 223 -185 l 323 -185 q 434 -162 395 -185 q 473 -81 473 -139 l 473 0 l 211 0 q 155 12 181 0 q 110 45 129 24 q 79 93 90 66 q 68 151 68 120 l 68 597 q 78 655 68 627 q 108 703 89 682 q 153 735 127 724 q 211 747 180 747 l 629 747 l 629 -81 q 618 -146 629 -119 q 589 -189 608 -172 q 540 -212 569 -205 q 473 -219 511 -219 l 211 -219 q 135 -204 163 -219 q 92 -166 107 -189 q 73 -118 77 -144 q 68 -70 68 -92 l 108 -70 m 347 35 q 445 71 416 35 q 473 183 473 106 l 473 713 l 373 713 q 301 706 330 713 q 253 680 271 698 q 227 634 235 663 q 218 562 218 605 l 218 183 q 248 71 218 106 q 347 35 277 35 z "},"h":{"ha":730,"x_min":68,"x_max":627,"o":"m 221 977 l 221 747 l 473 747 q 532 735 505 747 q 581 703 560 724 q 614 655 602 683 q 627 596 627 627 l 627 158 q 620 83 627 113 q 595 35 612 53 q 548 8 578 16 q 473 0 518 0 l 473 563 q 445 676 473 640 q 346 713 416 713 l 221 713 l 221 158 q 214 83 221 113 q 190 35 207 53 q 142 8 172 16 q 68 0 113 0 l 68 814 q 76 891 68 860 q 102 941 83 922 q 149 968 120 960 q 221 977 178 977 z "},"i":{"ha":326,"x_min":59,"x_max":231,"o":"m 146 997 q 178 990 163 997 q 205 972 194 983 q 224 945 217 960 q 231 911 231 929 q 224 878 231 894 q 205 850 217 862 q 178 831 194 838 q 146 824 163 824 q 113 831 128 824 q 85 850 97 838 q 66 878 73 862 q 59 911 59 894 q 66 944 59 928 q 85 971 73 960 q 113 990 97 983 q 146 997 128 997 m 221 157 q 214 83 221 113 q 190 35 207 53 q 143 8 172 16 q 68 0 113 0 l 68 597 q 77 674 68 643 q 103 724 85 705 q 150 751 121 743 q 221 760 179 760 l 221 157 z "},"j":{"ha":349,"x_min":-9,"x_max":254,"o":"m 245 -68 q 241 -126 245 -99 q 222 -175 237 -154 q 177 -207 207 -195 q 94 -219 146 -219 l -7 -219 q -9 -218 -9 -219 q -7 -216 -9 -216 q 50 -198 30 -216 q 80 -152 71 -180 q 91 -93 89 -125 q 92 -35 92 -62 l 92 599 q 100 676 92 645 q 126 726 108 707 q 173 753 144 745 q 245 761 202 761 l 245 -68 m 168 998 q 201 990 186 998 q 229 972 217 983 q 248 944 241 960 q 254 911 254 928 q 248 877 254 893 q 229 849 241 861 q 201 830 217 837 q 168 823 186 823 q 135 830 151 823 q 107 849 119 838 q 88 877 95 861 q 81 911 81 893 q 88 944 81 928 q 107 971 95 960 q 135 990 119 983 q 168 998 151 998 z "},"k":{"ha":673,"x_min":68,"x_max":678,"o":"m 220 978 l 220 372 l 505 697 q 518 711 511 703 q 535 727 525 720 q 557 740 545 734 q 587 745 570 745 l 621 745 l 624 745 q 623 742 624 742 q 621 742 622 741 q 601 738 610 742 q 584 727 591 733 q 568 712 576 720 q 554 697 561 704 l 342 456 l 606 64 q 618 46 611 56 q 635 26 626 35 q 655 9 644 16 q 676 3 665 3 l 678 3 q 676 0 678 0 l 596 0 q 541 0 566 0 q 494 7 516 0 q 450 32 471 14 q 407 84 429 50 l 220 368 l 220 159 q 213 84 220 114 q 189 35 206 54 q 142 8 171 16 q 68 0 113 0 l 68 815 q 76 892 68 861 q 102 943 84 924 q 149 970 120 962 q 220 978 178 978 z "},"l":{"ha":347,"x_min":68,"x_max":313,"o":"m 221 979 l 221 185 q 221 125 221 157 q 229 66 221 93 q 255 22 237 39 q 311 4 274 4 q 313 2 313 4 q 311 0 313 0 l 219 0 q 136 12 166 0 q 91 44 106 24 q 72 93 75 65 q 68 152 68 121 l 68 817 q 76 893 68 862 q 102 943 84 924 q 149 970 120 962 q 221 979 178 979 z "},"m":{"ha":1135,"x_min":68,"x_max":1035,"o":"m 882 747 q 940 735 912 747 q 989 703 968 724 q 1022 654 1010 682 q 1035 595 1035 627 l 1035 159 q 1028 84 1035 115 q 1003 35 1021 54 q 956 8 986 16 q 882 0 926 0 l 882 563 q 851 677 882 641 q 755 713 821 713 l 629 713 l 629 159 q 625 97 629 123 q 609 52 620 71 q 581 22 599 33 q 536 5 563 10 q 492 0 519 1 l 475 0 l 475 570 q 443 679 473 644 q 349 713 412 713 l 222 713 l 222 159 q 215 84 222 115 q 190 35 208 54 q 142 8 172 16 q 68 0 113 0 l 68 747 l 882 747 l 882 747 z "},"n":{"ha":732,"x_min":68,"x_max":628,"o":"m 475 747 q 533 735 505 747 q 582 703 561 724 q 615 654 603 682 q 628 595 628 627 l 628 159 q 621 84 628 115 q 596 35 614 54 q 549 8 579 16 q 475 0 519 0 l 475 563 q 445 677 475 641 q 349 713 414 713 l 222 713 l 222 159 q 215 84 222 115 q 190 35 208 54 q 142 8 172 16 q 68 0 113 0 l 68 747 l 349 747 l 475 747 l 475 747 z "},"o":{"ha":729,"x_min":68,"x_max":625,"o":"m 460 747 q 523 737 493 747 q 575 708 553 727 q 612 660 598 688 q 625 595 625 631 l 625 152 q 612 87 625 115 q 575 40 598 59 q 523 10 553 20 q 460 0 493 0 l 233 0 q 171 10 201 0 q 118 40 141 20 q 82 87 96 59 q 68 152 68 115 l 68 595 q 82 660 68 631 q 118 708 96 688 q 171 737 141 727 q 233 747 201 747 l 460 747 m 218 184 q 225 117 218 146 q 247 71 232 89 q 287 43 262 52 q 347 35 311 35 q 407 43 382 35 q 447 71 431 52 q 469 117 462 89 q 475 184 475 146 l 475 563 q 469 630 475 602 q 447 677 462 659 q 407 704 431 695 q 347 713 382 713 q 287 704 311 713 q 247 677 262 695 q 225 630 232 659 q 218 563 218 602 l 218 184 z "},"p":{"ha":729,"x_min":68,"x_max":625,"o":"m 68 747 l 475 747 q 533 735 505 747 q 581 703 560 724 q 613 654 602 682 q 625 595 625 627 l 625 151 q 613 92 625 119 q 581 43 602 64 q 533 11 560 23 q 475 -1 505 -1 l 221 -1 l 221 -71 q 213 -148 221 -117 q 187 -197 205 -178 q 140 -224 169 -216 q 68 -233 111 -233 l 68 747 m 221 33 l 321 33 q 393 41 364 33 q 441 66 422 49 q 467 113 459 84 q 475 184 475 142 l 475 562 q 446 676 475 640 q 349 713 418 713 l 221 713 l 221 33 z "},"q":{"ha":729,"x_min":68,"x_max":625,"o":"m 625 -233 q 553 -224 583 -233 q 506 -197 524 -216 q 480 -148 488 -178 q 472 -71 472 -117 l 472 -1 l 218 -1 q 160 11 188 -1 q 112 43 133 23 q 80 92 92 64 q 68 151 68 119 l 68 595 q 80 654 68 627 q 112 703 92 682 q 160 735 133 724 q 218 747 188 747 l 472 747 q 584 710 543 747 q 625 595 625 673 l 625 -233 m 472 562 q 443 676 472 640 q 345 713 414 713 q 247 676 275 713 q 218 562 218 640 l 218 184 q 226 113 218 142 q 252 66 234 84 q 300 41 271 49 q 372 33 329 33 l 472 33 l 472 562 z "},"r":{"ha":511,"x_min":68,"x_max":477,"o":"m 436 546 q 421 604 431 575 q 394 655 410 633 q 355 691 378 677 q 304 705 333 705 q 243 676 264 705 q 221 602 221 647 l 221 158 q 214 84 221 114 q 190 35 207 54 q 142 8 172 16 q 68 0 113 0 l 68 585 q 76 662 68 631 q 102 712 84 693 q 149 739 120 731 q 221 747 178 747 l 364 747 q 421 736 399 747 q 455 705 443 724 q 472 659 468 685 q 477 602 477 632 l 477 546 l 436 546 z "},"s":{"ha":694,"x_min":68,"x_max":627,"o":"m 218 747 l 458 747 q 536 732 509 747 q 576 694 564 717 q 592 645 589 671 q 594 597 594 619 l 594 547 l 553 547 q 533 614 547 583 q 495 666 518 644 q 440 701 471 688 q 370 713 408 713 l 331 713 q 261 707 289 713 q 217 684 233 700 q 193 643 200 669 q 186 580 186 618 q 202 530 186 551 q 247 493 219 509 q 310 465 275 477 q 384 443 346 453 q 458 423 421 433 q 525 401 494 413 q 565 379 547 393 q 597 347 584 366 q 619 306 611 328 q 627 259 627 283 l 627 151 q 615 93 627 120 q 582 44 603 65 q 534 12 562 24 q 475 0 506 0 l 260 0 q 172 9 209 0 q 113 41 136 19 q 79 98 90 62 q 68 184 68 133 l 68 249 l 106 249 l 106 184 q 115 113 106 142 q 141 66 123 84 q 188 41 159 49 q 260 34 217 34 l 354 34 q 426 39 397 34 q 473 59 455 44 q 499 100 491 74 q 507 168 507 125 l 507 184 q 488 240 507 218 q 438 276 469 261 q 368 300 407 290 q 287 321 328 310 q 207 347 246 332 q 137 384 168 361 q 87 442 106 408 q 68 528 68 477 l 68 597 q 80 655 68 628 q 112 703 92 683 q 160 735 132 724 q 218 747 187 747 z "},"t":{"ha":381,"x_min":0,"x_max":381,"o":"m 234 183 q 234 147 234 167 q 235 107 233 127 q 240 69 236 87 q 253 36 244 50 q 277 12 262 21 q 315 3 292 3 q 317 1 317 3 q 315 0 317 0 l 234 0 q 151 13 181 0 q 104 50 120 26 q 85 107 89 73 q 81 183 81 141 l 81 714 l 0 714 l 0 747 l 81 747 l 81 815 q 89 892 81 861 q 115 942 96 923 q 162 969 133 961 q 234 977 191 977 l 234 747 l 381 747 l 381 714 l 234 714 l 234 183 z "},"u":{"ha":732,"x_min":68,"x_max":628,"o":"m 219 0 q 142 13 172 0 q 96 50 113 26 q 74 107 79 74 q 68 181 68 140 l 68 602 q 75 676 68 646 q 100 725 82 706 q 147 751 117 743 q 222 760 177 760 l 222 152 q 230 99 222 121 q 256 62 238 77 q 303 41 274 47 q 375 34 332 34 l 435 34 q 550 61 511 34 q 589 149 589 88 l 589 679 q 590 718 589 702 q 595 742 591 733 q 607 755 599 751 q 628 760 614 760 l 628 149 q 620 93 628 120 q 593 46 612 66 q 542 13 574 25 q 461 0 510 0 l 219 0 z "},"v":{"ha":637,"x_min":0,"x_max":637,"o":"m 635 747 q 636 747 636 747 q 637 747 636 747 q 637 746 637 746 q 635 743 637 743 q 607 734 617 743 q 592 706 597 725 l 364 -14 q 345 -12 359 -14 q 314 0 331 -10 q 278 31 296 9 q 248 91 260 52 l 60 684 q 51 708 56 697 q 41 727 47 720 q 25 739 35 734 q 2 743 16 743 q 0 746 0 743 l 1 747 q 1 747 1 747 q 2 747 1 747 l 61 747 q 128 738 100 747 q 175 713 155 729 q 206 674 194 696 q 227 625 218 652 l 376 148 l 557 715 q 571 741 564 734 q 595 747 578 747 l 635 747 z "},"w":{"ha":1009,"x_min":0,"x_max":1009,"o":"m 378 149 l 489 492 l 427 686 q 418 708 422 698 q 408 727 414 719 q 393 740 402 735 q 370 744 384 744 l 369 744 q 368 746 368 744 l 370 747 l 429 747 q 495 741 468 748 q 540 719 522 734 q 571 680 559 703 q 593 625 583 656 l 743 149 l 924 715 q 939 738 930 729 q 964 747 947 747 l 1007 747 l 1009 746 q 1008 744 1009 744 l 1007 744 q 977 736 987 744 q 959 708 967 729 l 731 -14 q 711 -12 726 -14 q 680 1 697 -9 q 645 32 663 11 q 614 92 627 54 l 507 435 l 367 -14 q 348 -12 362 -14 q 317 1 334 -9 q 281 32 299 11 q 250 92 262 54 l 62 686 q 53 710 58 699 q 42 728 49 721 q 26 740 36 736 q 2 744 17 744 l 1 744 q 0 746 0 744 l 2 747 l 64 747 q 131 740 103 747 q 177 718 158 732 q 208 680 195 703 q 229 626 220 656 l 378 149 z "},"x":{"ha":718,"x_min":0,"x_max":718,"o":"m 604 0 q 568 4 589 0 q 525 20 547 9 q 482 48 503 31 q 446 92 461 66 l 307 336 l 110 45 q 96 26 102 35 q 80 12 89 18 q 61 3 72 6 q 33 0 50 0 l 3 0 q 1 1 1 0 q 0 1 0 1 q 3 3 0 3 q 38 14 26 3 q 64 43 51 24 l 284 373 l 108 674 q 94 698 100 686 q 79 721 87 711 q 60 738 71 731 q 35 744 50 744 l 33 745 q 34 747 33 746 q 35 747 34 747 l 111 747 q 168 745 143 747 q 212 732 192 742 q 248 704 231 722 q 283 656 265 686 l 385 476 l 534 709 q 548 727 541 720 q 564 739 555 734 q 583 746 572 744 q 610 747 594 747 l 635 747 q 637 745 637 747 l 637 744 l 635 744 q 603 736 616 744 q 580 710 590 728 l 407 437 l 625 66 q 663 21 642 39 q 715 3 684 3 q 716 3 716 3 q 718 3 717 3 l 718 3 q 715 0 718 0 l 604 0 z "},"y":{"ha":615,"x_min":-34,"x_max":615,"o":"m -32 747 l 32 747 q 98 741 71 747 q 144 719 125 734 q 176 682 163 705 q 199 627 189 659 l 350 151 l 532 715 q 547 742 539 736 q 572 747 555 747 l 612 747 q 615 746 615 747 q 612 745 615 745 q 583 736 593 745 q 567 707 574 727 l 309 -109 q 285 -166 299 -144 q 254 -202 271 -189 q 218 -220 237 -215 q 180 -225 199 -225 l 166 -225 q 86 -211 116 -226 q 40 -173 56 -196 q 19 -124 24 -151 q 13 -75 14 -97 q 29 -75 22 -75 q 40 -80 36 -76 q 48 -91 45 -83 q 53 -111 51 -98 q 91 -173 62 -153 q 178 -191 120 -193 q 246 -155 221 -190 q 287 -61 271 -121 l 303 -7 q 281 4 293 -3 q 259 22 270 11 q 238 51 248 34 q 220 93 228 68 l 31 685 q 21 711 26 700 q 10 730 16 722 q -6 742 3 738 q -32 745 -16 745 q -34 746 -34 745 q -32 747 -34 747 z "},"z":{"ha":718,"x_min":63,"x_max":650,"o":"m 245 33 l 458 33 q 530 40 500 33 q 577 61 559 47 q 603 99 595 76 q 611 153 611 121 l 611 248 l 650 248 l 650 151 q 646 102 650 129 q 625 53 641 76 q 579 15 609 31 q 498 0 549 0 l 63 0 l 467 714 l 300 714 q 228 706 258 714 q 181 681 199 699 q 155 634 163 663 q 146 564 146 606 l 146 547 l 107 547 l 107 659 q 108 698 107 682 q 116 726 109 715 q 140 742 123 736 q 187 747 156 747 l 650 747 l 245 33 z "},"{":{"ha":571,"x_min":0,"x_max":503,"o":"m 174 202 q 162 279 174 250 q 130 325 151 309 q 75 347 108 341 q 0 354 43 353 l 0 385 q 75 391 43 385 q 130 413 108 397 q 162 459 151 430 q 174 536 174 488 l 174 812 q 186 871 174 843 q 219 919 198 899 q 269 952 241 940 q 328 964 296 964 l 503 964 l 503 932 l 484 932 q 411 923 441 931 q 363 898 382 916 q 337 851 345 880 q 328 779 328 822 l 328 505 q 306 424 328 460 q 248 368 284 388 q 306 313 284 349 q 328 233 328 277 l 328 -41 q 337 -113 328 -84 q 363 -160 345 -142 q 411 -185 382 -178 q 484 -194 441 -193 l 503 -195 l 503 -227 l 328 -227 q 269 -215 296 -227 q 219 -182 241 -203 q 186 -133 198 -161 q 174 -74 174 -105 l 174 202 z "},"|":{"ha":253,"x_min":104,"x_max":149,"o":"m 149 -102 q 148 -142 149 -126 q 142 -167 147 -157 q 129 -180 138 -176 q 104 -184 120 -184 l 104 896 q 105 935 104 919 q 110 960 106 951 q 124 974 115 970 q 149 978 133 978 l 149 -102 z "},"}":{"ha":571,"x_min":68,"x_max":571,"o":"m 397 -73 q 385 -132 397 -104 q 352 -181 373 -160 q 302 -214 330 -202 q 243 -227 274 -227 l 68 -227 l 68 -194 l 87 -193 q 160 -185 130 -193 q 208 -159 189 -177 q 234 -113 226 -142 q 243 -41 243 -83 l 243 234 q 265 314 243 277 q 323 369 287 350 q 265 425 287 389 q 243 506 243 461 l 243 780 q 234 851 243 823 q 208 898 226 880 q 160 924 189 916 q 87 932 130 932 l 68 932 l 68 965 l 243 965 q 302 953 274 965 q 352 920 330 941 q 385 871 373 899 q 397 812 397 844 l 397 536 q 409 460 397 489 q 441 414 420 431 q 496 392 463 397 q 571 385 528 386 l 571 355 q 496 348 528 354 q 441 326 463 342 q 409 280 420 309 q 397 203 397 250 l 397 -73 z "},"~":{"ha":829,"x_min":109,"x_max":709,"o":"m 119 429 q 171 468 140 454 q 236 487 201 482 q 308 489 271 492 q 376 473 344 485 q 452 452 414 460 q 537 445 490 445 q 624 457 585 446 q 694 492 663 467 q 708 470 707 479 q 699 450 709 460 q 662 428 684 435 q 617 410 640 421 q 573 395 597 400 q 525 390 549 391 q 478 393 501 389 q 435 406 455 397 q 392 421 412 414 q 350 434 371 429 q 305 441 328 439 q 254 443 281 444 q 178 428 209 443 q 119 389 147 412 q 111 410 112 400 q 119 429 109 419 z "},"":{"ha":769,"x_min":0,"x_max":774,"o":"m 772 3 q 752 8 760 3 q 738 22 744 14 q 729 41 732 31 q 722 62 726 52 l 431 978 q 408 976 424 978 q 374 966 392 975 q 338 942 355 958 q 311 896 321 925 l 40 43 q 26 14 34 26 q 1 3 19 3 q 0 1 0 3 q 1 0 0 0 l 33 0 q 61 6 52 0 q 77 35 69 13 l 186 375 l 469 375 l 547 113 q 566 73 553 93 q 598 37 578 53 q 648 10 618 20 q 716 0 677 0 l 772 0 q 774 1 774 0 q 772 3 774 3 m 334 844 l 459 410 l 197 410 l 334 844 m 550 1234 q 611 1207 585 1234 q 637 1145 637 1181 q 612 1082 637 1107 q 550 1056 587 1056 q 485 1082 511 1056 q 459 1145 459 1107 q 486 1207 459 1181 q 550 1234 513 1234 m 227 1234 q 291 1207 264 1234 q 317 1145 317 1181 q 291 1082 317 1107 q 227 1056 265 1056 q 165 1082 190 1056 q 140 1145 140 1107 q 166 1207 140 1181 q 227 1234 192 1234 z "},"":{"ha":769,"x_min":0,"x_max":769,"o":"m 768 3 q 747 8 755 3 q 733 22 739 14 q 724 41 728 31 q 718 62 721 52 l 426 978 q 404 976 419 978 q 371 966 389 975 q 337 942 354 958 q 311 896 321 925 l 40 43 q 26 14 34 26 q 1 3 19 3 q 0 1 0 3 q 1 0 0 0 l 33 0 q 61 6 52 0 q 77 35 69 13 l 186 375 l 469 375 l 547 113 q 566 73 553 93 q 598 37 578 53 q 648 10 618 20 q 716 0 677 0 l 768 0 q 769 1 769 0 q 768 3 769 3 m 334 844 l 459 410 l 197 410 l 334 844 m 505 1151 q 500 1114 505 1134 q 484 1077 496 1094 q 448 1048 471 1059 q 387 1036 425 1036 q 327 1048 349 1036 q 292 1077 304 1060 q 276 1115 280 1095 q 273 1151 273 1135 l 273 1153 q 276 1190 273 1169 q 292 1228 280 1210 q 327 1258 304 1246 q 387 1270 349 1270 q 448 1258 425 1270 q 484 1229 471 1246 q 500 1190 496 1211 q 505 1151 505 1168 m 467 1153 q 465 1180 467 1166 q 453 1205 462 1194 q 429 1223 445 1216 q 387 1230 413 1230 q 347 1223 362 1230 q 323 1205 332 1217 q 313 1181 315 1194 q 310 1153 310 1167 q 312 1126 310 1140 q 323 1100 315 1112 q 346 1081 331 1088 q 387 1074 361 1074 q 430 1081 414 1074 q 454 1100 446 1088 q 465 1126 463 1112 q 467 1153 467 1140 z "},"":{"ha":798,"x_min":104,"x_max":730,"o":"m 562 964 q 621 952 593 964 q 669 920 648 941 q 702 871 690 899 q 714 812 714 844 l 714 683 l 675 683 q 652 792 671 746 q 604 869 633 839 q 537 915 574 900 q 460 930 500 930 l 409 930 q 339 922 368 930 q 291 896 310 913 q 264 849 273 878 q 255 780 255 821 l 255 184 q 264 114 255 143 q 291 67 273 85 q 339 41 310 50 q 409 33 368 33 l 460 33 q 543 51 501 33 q 617 103 584 68 q 671 188 650 137 q 692 305 692 239 l 692 373 l 730 373 l 730 151 q 718 93 730 120 q 685 44 706 65 q 637 12 665 24 q 578 0 610 0 l 255 0 q 196 12 224 0 q 148 44 169 24 q 116 93 127 65 q 104 151 104 120 l 104 812 q 116 871 104 844 q 148 920 127 899 q 196 952 169 941 q 255 964 224 964 l 562 964 m 349 0 q 352 -30 349 -20 q 365 -44 356 -39 q 387 -51 374 -50 q 420 -54 401 -52 q 450 -53 434 -54 q 479 -54 465 -52 q 526 -68 502 -56 q 571 -98 551 -79 q 605 -140 592 -116 q 618 -191 618 -163 q 607 -240 618 -217 q 575 -280 595 -263 q 530 -308 555 -298 q 477 -319 505 -318 l 471 -319 l 327 -319 q 252 -303 280 -318 q 209 -266 224 -288 q 190 -218 195 -243 q 185 -171 185 -193 l 227 -171 q 260 -258 231 -231 q 352 -286 290 -286 q 412 -272 387 -286 q 450 -237 436 -258 q 465 -193 463 -217 q 457 -148 467 -169 q 426 -110 448 -126 q 370 -90 404 -94 q 334 -83 346 -88 q 318 -67 322 -77 q 314 -42 313 -58 q 314 -2 314 -26 l 314 0 l 349 0 z "},"":{"ha":798,"x_min":104,"x_max":730,"o":"m 258 931 l 258 511 l 311 511 q 367 522 339 511 q 418 554 395 532 q 457 607 441 575 q 476 683 473 640 l 505 683 l 505 315 l 476 315 q 454 385 471 355 q 415 435 438 415 q 365 465 392 455 q 311 476 338 475 l 258 476 l 258 33 l 448 33 q 550 56 505 33 q 626 116 595 79 q 675 203 658 154 q 692 306 692 253 l 692 374 l 730 374 l 730 151 q 718 92 730 119 q 685 44 706 64 q 637 12 665 24 q 578 0 609 0 l 104 0 l 104 876 q 105 927 104 909 q 114 954 106 945 q 137 963 121 962 q 182 964 153 964 l 623 964 q 670 962 654 964 q 693 951 686 960 q 702 925 701 943 q 703 876 703 907 l 703 684 l 665 684 l 665 780 q 657 851 665 823 q 631 898 649 880 q 583 924 612 916 q 511 931 553 931 l 258 931 m 470 1234 q 517 1217 498 1236 q 530 1195 526 1207 q 534 1170 534 1183 q 529 1146 533 1158 q 517 1126 524 1135 q 479 1102 503 1112 q 429 1080 456 1093 q 371 1049 401 1067 q 310 1000 340 1031 l 289 1000 q 343 1063 323 1031 q 377 1124 363 1095 q 402 1177 391 1154 q 427 1216 412 1201 q 470 1234 441 1231 z "},"":{"ha":878,"x_min":104,"x_max":774,"o":"m 774 977 l 774 0 q 709 0 739 0 q 655 5 679 1 q 615 20 632 9 q 587 50 597 30 l 140 908 l 141 80 q 140 42 141 58 q 136 18 140 27 q 125 4 133 8 q 104 0 118 0 l 104 834 q 111 900 104 873 q 135 945 117 928 q 183 969 153 962 q 262 977 214 977 l 736 62 l 736 896 q 738 935 736 919 q 743 960 739 950 q 754 973 747 969 q 774 977 762 977 m 307 1148 q 341 1184 321 1171 q 385 1202 361 1198 q 432 1204 408 1207 q 477 1190 456 1200 q 528 1170 503 1177 q 584 1162 553 1162 q 641 1174 616 1164 q 688 1206 667 1183 q 691 1168 703 1185 q 666 1138 681 1153 q 637 1112 652 1123 q 576 1094 609 1095 q 516 1108 543 1093 q 487 1126 501 1116 q 459 1143 473 1135 q 430 1157 446 1152 q 397 1161 415 1162 q 346 1146 366 1161 q 307 1110 326 1132 q 301 1129 302 1120 q 307 1148 300 1139 z "},"":{"ha":896,"x_min":104,"x_max":792,"o":"m 640 964 l 256 964 q 197 952 224 964 q 149 920 170 941 q 116 872 128 900 q 104 812 104 844 l 104 152 q 116 93 104 121 q 149 44 128 65 q 197 12 170 24 q 256 0 224 0 l 640 0 q 699 12 671 0 q 748 44 727 24 q 780 93 768 65 q 792 152 792 121 l 792 812 q 780 872 792 844 q 748 920 768 900 q 699 952 727 941 q 640 964 671 964 m 486 931 q 558 924 529 931 q 606 899 588 916 q 632 852 624 881 q 640 781 640 823 l 640 184 q 632 114 640 142 q 606 67 624 85 q 558 42 588 50 q 486 34 529 34 l 409 34 q 337 42 366 34 q 290 67 308 50 q 263 114 271 85 q 256 184 256 142 l 256 781 q 263 852 256 823 q 290 899 271 881 q 337 924 308 916 q 409 931 366 931 l 486 931 m 614 1234 q 675 1207 649 1234 q 701 1144 701 1180 q 676 1081 701 1107 q 614 1055 651 1055 q 549 1081 575 1055 q 523 1144 523 1107 q 550 1207 523 1180 q 614 1234 577 1234 m 291 1234 q 354 1207 328 1234 q 381 1144 381 1180 q 355 1081 381 1107 q 291 1055 329 1055 q 229 1081 254 1055 q 203 1144 203 1107 q 230 1207 203 1180 q 291 1234 256 1234 z "},"":{"ha":786,"x_min":104,"x_max":682,"o":"m 104 153 q 116 93 104 121 q 148 45 127 66 q 197 12 169 24 q 256 0 224 0 l 530 0 q 611 15 581 0 q 657 53 642 31 q 677 103 673 76 q 682 153 682 130 l 682 977 q 661 972 669 977 q 650 959 653 968 q 646 934 646 949 q 645 896 645 919 l 645 186 q 637 114 645 143 q 610 67 629 85 q 562 42 591 50 q 490 35 532 35 l 387 35 q 353 40 374 35 q 310 61 331 45 q 274 106 289 77 q 258 184 258 135 l 258 977 q 186 968 216 977 q 138 941 157 960 q 112 891 120 922 q 104 814 104 860 l 104 153 m 583 1233 q 645 1206 618 1233 q 671 1143 671 1179 q 646 1080 671 1106 q 583 1055 621 1055 q 518 1080 545 1055 q 492 1143 492 1106 q 519 1206 492 1179 q 583 1233 547 1233 m 260 1233 q 324 1206 297 1233 q 351 1143 351 1179 q 325 1080 351 1106 q 260 1055 298 1055 q 198 1080 223 1055 q 173 1143 173 1106 q 199 1206 173 1179 q 260 1233 225 1233 z "},"":{"ha":730,"x_min":68,"x_max":626,"o":"m 476 498 l 476 562 q 437 677 476 643 q 318 712 399 712 q 250 704 278 712 q 204 679 222 696 q 179 632 186 661 q 171 562 171 604 l 171 546 l 132 546 l 132 657 q 134 706 132 688 q 144 732 136 724 q 168 744 152 741 q 212 746 184 746 l 476 746 q 531 733 504 746 q 579 698 557 720 q 613 650 600 677 q 626 595 626 623 l 626 152 q 614 95 626 121 q 581 47 602 68 q 532 15 559 27 q 476 0 505 2 l 218 0 q 159 12 186 0 q 112 44 132 24 q 80 93 92 65 q 68 152 68 121 l 68 347 q 80 405 68 378 q 112 453 92 433 q 159 486 132 474 q 218 498 186 498 l 476 498 m 476 464 l 372 464 q 300 456 330 464 q 252 431 271 448 q 226 384 234 413 q 218 314 218 355 l 218 185 q 224 119 218 146 q 246 74 231 92 q 285 47 261 56 q 344 35 309 37 q 406 46 380 37 q 447 73 431 55 q 469 118 463 91 q 476 185 476 146 l 476 464 m 397 1036 q 444 1018 425 1038 q 457 996 453 1008 q 460 971 461 984 q 455 947 460 959 q 444 928 451 936 q 406 904 429 913 q 356 881 383 894 q 298 850 328 869 q 237 802 267 832 l 216 802 q 270 865 250 833 q 304 926 290 897 q 329 979 318 955 q 354 1017 339 1002 q 397 1036 368 1032 z "},"":{"ha":730,"x_min":68,"x_max":626,"o":"m 476 498 l 476 562 q 437 677 476 643 q 318 712 399 712 q 250 704 278 712 q 204 679 222 696 q 179 632 186 661 q 171 562 171 604 l 171 546 l 132 546 l 132 657 q 134 706 132 688 q 144 732 136 724 q 168 744 152 741 q 212 746 184 746 l 476 746 q 531 733 504 746 q 579 698 557 720 q 613 650 600 677 q 626 595 626 623 l 626 152 q 614 95 626 121 q 581 47 602 68 q 532 15 559 27 q 476 0 505 2 l 218 0 q 159 12 186 0 q 112 44 132 24 q 80 93 92 65 q 68 152 68 121 l 68 347 q 80 405 68 378 q 112 453 92 433 q 159 486 132 474 q 218 498 186 498 l 476 498 m 476 464 l 372 464 q 300 456 330 464 q 252 431 271 448 q 226 384 234 413 q 218 314 218 355 l 218 185 q 224 119 218 146 q 246 74 231 92 q 285 47 261 56 q 344 35 309 37 q 406 46 380 37 q 447 73 431 55 q 469 118 463 91 q 476 185 476 146 l 476 464 m 306 1022 q 349 1004 334 1019 q 374 965 363 989 q 398 912 385 941 q 433 851 412 883 q 487 788 453 819 l 466 788 q 405 837 435 819 q 347 868 374 855 q 296 890 319 880 q 259 914 273 900 q 247 934 252 922 q 242 958 243 945 q 245 983 241 970 q 259 1004 250 995 q 306 1022 277 1024 z "},"":{"ha":730,"x_min":68,"x_max":626,"o":"m 476 498 l 476 562 q 437 677 476 643 q 318 712 399 712 q 250 704 278 712 q 204 679 222 696 q 179 632 186 661 q 171 562 171 604 l 171 546 l 132 546 l 132 657 q 134 706 132 688 q 144 732 136 724 q 168 744 152 741 q 212 746 184 746 l 476 746 q 531 733 504 746 q 579 698 557 720 q 613 650 600 677 q 626 595 626 623 l 626 152 q 614 95 626 121 q 581 47 602 68 q 532 15 559 27 q 476 0 505 2 l 218 0 q 159 12 186 0 q 112 44 132 24 q 80 93 92 65 q 68 152 68 121 l 68 347 q 80 405 68 378 q 112 453 92 433 q 159 486 132 474 q 218 498 186 498 l 476 498 m 476 464 l 372 464 q 300 456 330 464 q 252 431 271 448 q 226 384 234 413 q 218 314 218 355 l 218 185 q 224 119 218 146 q 246 74 231 92 q 285 47 261 56 q 344 35 309 37 q 406 46 380 37 q 447 73 431 55 q 469 118 463 91 q 476 185 476 146 l 476 464 m 553 804 l 362 929 l 172 804 l 308 984 q 329 1002 317 1000 q 361 1004 341 1004 l 363 1004 q 395 1002 383 1004 q 416 984 407 1000 l 553 804 z "},"":{"ha":730,"x_min":68,"x_max":626,"o":"m 476 498 l 476 562 q 437 677 476 643 q 318 712 399 712 q 250 704 278 712 q 204 679 222 696 q 179 632 186 661 q 171 562 171 604 l 171 546 l 132 546 l 132 657 q 134 706 132 688 q 144 732 136 724 q 168 744 152 741 q 212 746 184 746 l 476 746 q 531 733 504 746 q 579 698 557 720 q 613 650 600 677 q 626 595 626 623 l 626 152 q 614 95 626 121 q 581 47 602 68 q 532 15 559 27 q 476 0 505 2 l 218 0 q 159 12 186 0 q 112 44 132 24 q 80 93 92 65 q 68 152 68 121 l 68 347 q 80 405 68 378 q 112 453 92 433 q 159 486 132 474 q 218 498 186 498 l 476 498 m 476 464 l 372 464 q 300 456 330 464 q 252 431 271 448 q 226 384 234 413 q 218 314 218 355 l 218 185 q 224 119 218 146 q 246 74 231 92 q 285 47 261 56 q 344 35 309 37 q 406 46 380 37 q 447 73 431 55 q 469 118 463 91 q 476 185 476 146 l 476 464 m 512 1003 q 573 976 547 1003 q 600 913 600 949 q 574 850 600 876 q 512 825 549 825 q 447 850 473 825 q 421 913 421 876 q 448 976 421 949 q 512 1003 475 1003 m 189 1003 q 253 976 226 1003 q 279 913 279 949 q 253 850 279 876 q 189 825 227 825 q 127 850 152 825 q 102 913 102 876 q 128 976 102 949 q 189 1003 154 1003 z "},"":{"ha":730,"x_min":68,"x_max":626,"o":"m 476 498 l 476 562 q 437 677 476 643 q 318 712 399 712 q 250 704 278 712 q 204 679 222 696 q 179 632 186 661 q 171 562 171 604 l 171 546 l 132 546 l 132 657 q 134 706 132 688 q 144 732 136 724 q 168 744 152 741 q 212 746 184 746 l 476 746 q 531 733 504 746 q 579 698 557 720 q 613 650 600 677 q 626 595 626 623 l 626 152 q 614 95 626 121 q 581 47 602 68 q 532 15 559 27 q 476 0 505 2 l 218 0 q 159 12 186 0 q 112 44 132 24 q 80 93 92 65 q 68 152 68 121 l 68 347 q 80 405 68 378 q 112 453 92 433 q 159 486 132 474 q 218 498 186 498 l 476 498 m 476 464 l 372 464 q 300 456 330 464 q 252 431 271 448 q 226 384 234 413 q 218 314 218 355 l 218 185 q 224 119 218 146 q 246 74 231 92 q 285 47 261 56 q 344 35 309 37 q 406 46 380 37 q 447 73 431 55 q 469 118 463 91 q 476 185 476 146 l 476 464 m 170 903 q 204 939 184 925 q 248 957 224 952 q 295 958 271 962 q 340 944 319 955 q 391 924 366 931 q 447 917 416 917 q 504 928 479 918 q 551 961 530 938 q 554 922 566 939 q 529 892 544 907 q 500 867 515 878 q 439 848 472 849 q 379 863 406 847 q 350 880 364 871 q 322 898 336 890 q 293 911 309 906 q 260 916 278 916 q 209 901 229 916 q 170 865 189 886 q 164 884 165 875 q 170 903 163 893 z "},"":{"ha":662,"x_min":68,"x_max":594,"o":"m 220 0 q 162 12 190 0 q 114 44 135 24 q 80 93 93 65 q 68 152 68 120 l 68 595 q 80 654 68 627 q 114 703 93 682 q 163 735 136 724 q 220 747 190 747 l 442 747 q 523 732 492 747 q 569 694 553 717 q 589 645 585 671 q 594 595 594 618 l 594 547 l 553 547 q 532 613 548 583 q 490 665 515 643 q 432 700 465 688 q 361 713 399 713 q 295 705 322 713 q 251 679 268 697 q 226 632 234 661 q 218 562 218 604 l 218 184 q 226 113 218 142 q 252 66 234 84 q 300 41 271 49 q 372 34 330 34 l 404 34 q 474 42 446 34 q 520 67 503 50 q 546 114 538 85 q 553 184 553 142 l 553 249 l 594 249 l 594 152 q 589 103 594 130 q 569 53 585 76 q 523 15 553 31 q 442 0 492 0 l 302 0 q 306 -30 302 -20 q 319 -44 310 -39 q 341 -51 328 -50 q 374 -54 355 -52 q 404 -53 388 -54 q 433 -54 419 -52 q 480 -68 456 -56 q 525 -98 505 -79 q 559 -140 546 -116 q 572 -191 572 -163 q 561 -240 572 -217 q 529 -280 549 -263 q 484 -308 509 -298 q 431 -319 458 -318 l 281 -319 q 206 -303 234 -318 q 163 -266 178 -288 q 144 -218 149 -243 q 139 -171 139 -193 l 180 -171 q 214 -258 184 -231 q 306 -286 243 -286 q 366 -272 341 -286 q 404 -237 390 -258 q 419 -193 417 -217 q 411 -148 421 -169 q 380 -110 401 -126 q 324 -90 358 -94 q 288 -83 300 -88 q 272 -67 276 -77 q 268 -42 267 -58 q 268 -2 268 -26 l 268 0 l 220 0 z "},"":{"ha":694,"x_min":68,"x_max":626,"o":"m 347 712 q 247 676 276 712 q 218 564 218 641 l 218 499 l 475 499 l 475 564 q 469 630 475 602 q 447 676 462 659 q 407 703 431 694 q 347 712 382 712 m 218 466 l 218 184 q 226 113 218 142 q 252 66 234 83 q 299 40 270 48 q 372 33 329 33 l 379 33 q 451 40 422 33 q 498 66 480 48 q 525 113 517 83 q 532 184 532 142 l 532 248 l 571 248 l 571 151 q 566 102 571 128 q 546 53 562 75 q 500 15 530 30 q 420 0 471 0 l 218 0 q 164 13 191 0 q 116 47 137 26 q 81 95 94 68 q 68 151 68 122 l 68 597 q 80 653 68 627 q 113 700 92 680 q 161 733 134 720 q 218 747 188 745 l 475 747 q 534 735 507 747 q 582 703 562 724 q 614 655 602 682 q 626 597 626 627 l 626 466 l 218 466 m 398 1027 q 445 1009 427 1029 q 458 987 454 1000 q 462 963 463 975 q 457 939 461 950 q 445 919 452 927 q 408 895 431 905 q 357 872 385 885 q 299 842 330 860 q 238 793 269 823 l 217 793 q 271 856 251 824 q 306 917 292 888 q 330 970 319 946 q 355 1008 340 994 q 398 1027 370 1023 z "},"":{"ha":694,"x_min":68,"x_max":626,"o":"m 347 712 q 247 676 276 712 q 218 564 218 641 l 218 499 l 475 499 l 475 564 q 469 630 475 602 q 447 676 462 659 q 407 703 431 694 q 347 712 382 712 m 218 466 l 218 184 q 226 113 218 142 q 252 66 234 83 q 299 40 270 48 q 372 33 329 33 l 379 33 q 451 40 422 33 q 498 66 480 48 q 525 113 517 83 q 532 184 532 142 l 532 248 l 571 248 l 571 151 q 566 102 571 128 q 546 53 562 75 q 500 15 530 30 q 420 0 471 0 l 218 0 q 164 13 191 0 q 116 47 137 26 q 81 95 94 68 q 68 151 68 122 l 68 597 q 80 653 68 627 q 113 700 92 680 q 161 733 134 720 q 218 747 188 745 l 475 747 q 534 735 507 747 q 582 703 562 724 q 614 655 602 682 q 626 597 626 627 l 626 466 l 218 466 m 289 1024 q 332 1006 317 1021 q 357 967 347 991 q 381 914 368 943 q 416 853 395 885 q 470 790 436 821 l 449 790 q 388 839 418 821 q 330 870 357 857 q 279 892 302 882 q 242 916 256 902 q 230 936 235 924 q 225 960 226 947 q 229 985 224 972 q 242 1006 233 997 q 289 1024 260 1026 z "},"":{"ha":694,"x_min":68,"x_max":626,"o":"m 347 712 q 247 676 276 712 q 218 564 218 641 l 218 499 l 475 499 l 475 564 q 469 630 475 602 q 447 676 462 659 q 407 703 431 694 q 347 712 382 712 m 218 466 l 218 184 q 226 113 218 142 q 252 66 234 83 q 299 40 270 48 q 372 33 329 33 l 379 33 q 451 40 422 33 q 498 66 480 48 q 525 113 517 83 q 532 184 532 142 l 532 248 l 571 248 l 571 151 q 566 102 571 128 q 546 53 562 75 q 500 15 530 30 q 420 0 471 0 l 218 0 q 164 13 191 0 q 116 47 137 26 q 81 95 94 68 q 68 151 68 122 l 68 597 q 80 653 68 627 q 113 700 92 680 q 161 733 134 720 q 218 747 188 745 l 475 747 q 534 735 507 747 q 582 703 562 724 q 614 655 602 682 q 626 597 626 627 l 626 466 l 218 466 m 544 800 l 353 925 l 163 800 l 299 980 q 320 998 309 996 q 353 1000 332 1000 l 354 1000 q 386 998 374 1000 q 408 980 398 996 l 544 800 z "},"":{"ha":694,"x_min":68,"x_max":626,"o":"m 347 712 q 247 676 276 712 q 218 564 218 641 l 218 499 l 475 499 l 475 564 q 469 630 475 602 q 447 676 462 659 q 407 703 431 694 q 347 712 382 712 m 218 466 l 218 184 q 226 113 218 142 q 252 66 234 83 q 299 40 270 48 q 372 33 329 33 l 379 33 q 451 40 422 33 q 498 66 480 48 q 525 113 517 83 q 532 184 532 142 l 532 248 l 571 248 l 571 151 q 566 102 571 128 q 546 53 562 75 q 500 15 530 30 q 420 0 471 0 l 218 0 q 164 13 191 0 q 116 47 137 26 q 81 95 94 68 q 68 151 68 122 l 68 597 q 80 653 68 627 q 113 700 92 680 q 161 733 134 720 q 218 747 188 745 l 475 747 q 534 735 507 747 q 582 703 562 724 q 614 655 602 682 q 626 597 626 627 l 626 466 l 218 466 m 508 1003 q 569 976 543 1003 q 595 913 595 949 q 570 850 595 876 q 508 825 545 825 q 443 850 469 825 q 417 913 417 876 q 444 976 417 949 q 508 1003 471 1003 m 185 1003 q 249 976 222 1003 q 275 913 275 949 q 249 850 275 876 q 185 825 223 825 q 123 850 148 825 q 98 913 98 876 q 124 976 98 949 q 185 1003 150 1003 z "},"":{"ha":324,"x_min":-12,"x_max":233,"o":"m 212 157 q 205 83 212 113 q 181 35 198 53 q 134 8 163 16 q 60 0 104 0 l 60 597 q 68 674 60 643 q 94 724 76 705 q 141 751 112 743 q 212 760 170 760 l 212 157 m 169 1028 q 216 1010 197 1030 q 229 989 225 1001 q 233 964 233 977 q 228 940 232 951 q 216 920 223 928 q 178 896 201 906 q 128 874 155 886 q 70 843 100 861 q 9 794 39 825 l -12 794 q 42 857 22 825 q 76 918 62 889 q 101 971 90 947 q 126 1010 111 995 q 169 1028 140 1025 z "},"":{"ha":310,"x_min":68,"x_max":317,"o":"m 220 157 q 213 83 220 113 q 189 35 206 53 q 142 8 172 16 q 68 0 113 0 l 68 597 q 76 674 68 643 q 102 724 84 705 q 149 751 120 743 q 220 760 178 760 l 220 157 m 136 1027 q 179 1008 165 1023 q 204 970 194 994 q 229 917 215 946 q 263 856 243 888 q 317 793 283 824 l 296 793 q 235 842 266 823 q 177 872 205 860 q 127 895 150 885 q 90 919 104 905 q 78 939 82 927 q 73 963 73 950 q 76 987 72 975 q 90 1009 80 1000 q 136 1027 108 1029 z "},"":{"ha":350,"x_min":-16,"x_max":366,"o":"m 243 157 q 236 83 243 113 q 212 35 229 53 q 165 8 195 16 q 91 0 136 0 l 91 597 q 99 674 91 643 q 125 724 107 705 q 172 751 143 743 q 243 760 201 760 l 243 157 m 366 798 l 175 924 l -16 798 l 121 979 q 142 997 130 994 q 174 999 154 999 l 176 999 q 208 997 196 999 q 229 979 220 994 l 366 798 z "},"":{"ha":318,"x_min":-92,"x_max":406,"o":"m 222 157 q 215 83 222 113 q 190 35 208 53 q 143 8 173 16 q 69 0 114 0 l 69 597 q 77 674 69 643 q 103 724 85 705 q 151 751 121 743 q 222 760 180 760 l 222 157 m 319 1003 q 380 976 354 1003 q 406 913 406 949 q 381 850 406 876 q 319 825 356 825 q 254 850 280 825 q 228 913 228 876 q 255 976 228 949 q 319 1003 282 1003 m -4 1003 q 59 976 33 1003 q 86 913 86 949 q 60 850 86 876 q -4 825 34 825 q -66 850 -41 825 q -92 913 -92 876 q -65 976 -92 949 q -4 1003 -39 1003 z "},"":{"ha":732,"x_min":50,"x_max":610,"o":"m 456 747 q 515 735 487 747 q 564 703 543 724 q 597 654 585 682 q 610 595 610 627 l 610 159 q 603 84 610 115 q 578 35 595 54 q 531 8 561 16 q 456 0 501 0 l 456 563 q 426 677 456 641 q 330 713 396 713 l 204 713 l 204 159 q 197 84 204 115 q 172 35 190 54 q 124 8 154 16 q 50 0 94 0 l 50 747 l 330 747 l 456 747 m 134 905 q 168 941 148 928 q 211 960 188 955 q 258 961 234 964 q 304 947 282 958 q 354 927 329 934 q 410 920 379 920 q 468 931 442 921 q 514 964 493 941 q 517 925 530 942 q 493 895 507 910 q 463 869 478 880 q 402 851 435 852 q 342 865 369 850 q 314 883 328 873 q 286 901 300 892 q 257 914 272 909 q 223 918 241 919 q 172 904 193 918 q 134 867 152 889 q 127 887 128 878 q 134 905 127 896 z "},"":{"ha":729,"x_min":68,"x_max":625,"o":"m 460 747 q 523 737 493 747 q 575 708 553 727 q 612 660 598 688 q 625 595 625 631 l 625 152 q 612 87 625 115 q 575 40 598 59 q 523 10 553 20 q 460 0 493 0 l 233 0 q 171 10 201 0 q 118 40 141 20 q 82 87 96 59 q 68 152 68 115 l 68 595 q 82 660 68 631 q 118 708 96 688 q 171 737 141 727 q 233 747 201 747 l 460 747 m 218 184 q 225 117 218 146 q 247 71 232 89 q 287 43 262 52 q 347 35 311 35 q 407 43 382 35 q 447 71 431 52 q 469 117 462 89 q 475 184 475 146 l 475 563 q 469 630 475 602 q 447 677 462 659 q 407 704 431 695 q 347 713 382 713 q 287 704 311 713 q 247 677 262 695 q 225 630 232 659 q 218 563 218 602 l 218 184 m 379 1028 q 426 1010 408 1030 q 439 989 435 1001 q 443 964 444 977 q 438 940 442 951 q 426 920 433 928 q 389 896 412 906 q 338 874 366 886 q 280 843 311 861 q 219 794 250 825 l 198 794 q 252 857 232 825 q 287 918 273 889 q 311 971 300 947 q 336 1010 321 995 q 379 1028 351 1025 z "},"":{"ha":729,"x_min":68,"x_max":625,"o":"m 460 747 l 233 747 q 171 737 201 747 q 118 708 141 727 q 82 660 96 688 q 68 595 68 631 l 68 152 q 82 87 68 115 q 118 40 96 59 q 171 10 141 20 q 233 0 201 0 l 460 0 q 523 10 493 0 q 575 40 553 20 q 612 87 598 59 q 625 152 625 115 l 625 595 q 612 660 625 631 q 575 708 598 688 q 523 737 553 727 q 460 747 493 747 m 218 563 q 225 630 218 602 q 247 677 232 659 q 287 704 262 695 q 347 713 311 713 q 407 704 382 713 q 447 677 431 695 q 469 630 462 659 q 475 563 475 602 l 475 184 q 469 117 475 146 q 447 71 462 89 q 407 43 431 52 q 347 35 382 35 q 287 43 311 35 q 247 71 262 52 q 225 117 232 89 q 218 184 218 146 l 218 563 m 312 1031 q 355 1013 340 1028 q 380 975 370 998 q 405 922 391 951 q 439 861 418 892 q 493 798 459 829 l 472 798 q 411 846 441 828 q 353 877 380 865 q 302 900 326 890 q 265 924 279 909 q 253 943 258 932 q 248 967 249 955 q 252 992 248 980 q 265 1014 256 1004 q 312 1031 283 1034 z "},"":{"ha":729,"x_min":68,"x_max":625,"o":"m 460 747 q 523 737 493 747 q 575 708 553 727 q 612 660 598 688 q 625 595 625 631 l 625 152 q 612 87 625 115 q 575 40 598 59 q 523 10 553 20 q 460 0 493 0 l 233 0 q 171 10 201 0 q 118 40 141 20 q 82 87 96 59 q 68 152 68 115 l 68 595 q 82 660 68 631 q 118 708 96 688 q 171 737 141 727 q 233 747 201 747 l 460 747 m 218 184 q 225 117 218 146 q 247 71 232 89 q 287 43 262 52 q 347 35 311 35 q 407 43 382 35 q 447 71 431 52 q 469 117 462 89 q 475 184 475 146 l 475 563 q 469 630 475 602 q 447 677 462 659 q 407 704 431 695 q 347 713 382 713 q 287 704 311 713 q 247 677 262 695 q 225 630 232 659 q 218 563 218 602 l 218 184 m 552 804 l 361 930 l 171 804 l 307 985 q 329 1003 317 1000 q 361 1005 340 1005 l 362 1005 q 394 1003 382 1005 q 416 985 406 1000 l 552 804 z "},"":{"ha":729,"x_min":68,"x_max":625,"o":"m 460 747 l 233 747 q 171 737 201 747 q 118 708 141 727 q 82 660 96 688 q 68 595 68 631 l 68 152 q 82 87 68 115 q 118 40 96 59 q 171 10 141 20 q 233 0 201 0 l 460 0 q 523 10 493 0 q 575 40 553 20 q 612 87 598 59 q 625 152 625 115 l 625 595 q 612 660 625 631 q 575 708 598 688 q 523 737 553 727 q 460 747 493 747 m 218 563 q 225 630 218 602 q 247 677 232 659 q 287 704 262 695 q 347 713 311 713 q 407 704 382 713 q 447 677 431 695 q 469 630 462 659 q 475 563 475 602 l 475 184 q 469 117 475 146 q 447 71 462 89 q 407 43 431 52 q 347 35 382 35 q 287 43 311 35 q 247 71 262 52 q 225 117 232 89 q 218 184 218 146 l 218 563 m 511 1003 q 572 976 546 1003 q 598 913 598 949 q 573 850 598 876 q 511 825 548 825 q 446 850 472 825 q 420 913 420 876 q 447 976 420 949 q 511 1003 474 1003 m 188 1003 q 251 976 224 1003 q 278 913 278 949 q 252 850 278 876 q 188 825 226 825 q 125 850 151 825 q 100 913 100 876 q 126 976 100 949 q 188 1003 153 1003 z "},"":{"ha":729,"x_min":68,"x_max":625,"o":"m 460 747 q 523 737 493 747 q 575 708 553 727 q 612 660 598 688 q 625 595 625 631 l 625 152 q 612 87 625 115 q 575 40 598 59 q 523 10 553 20 q 460 0 493 0 l 233 0 q 171 10 201 0 q 118 40 141 20 q 82 87 96 59 q 68 152 68 115 l 68 595 q 82 660 68 631 q 118 708 96 688 q 171 737 141 727 q 233 747 201 747 l 460 747 m 218 184 q 225 117 218 146 q 247 71 232 89 q 287 43 262 52 q 347 35 311 35 q 407 43 382 35 q 447 71 431 52 q 469 117 462 89 q 475 184 475 146 l 475 563 q 469 630 475 602 q 447 677 462 659 q 407 704 431 695 q 347 713 382 713 q 287 704 311 713 q 247 677 262 695 q 225 630 232 659 q 218 563 218 602 l 218 184 m 157 903 q 191 939 171 925 q 234 957 211 952 q 281 958 257 962 q 327 944 305 955 q 377 924 352 931 q 433 917 402 917 q 491 928 465 918 q 537 961 516 938 q 541 922 553 939 q 516 892 530 907 q 486 867 501 878 q 425 848 458 849 q 366 863 392 847 q 337 880 351 871 q 309 898 323 890 q 280 911 295 906 q 246 916 264 916 q 195 901 216 916 q 157 865 175 886 q 151 884 151 875 q 157 903 150 893 z "},"":{"ha":732,"x_min":68,"x_max":628,"o":"m 219 0 q 142 13 172 0 q 96 50 113 26 q 74 107 79 74 q 68 181 68 140 l 68 602 q 75 676 68 646 q 100 725 82 706 q 147 751 117 743 q 222 760 177 760 l 222 152 q 230 99 222 121 q 256 62 238 77 q 303 41 274 47 q 375 34 332 34 l 435 34 q 550 61 511 34 q 589 149 589 88 l 589 679 q 590 718 589 702 q 595 742 591 733 q 607 755 599 751 q 628 760 614 760 l 628 149 q 620 93 628 120 q 593 46 612 66 q 542 13 574 25 q 461 0 510 0 l 219 0 m 416 1027 q 463 1009 445 1029 q 477 987 473 1000 q 480 963 481 975 q 475 939 479 950 q 463 919 471 927 q 426 895 449 905 q 375 872 403 885 q 317 842 348 860 q 256 793 287 823 l 235 793 q 290 856 269 824 q 324 917 310 888 q 348 970 338 946 q 374 1008 359 994 q 416 1027 388 1023 z "},"":{"ha":732,"x_min":68,"x_max":628,"o":"m 461 0 q 542 13 510 0 q 593 46 574 25 q 620 93 612 66 q 628 149 628 120 l 628 760 q 607 755 614 760 q 595 742 599 751 q 590 718 591 733 q 589 679 589 702 l 589 149 q 550 61 589 88 q 435 34 511 34 l 375 34 q 303 41 332 34 q 256 62 274 47 q 230 99 238 77 q 222 152 222 121 l 222 760 q 147 751 177 760 q 100 725 117 743 q 75 676 82 706 q 68 602 68 646 l 68 181 q 74 107 68 140 q 96 50 79 74 q 142 13 113 26 q 219 0 172 0 l 461 0 m 334 1034 q 377 1015 363 1030 q 402 977 392 1000 q 427 924 413 953 q 461 863 441 895 q 515 800 481 831 l 494 800 q 433 848 464 830 q 375 879 403 867 q 325 902 348 892 q 288 926 302 911 q 276 945 280 934 q 271 969 271 957 q 274 994 270 982 q 288 1016 278 1006 q 334 1034 306 1036 z "},"":{"ha":732,"x_min":68,"x_max":628,"o":"m 219 0 q 142 13 172 0 q 96 50 113 26 q 74 107 79 74 q 68 181 68 140 l 68 602 q 75 676 68 646 q 100 725 82 706 q 147 751 117 743 q 222 760 177 760 l 222 152 q 230 99 222 121 q 256 62 238 77 q 303 41 274 47 q 375 34 332 34 l 435 34 q 550 61 511 34 q 589 149 589 88 l 589 679 q 590 718 589 702 q 595 742 591 733 q 607 755 599 751 q 628 760 614 760 l 628 149 q 620 93 628 120 q 593 46 612 66 q 542 13 574 25 q 461 0 510 0 l 219 0 m 582 799 l 391 924 l 201 799 l 337 979 q 358 997 347 995 q 391 1000 370 1000 l 392 1000 q 424 997 412 1000 q 446 979 436 995 l 582 799 z "},"":{"ha":732,"x_min":68,"x_max":628,"o":"m 461 0 q 542 13 510 0 q 593 46 574 25 q 620 93 612 66 q 628 149 628 120 l 628 760 q 607 755 614 760 q 595 742 599 751 q 590 718 591 733 q 589 679 589 702 l 589 149 q 550 61 589 88 q 435 34 511 34 l 375 34 q 303 41 332 34 q 256 62 274 47 q 230 99 238 77 q 222 152 222 121 l 222 760 q 147 751 177 760 q 100 725 117 743 q 75 676 82 706 q 68 602 68 646 l 68 181 q 74 107 68 140 q 96 50 79 74 q 142 13 113 26 q 219 0 172 0 l 461 0 m 524 1003 q 586 976 559 1003 q 612 913 612 949 q 587 850 612 876 q 524 825 562 825 q 459 850 486 825 q 433 913 433 876 q 460 976 433 949 q 524 1003 488 1003 m 201 1003 q 265 976 238 1003 q 292 913 292 949 q 266 850 292 876 q 201 825 239 825 q 139 850 164 825 q 114 913 114 876 q 140 976 114 949 q 201 1003 166 1003 z "},"":{"ha":513,"x_min":104,"x_max":410,"o":"m 410 871 l 410 869 q 406 832 410 852 q 389 794 401 812 q 353 766 376 777 q 292 754 330 754 l 218 754 q 158 766 180 754 q 123 795 135 778 q 107 832 111 812 q 104 869 104 852 l 104 937 q 107 974 104 954 q 123 1012 111 994 q 158 1042 135 1030 q 218 1055 180 1055 l 292 1055 q 353 1043 330 1055 q 389 1013 376 1031 q 406 975 401 995 q 410 937 410 954 l 410 871 m 372 937 q 370 964 372 950 q 358 989 367 978 q 334 1007 350 1000 q 292 1015 318 1015 l 218 1015 q 178 1008 193 1015 q 155 990 163 1001 q 144 965 146 979 q 141 937 141 951 l 141 871 q 143 844 141 858 q 154 818 146 830 q 177 799 162 806 q 218 791 193 791 l 292 791 q 335 799 319 791 q 359 818 351 806 q 370 844 368 830 q 372 871 372 858 l 372 937 z "},"":{"ha":662,"x_min":68,"x_max":594,"o":"m 381 -60 q 380 -100 381 -84 q 374 -125 379 -115 q 361 -138 370 -134 q 336 -142 352 -142 l 336 0 l 220 0 q 160 12 188 0 q 112 44 133 24 q 80 93 92 65 q 68 152 68 120 l 68 594 q 80 653 68 625 q 112 702 92 681 q 160 734 133 722 q 220 746 188 746 l 336 746 l 336 868 q 337 907 336 891 q 342 932 338 923 q 356 946 347 942 q 381 950 365 950 l 381 746 l 442 746 q 523 731 492 746 q 569 693 553 715 q 589 643 585 670 q 594 594 594 616 l 594 546 l 553 546 q 533 607 548 578 q 496 657 519 635 q 445 693 474 680 q 381 710 416 707 l 381 34 l 404 34 q 474 42 446 34 q 520 67 503 50 q 546 114 538 85 q 553 184 553 142 l 553 249 l 594 249 l 594 152 q 589 103 594 130 q 569 53 585 76 q 523 15 553 31 q 442 0 492 0 l 381 0 l 381 -60 m 218 561 l 218 184 q 224 120 218 146 q 244 75 231 93 q 281 48 258 58 q 336 35 303 38 l 336 710 q 281 699 304 708 q 245 671 259 689 q 225 626 231 654 q 218 561 218 599 z "},"":{"ha":738,"x_min":0,"x_max":721,"o":"m 0 412 q 4 436 0 428 q 18 448 8 445 q 43 452 27 452 q 82 452 58 452 l 95 452 l 95 730 q 95 771 95 747 q 101 822 96 795 q 118 873 106 848 q 153 919 130 899 q 211 952 176 939 q 300 964 247 964 l 537 964 q 596 952 568 964 q 645 920 625 941 q 678 872 666 899 q 690 813 690 844 l 690 684 l 651 684 q 629 779 648 734 q 578 857 610 823 q 503 910 546 890 q 408 930 460 930 l 399 930 q 324 923 353 930 q 278 897 295 915 q 255 851 261 880 q 248 779 248 822 l 248 452 l 432 452 q 428 427 432 435 q 414 416 424 419 q 389 412 405 412 q 350 412 373 412 l 248 412 l 249 33 l 439 33 q 541 56 496 33 q 617 116 586 79 q 666 203 649 154 q 683 306 683 253 l 683 374 l 721 374 l 721 151 q 709 92 721 119 q 676 44 697 64 q 628 12 656 24 q 569 0 600 0 l 95 0 l 95 412 l 0 412 z "},"":{"ha":766,"x_min":104,"x_max":663,"o":"m 254 977 l 494 977 q 572 962 545 977 q 612 924 600 947 q 628 875 625 901 q 630 827 630 849 l 630 777 l 589 777 q 569 844 583 813 q 531 896 554 874 q 476 931 507 918 q 406 943 444 943 l 367 943 q 297 937 325 943 q 253 914 269 930 q 229 873 236 899 q 222 810 222 848 q 238 761 222 781 q 283 724 255 740 q 346 696 311 708 q 419 675 382 685 q 494 655 457 665 q 561 634 530 646 q 601 612 583 626 q 633 579 620 598 q 655 538 647 561 q 663 492 663 516 l 663 384 q 655 337 663 359 q 634 296 648 315 q 603 264 621 278 q 563 242 585 250 q 602 220 584 234 q 634 187 621 205 q 655 147 647 169 q 663 100 663 125 l 663 -7 q 651 -66 663 -39 q 618 -114 639 -94 q 570 -147 597 -135 q 511 -159 542 -159 l 296 -159 q 208 -149 245 -159 q 149 -118 172 -140 q 115 -61 125 -96 q 104 25 104 -26 l 104 90 l 142 90 l 142 25 q 151 -46 142 -17 q 177 -92 159 -75 q 224 -117 195 -110 q 296 -125 253 -125 l 390 -125 q 462 -120 433 -125 q 509 -100 491 -115 q 535 -59 527 -85 q 543 9 543 -33 l 543 26 q 524 81 543 60 q 474 117 505 102 q 404 141 443 132 q 323 162 364 151 q 243 188 282 174 q 173 225 203 202 q 123 283 142 249 q 104 369 104 318 l 104 469 q 116 511 104 491 q 146 546 127 530 q 187 571 165 561 q 231 584 210 581 q 181 611 204 595 q 140 647 157 626 q 114 696 123 668 q 104 760 104 724 l 104 827 q 116 885 104 858 q 148 933 127 913 q 196 965 168 954 q 254 977 223 977 m 543 400 l 543 417 q 525 471 543 450 q 478 506 507 492 q 411 531 449 521 q 334 551 374 541 q 281 540 302 549 q 246 516 259 532 q 227 476 233 500 q 222 418 222 452 q 243 363 222 386 q 300 324 265 340 q 377 295 334 307 q 463 272 420 283 q 500 285 485 276 q 524 310 515 294 q 538 347 534 325 q 543 400 543 369 z "},"":{"ha":871,"x_min":235,"x_max":636,"o":"m 235 517 q 294 659 235 600 q 436 717 353 717 q 577 658 519 717 q 636 517 636 600 q 577 375 636 434 q 435 315 517 315 q 293 374 351 315 q 235 517 235 433 z "},"":{"ha":491,"x_min":0,"x_max":491,"o":"m 327 972 q 349 968 338 972 q 367 956 359 964 q 379 938 374 948 q 383 915 383 927 l 383 848 q 367 808 383 825 q 327 791 351 791 l 275 790 l 389 634 q 402 618 396 625 q 421 610 409 611 q 417 610 421 610 q 407 610 412 610 l 393 610 l 340 610 q 314 616 325 610 q 289 640 302 622 l 180 790 l 180 669 q 158 623 180 636 q 102 610 136 610 l 102 911 q 103 937 102 926 q 111 957 105 949 q 129 968 117 964 q 159 972 140 972 l 327 972 m 180 956 l 180 804 l 246 804 q 292 816 279 804 q 304 861 304 828 l 304 903 q 292 945 304 935 q 246 956 279 956 l 180 956 m 317 1057 q 386 1046 354 1057 q 440 1017 417 1036 q 477 971 464 998 q 491 911 491 944 l 491 694 q 477 635 491 661 q 440 590 464 608 q 386 561 417 571 q 317 551 354 551 l 159 551 q 93 561 122 551 q 43 590 64 571 q 11 635 22 608 q 0 694 0 661 l 0 911 q 12 971 0 944 q 46 1017 24 998 q 96 1046 67 1036 q 159 1057 125 1057 l 317 1057 m 202 1041 q 120 1033 155 1041 q 63 1005 85 1024 q 29 955 40 985 q 18 880 18 924 l 18 728 q 28 653 18 684 q 60 605 38 623 q 117 578 82 586 q 202 570 152 570 l 292 570 q 376 578 342 570 q 432 605 411 586 q 463 653 453 623 q 472 728 472 684 l 472 880 q 460 955 472 924 q 426 1005 448 985 q 369 1033 403 1024 q 292 1041 336 1041 l 202 1041 z "},"":{"ha":1141,"x_min":0,"x_max":0,"o":""},"":{"ha":848,"x_min":34,"x_max":814,"o":"m 160 602 l 160 947 l 133 947 q 96 943 111 947 q 72 930 81 939 q 58 906 62 921 q 54 869 54 891 l 54 821 l 34 821 l 34 920 q 35 944 34 935 q 39 958 35 954 q 52 964 43 962 q 75 965 60 965 l 324 965 q 348 964 339 965 q 360 958 356 962 q 365 944 364 954 q 366 920 366 935 l 366 821 l 346 821 l 346 869 q 328 930 346 913 q 267 947 311 947 l 239 947 l 239 685 q 222 621 239 639 q 160 602 205 602 m 814 972 l 814 684 q 810 646 814 661 q 798 620 807 630 q 773 606 789 610 q 735 602 758 602 l 735 937 l 591 602 l 562 602 l 418 942 l 418 644 q 416 611 418 620 q 399 602 413 602 l 399 908 q 404 943 399 930 q 418 962 408 956 q 445 970 429 968 q 484 972 460 972 l 604 706 l 706 908 q 722 945 713 932 q 742 964 730 958 q 771 971 754 970 q 814 972 789 972 z "},"":{"ha":356,"x_min":55,"x_max":300,"o":"m 236 1023 q 283 1006 264 1025 q 296 984 292 996 q 300 959 300 972 q 295 935 299 947 q 283 916 290 924 q 245 891 269 901 q 195 869 222 882 q 137 838 168 857 q 76 789 106 820 l 55 789 q 109 852 89 821 q 143 913 130 884 q 168 966 157 943 q 193 1005 178 990 q 236 1023 208 1020 z "},"":{"ha":736,"x_min":119,"x_max":617,"o":"m 530 1000 q 591 973 565 1000 q 617 910 617 946 q 592 847 617 873 q 530 821 567 821 q 465 847 491 821 q 439 910 439 873 q 466 973 439 946 q 530 1000 493 1000 m 207 1000 q 270 973 243 1000 q 297 910 297 946 q 271 847 297 873 q 207 821 245 821 q 144 847 170 821 q 119 910 119 873 q 145 973 119 946 q 207 1000 172 1000 z "},"":{"ha":1238,"x_min":2,"x_max":1171,"o":"m 544 375 l 288 375 l 102 35 q 73 7 92 15 q 35 0 54 0 l 3 0 q 2 1 2 0 q 3 3 2 3 q 37 13 21 3 q 62 43 53 24 l 528 896 q 534 911 532 902 q 544 928 537 920 q 565 945 551 937 q 605 958 579 954 q 624 961 612 960 q 647 962 635 962 q 673 963 660 963 q 699 964 686 964 l 1064 964 q 1111 962 1095 964 q 1134 951 1126 960 q 1142 924 1141 942 q 1143 876 1143 907 l 1143 683 l 1106 683 l 1106 779 q 1098 851 1106 822 q 1072 898 1090 880 q 1024 923 1053 916 q 951 930 994 930 l 699 930 l 699 511 l 751 511 q 808 522 780 511 q 859 554 836 532 q 898 607 882 575 q 917 683 913 640 l 946 683 l 946 315 l 917 315 q 895 385 911 355 q 856 435 879 415 q 806 465 833 455 q 751 476 779 475 l 699 476 l 699 33 l 889 33 q 990 56 945 33 q 1067 116 1036 79 q 1116 203 1099 154 q 1133 306 1133 253 l 1133 374 l 1171 374 l 1171 151 q 1159 92 1171 119 q 1126 44 1147 64 q 1078 12 1105 24 q 1019 0 1050 0 l 545 0 l 544 375 m 544 410 l 546 859 l 307 410 l 544 410 z "},"":{"ha":896,"x_min":104,"x_max":792,"o":"m 115 -93 q 146 -35 131 -64 q 178 22 162 -7 q 124 76 144 42 q 104 152 104 111 l 104 811 q 116 871 104 843 q 149 919 128 899 q 197 951 170 939 q 256 963 224 963 l 640 963 q 681 958 661 963 q 697 987 689 972 q 713 1017 705 1002 q 727 1042 722 1034 q 738 1053 732 1050 q 753 1056 744 1056 q 780 1055 762 1055 q 749 998 764 1027 q 718 941 734 970 q 772 887 751 922 q 792 811 792 853 l 792 152 q 780 93 792 121 q 748 44 768 65 q 699 12 727 24 q 640 0 671 0 l 256 0 q 218 5 235 0 q 204 -20 211 -7 q 191 -45 198 -33 q 176 -73 181 -63 q 164 -86 171 -82 q 147 -92 158 -91 q 115 -93 136 -93 m 409 930 q 337 922 366 930 q 290 897 308 915 q 263 851 271 880 q 256 780 256 822 l 256 168 q 442 514 350 342 q 629 861 534 686 q 581 914 614 899 q 486 930 547 930 l 409 930 m 640 795 q 455 447 547 621 q 269 98 363 273 q 317 48 283 63 q 409 34 350 34 l 486 34 q 558 42 529 34 q 606 67 588 50 q 632 114 624 85 q 640 184 640 142 l 640 795 z "},"":{"ha":734,"x_min":79,"x_max":663,"o":"m 79 433 q 83 458 79 450 q 97 470 87 467 q 122 473 106 473 q 161 473 138 473 l 347 473 l 347 667 q 348 706 347 690 q 353 731 349 722 q 367 745 357 741 q 392 749 376 749 l 392 473 l 663 473 q 659 449 663 457 q 645 437 654 441 q 620 434 635 434 q 581 433 604 433 l 392 433 l 392 250 q 391 210 392 226 q 385 185 390 195 q 372 172 380 176 q 347 168 363 168 l 347 433 l 79 433 m 82 69 q 86 94 82 85 q 100 106 90 102 q 125 109 109 109 q 164 109 140 109 l 661 109 q 656 85 661 93 q 643 73 652 77 q 617 70 633 70 q 578 69 602 69 l 82 69 z "},"":{"ha":701,"x_min":-17,"x_max":718,"o":"m 622 526 l 446 526 l 418 472 l 418 336 l 623 336 l 623 294 l 418 294 l 418 162 q 410 86 418 117 q 384 36 402 55 q 336 8 366 17 q 264 0 307 0 l 264 294 l 44 294 l 44 336 l 264 336 l 264 462 l 233 526 l 44 526 l 44 568 l 214 568 l 60 895 q 46 920 54 907 q 31 941 39 932 q 11 956 22 950 q -16 962 -1 962 q -17 963 -17 962 q -16 964 -17 964 l 60 964 q 115 963 91 964 q 159 952 140 961 q 196 926 179 944 q 227 876 212 908 l 398 522 l 600 920 q 630 954 612 943 q 677 964 647 964 l 717 964 q 718 963 718 964 q 717 962 718 962 q 678 952 693 962 q 652 920 663 943 l 469 568 l 622 568 l 622 526 z "},"":{"ha":472,"x_min":34,"x_max":404,"o":"m 304 798 l 304 842 q 279 919 304 897 q 200 942 254 942 q 124 920 146 942 q 102 842 102 897 l 102 831 l 77 831 l 77 905 q 78 938 77 926 q 84 956 79 949 q 100 963 90 962 q 130 964 111 964 l 304 964 q 341 956 323 964 q 373 932 359 947 q 396 900 387 918 q 404 864 404 882 l 404 569 q 396 531 404 549 q 374 500 388 513 q 342 478 360 486 q 304 468 324 469 l 134 468 q 95 476 113 468 q 63 497 77 484 q 42 530 50 511 q 34 569 34 548 l 34 698 q 42 736 34 718 q 63 769 50 755 q 95 790 77 783 q 134 798 113 798 l 304 798 m 304 776 l 236 776 q 188 771 208 776 q 157 754 169 766 q 139 723 144 742 q 134 676 134 704 l 134 591 q 152 517 134 539 q 217 491 171 494 q 285 516 265 494 q 304 591 304 538 l 304 776 z "},"":{"ha":470,"x_min":34,"x_max":402,"o":"m 134 467 q 95 474 113 467 q 63 496 77 482 q 42 528 50 510 q 34 567 34 547 l 34 876 q 42 914 34 896 q 63 946 50 932 q 95 968 77 960 q 134 976 113 976 l 302 976 q 341 968 323 976 q 373 946 359 960 q 394 914 387 932 q 402 876 402 896 l 402 567 q 394 528 402 547 q 373 496 387 510 q 341 474 359 482 q 302 467 323 467 l 134 467 m 222 488 q 286 512 268 488 q 303 587 303 536 l 303 854 q 286 929 303 905 q 222 954 268 954 q 155 929 176 954 q 134 854 134 905 l 134 587 q 157 512 134 536 q 222 488 180 488 z "},"":{"ha":1138,"x_min":68,"x_max":1034,"o":"m 626 463 l 626 184 q 634 113 626 142 q 660 66 642 83 q 708 40 678 48 q 780 33 737 33 l 842 33 q 914 40 885 33 q 962 66 943 48 q 988 113 980 83 q 996 184 996 142 l 996 248 l 1034 248 l 1034 151 q 1029 102 1034 128 q 1009 53 1025 75 q 964 15 994 30 q 884 0 934 0 l 626 0 q 588 6 606 0 q 551 24 569 13 q 515 7 534 14 q 476 0 496 1 l 218 0 q 159 12 186 0 q 112 44 132 24 q 80 93 92 65 q 68 152 68 121 l 68 347 q 80 405 68 378 q 112 453 92 433 q 159 486 132 474 q 218 498 186 498 l 476 498 l 476 562 q 437 677 476 643 q 318 712 399 712 q 250 704 278 712 q 204 679 222 696 q 179 632 186 661 q 171 562 171 604 l 171 546 l 132 546 l 132 657 q 134 706 132 688 q 144 732 136 724 q 168 744 152 741 q 212 746 184 746 l 476 746 q 515 739 496 746 q 551 721 534 732 q 626 745 585 741 l 884 745 q 942 733 915 745 q 990 700 970 721 q 1022 652 1010 680 q 1034 594 1034 625 l 1034 463 l 626 463 m 476 464 l 372 464 q 300 456 330 464 q 252 431 271 448 q 226 384 234 413 q 218 314 218 355 l 218 185 q 224 119 218 146 q 246 74 231 92 q 285 47 261 56 q 344 35 309 37 q 406 46 380 37 q 447 73 431 55 q 469 118 463 91 q 476 185 476 146 l 476 464 m 755 709 q 655 674 684 709 q 626 561 626 638 l 626 496 l 884 496 l 884 561 q 877 628 884 600 q 855 674 870 656 q 815 701 840 692 q 755 709 791 709 z "},"":{"ha":759,"x_min":68,"x_max":655,"o":"m 490 747 q 519 745 505 747 q 547 739 534 743 l 549 741 q 565 766 557 758 q 580 777 572 774 q 600 779 589 779 q 629 779 612 779 l 591 718 q 637 668 620 699 q 655 595 655 637 l 655 152 q 642 87 655 115 q 605 40 628 59 q 553 10 583 20 q 490 0 523 0 l 263 0 q 207 8 234 0 q 158 32 180 16 l 158 31 q 139 4 146 14 q 122 -11 131 -6 q 101 -16 114 -15 q 68 -16 89 -16 l 122 68 q 98 152 98 104 l 98 595 q 112 660 98 631 q 148 708 125 688 q 201 737 171 727 q 263 747 231 747 l 490 747 m 505 563 q 505 572 505 568 q 505 581 505 576 l 248 174 q 279 68 250 102 q 376 35 308 35 q 436 43 412 35 q 476 71 461 52 q 498 117 492 89 q 505 184 505 146 l 505 563 m 248 267 l 492 650 q 450 698 478 683 q 376 713 422 713 q 317 704 341 713 q 277 677 292 695 q 255 630 262 659 q 248 563 248 602 l 248 267 z "},"":{"ha":713,"x_min":77,"x_max":609,"o":"m 355 812 q 321 820 337 812 q 294 839 306 827 q 275 866 282 850 q 268 900 268 882 q 275 934 268 918 q 294 962 282 950 q 322 981 307 974 q 355 988 338 988 q 388 981 372 988 q 416 962 404 974 q 435 933 428 949 q 442 900 442 918 q 435 866 442 882 q 416 838 428 850 q 388 819 404 826 q 355 812 372 812 m 226 182 q 234 112 226 140 q 259 66 241 83 q 306 41 277 48 q 376 33 334 33 l 387 33 q 456 45 425 33 q 511 80 488 58 q 549 132 534 102 q 569 197 564 161 l 609 197 l 609 149 q 608 118 609 134 q 604 84 608 101 q 592 53 600 68 q 569 26 584 37 q 531 7 554 14 q 475 0 509 0 l 226 0 q 168 12 195 0 q 120 44 140 24 q 88 92 100 64 q 77 149 77 119 l 77 380 q 89 438 77 411 q 121 486 100 465 q 168 518 141 506 q 227 530 195 530 q 282 539 260 530 q 316 568 304 549 q 333 611 328 586 q 338 668 338 637 l 372 668 l 372 562 q 346 481 372 517 q 281 425 321 444 q 257 410 267 418 q 239 388 246 401 q 229 353 233 374 q 226 301 226 332 l 226 182 z "},"":{"ha":310,"x_min":68,"x_max":242,"o":"m 157 810 q 123 818 139 810 q 94 837 106 825 q 75 864 82 848 q 68 897 68 880 q 75 930 68 914 q 94 959 82 947 q 123 978 106 971 q 157 985 139 985 q 190 979 175 985 q 217 960 205 972 q 235 931 229 947 q 242 897 242 915 q 235 863 242 879 q 217 836 229 848 q 190 818 205 825 q 157 810 175 810 m 234 -15 q 160 -7 191 -15 q 109 21 128 1 q 81 71 89 40 q 79 148 74 102 l 136 665 l 172 665 l 234 -15 z "},"":{"ha":949,"x_min":68,"x_max":881,"o":"m 68 583 l 799 583 q 845 580 829 583 q 870 569 862 578 q 879 542 878 560 q 881 494 881 524 l 881 243 l 840 243 l 840 398 q 832 469 840 440 q 807 515 825 497 q 759 540 789 532 q 687 547 730 547 l 68 547 l 68 583 m 68 547 l 68 583 l 68 547 z "},"":{"ha":606,"x_min":-68,"x_max":573,"o":"m 208 -68 q 194 -126 202 -99 q 168 -175 186 -154 q 118 -207 150 -195 q 34 -219 87 -219 l -66 -219 q -68 -218 -68 -219 q -66 -216 -68 -216 q -7 -198 -29 -216 q 29 -152 16 -180 q 48 -93 42 -125 q 60 -35 55 -62 l 191 713 l 111 713 l 117 747 l 197 747 l 209 814 q 230 872 214 845 q 270 920 246 900 q 323 952 293 941 q 387 964 353 964 l 515 964 q 552 960 540 964 q 569 944 564 955 q 571 917 573 933 q 565 876 569 900 l 554 815 l 514 815 q 513 860 516 840 q 502 895 511 880 q 479 918 494 909 q 441 926 464 926 q 393 904 411 926 q 369 851 374 883 l 351 747 l 499 747 l 493 713 l 345 713 l 208 -68 z "},"":{"ha":642,"x_min":104,"x_max":642,"o":"m 104 503 q 116 562 104 534 q 148 610 127 589 q 196 643 169 631 q 256 654 224 654 l 397 654 q 331 627 358 642 q 287 591 304 612 q 262 540 270 570 q 254 469 254 511 l 254 338 q 262 268 254 296 q 286 218 269 239 q 330 182 302 197 q 397 153 357 167 l 256 153 q 196 165 224 153 q 148 198 169 177 q 116 246 127 218 q 104 305 104 273 l 104 503 m 349 473 q 361 532 349 505 q 394 581 373 560 q 442 613 414 602 q 501 625 469 625 l 642 625 q 576 597 604 612 q 532 562 549 583 q 508 511 515 541 q 500 440 500 481 l 500 372 q 507 302 500 331 q 531 252 515 273 q 575 216 548 231 q 642 188 602 201 l 501 188 q 442 200 469 188 q 394 232 414 212 q 361 280 373 253 q 349 340 349 308 l 349 473 z "},"":{"ha":642,"x_min":0,"x_max":538,"o":"m 538 503 l 538 305 q 527 246 538 273 q 494 198 515 218 q 446 165 473 177 q 387 153 418 153 l 245 153 q 312 182 285 167 q 356 218 340 197 q 380 268 373 239 q 388 338 388 296 l 388 469 q 380 540 388 511 q 355 591 372 570 q 311 627 338 612 q 245 654 284 642 l 387 654 q 446 643 418 654 q 494 610 473 631 q 527 562 515 589 q 538 503 538 534 m 293 473 l 293 340 q 281 280 293 308 q 249 232 269 253 q 200 200 228 212 q 141 188 172 188 l 0 188 q 67 216 39 201 q 111 252 94 231 q 135 302 127 273 q 142 372 142 331 l 142 440 q 135 511 142 481 q 110 562 127 541 q 66 597 93 583 q 0 625 39 612 l 141 625 q 200 613 172 625 q 249 581 228 602 q 281 532 269 560 q 293 473 293 505 z "},"":{"ha":710,"x_min":0,"x_max":0,"o":""},"":{"ha":769,"x_min":0,"x_max":774,"o":"m 772 3 q 752 8 760 3 q 738 22 744 14 q 729 41 732 31 q 722 62 726 52 l 431 978 q 408 976 424 978 q 374 966 392 975 q 338 942 355 958 q 311 896 321 925 l 40 43 q 26 14 34 26 q 1 3 19 3 q 0 1 0 3 q 1 0 0 0 l 33 0 q 61 6 52 0 q 77 35 69 13 l 186 375 l 469 375 l 547 113 q 566 73 553 93 q 598 37 578 53 q 648 10 618 20 q 716 0 677 0 l 772 0 q 774 1 774 0 q 772 3 774 3 m 334 844 l 459 410 l 197 410 l 334 844 m 370 1241 q 412 1223 398 1238 q 438 1184 427 1208 q 462 1131 448 1160 q 496 1070 476 1102 q 551 1007 517 1038 l 530 1007 q 469 1056 499 1038 q 411 1087 438 1074 q 360 1109 383 1099 q 323 1133 337 1119 q 311 1153 315 1141 q 306 1177 307 1164 q 309 1202 305 1190 q 323 1223 313 1214 q 370 1241 341 1243 z "},"":{"ha":769,"x_min":0,"x_max":774,"o":"m 772 3 q 774 1 774 3 q 772 0 774 0 l 716 0 q 648 10 677 0 q 598 37 618 20 q 566 73 578 53 q 547 113 553 93 l 469 375 l 186 375 l 77 35 q 61 6 69 13 q 33 0 52 0 l 1 0 q 0 1 0 0 q 1 3 0 3 q 26 14 19 3 q 40 43 34 26 l 311 896 q 338 942 321 925 q 374 966 355 958 q 408 976 392 975 q 431 978 424 978 l 722 62 q 729 41 726 52 q 738 22 732 31 q 752 8 744 14 q 772 3 760 3 m 197 410 l 459 410 l 334 844 l 197 410 m 188 1110 q 222 1146 202 1133 q 265 1164 242 1160 q 312 1166 288 1169 q 358 1152 336 1162 q 408 1132 383 1139 q 465 1124 433 1124 q 522 1136 496 1126 q 568 1168 547 1145 q 572 1130 584 1147 q 547 1100 562 1115 q 517 1074 532 1085 q 456 1056 490 1057 q 397 1070 423 1055 q 368 1088 382 1078 q 340 1105 354 1097 q 311 1119 326 1114 q 277 1123 296 1124 q 227 1108 247 1123 q 188 1072 206 1094 q 182 1092 182 1082 q 188 1110 181 1101 z "},"":{"ha":896,"x_min":104,"x_max":792,"o":"m 640 964 q 699 952 671 964 q 748 920 727 941 q 780 872 768 900 q 792 812 792 844 l 792 152 q 780 93 792 121 q 748 44 768 65 q 699 12 727 24 q 640 0 671 0 l 256 0 q 197 12 224 0 q 149 44 170 24 q 116 93 128 65 q 104 152 104 121 l 104 812 q 116 872 104 844 q 149 920 128 900 q 197 952 170 941 q 256 964 224 964 l 640 964 m 409 931 q 337 924 366 931 q 290 899 308 916 q 263 852 271 881 q 256 781 256 823 l 256 184 q 263 114 256 142 q 290 67 271 85 q 337 42 308 50 q 409 34 366 34 l 486 34 q 558 42 529 34 q 606 67 588 50 q 632 114 624 85 q 640 184 640 142 l 640 781 q 632 852 640 823 q 606 899 624 881 q 558 924 588 916 q 486 931 529 931 l 409 931 m 258 1152 q 292 1188 272 1175 q 335 1206 312 1202 q 382 1208 358 1211 q 428 1194 406 1204 q 478 1174 453 1181 q 534 1166 503 1166 q 592 1178 566 1168 q 638 1211 617 1187 q 642 1172 654 1189 q 617 1142 631 1157 q 587 1116 602 1127 q 526 1098 559 1099 q 467 1112 493 1097 q 438 1130 452 1120 q 410 1147 424 1139 q 381 1161 396 1156 q 347 1165 366 1166 q 296 1151 317 1165 q 258 1114 276 1136 q 252 1134 252 1124 q 258 1152 251 1143 z "},"":{"ha":1322,"x_min":104,"x_max":1254,"o":"m 782 932 l 782 511 l 835 511 q 891 522 863 511 q 943 554 920 532 q 981 607 966 575 q 1000 683 997 640 l 1029 683 l 1029 315 l 1000 315 q 979 385 995 355 q 939 435 962 415 q 889 465 916 455 q 835 476 862 475 l 782 476 l 782 33 l 972 33 q 1074 56 1029 33 q 1151 116 1119 79 q 1199 203 1182 154 q 1216 306 1216 253 l 1216 374 l 1254 374 l 1254 151 q 1242 92 1254 119 q 1210 44 1230 64 q 1161 12 1189 24 q 1102 0 1133 0 l 256 0 q 197 12 224 0 q 149 44 170 24 q 116 93 128 65 q 104 152 104 121 l 104 812 q 116 872 104 844 q 149 920 128 900 q 197 952 170 941 q 256 964 224 964 l 1147 965 q 1194 963 1178 965 q 1217 952 1210 961 q 1226 926 1225 943 q 1227 877 1227 908 l 1227 684 l 1190 684 l 1190 781 q 1181 852 1190 823 q 1155 899 1173 881 q 1107 924 1137 917 q 1035 932 1078 932 l 782 932 m 409 931 q 337 924 366 931 q 290 899 308 916 q 263 852 271 881 q 256 781 256 823 l 256 184 q 263 114 256 142 q 290 67 271 85 q 337 42 308 50 q 409 34 366 34 l 486 34 q 552 40 525 34 q 598 60 580 46 q 626 97 616 74 q 639 153 636 119 l 639 803 l 639 812 q 626 868 636 846 q 598 905 616 891 q 552 925 580 919 q 486 931 525 931 l 409 931 z "},"":{"ha":1158,"x_min":68,"x_max":1055,"o":"m 481 747 q 574 724 532 747 q 608 740 590 733 q 646 747 627 746 l 904 747 q 963 735 935 747 q 1010 702 990 723 q 1043 654 1031 682 q 1055 596 1055 627 l 1055 463 l 646 463 l 646 184 q 654 113 646 142 q 681 66 663 83 q 728 40 699 48 q 800 33 758 33 l 863 33 q 935 40 905 33 q 982 66 964 48 q 1008 113 1000 83 q 1016 184 1016 142 l 1016 248 l 1055 248 l 1055 151 q 1050 102 1055 128 q 1029 53 1045 75 q 984 15 1014 30 q 904 0 954 0 l 646 0 q 609 6 628 0 q 574 23 591 12 q 481 0 532 0 l 233 0 q 171 10 201 0 q 118 40 141 20 q 82 87 96 59 q 68 152 68 115 l 68 595 q 82 660 68 631 q 118 708 96 688 q 171 737 141 727 q 233 747 201 747 l 481 747 m 218 184 q 253 71 218 106 q 358 35 287 35 q 463 71 429 35 q 496 184 496 106 l 496 563 q 463 677 496 641 q 358 713 429 713 q 253 677 287 713 q 218 563 218 641 l 218 184 m 775 712 q 675 676 705 712 q 646 563 646 640 l 646 496 l 904 496 l 904 563 q 897 630 904 602 q 875 676 890 658 q 836 703 860 694 q 775 712 811 712 z "},"":{"ha":745,"x_min":17,"x_max":711,"o":"m 17 368 q 21 393 17 385 q 35 405 25 401 q 60 408 44 408 q 99 408 75 408 l 711 408 q 707 384 711 392 q 693 372 703 376 q 668 369 684 369 q 629 368 652 368 l 17 368 z "},"":{"ha":1439,"x_min":17,"x_max":1405,"o":"m 17 368 q 20 390 17 382 q 29 402 22 398 q 46 407 36 406 q 73 408 57 408 l 1405 408 q 1402 386 1405 394 q 1392 374 1399 378 q 1372 369 1384 370 q 1343 368 1360 368 l 17 368 z "},"":{"ha":600,"x_min":82,"x_max":494,"o":"m 455 1111 q 414 1061 433 1089 q 389 1000 396 1032 q 417 999 404 1000 q 442 993 430 998 q 465 980 454 989 q 483 957 475 971 q 492 925 491 943 q 489 891 494 907 q 474 859 484 874 q 448 836 463 844 q 414 824 432 826 q 378 828 395 823 q 347 845 361 833 q 324 875 332 857 q 316 948 309 910 q 346 1020 324 986 q 398 1081 368 1054 q 461 1124 429 1109 q 460 1117 461 1118 q 455 1111 460 1116 m 229 1111 q 188 1061 206 1089 q 163 1000 170 1032 q 190 999 177 1000 q 216 993 203 998 q 238 980 228 989 q 256 957 248 971 q 266 925 264 943 q 262 891 267 907 q 247 859 258 874 q 221 836 237 844 q 187 824 205 826 q 152 828 169 823 q 120 845 134 833 q 98 875 106 857 q 90 948 82 910 q 119 1020 98 986 q 172 1081 141 1054 q 235 1124 203 1109 q 234 1117 235 1118 q 229 1111 233 1116 z "},"":{"ha":600,"x_min":67,"x_max":478,"o":"m 106 713 q 146 763 128 734 q 172 824 165 791 q 144 825 157 824 q 119 830 131 826 q 96 844 106 835 q 78 867 86 852 q 68 899 70 881 q 72 933 67 916 q 87 964 77 949 q 113 988 98 979 q 147 999 129 998 q 183 996 165 1001 q 214 978 200 990 q 237 949 229 966 q 244 876 252 913 q 215 804 237 838 q 162 742 193 770 q 100 700 131 715 q 100 706 100 705 q 106 713 101 707 m 332 713 q 373 763 355 734 q 398 824 391 791 q 371 825 384 824 q 345 830 357 826 q 323 844 333 835 q 304 867 313 852 q 295 899 296 881 q 298 933 294 916 q 314 964 303 949 q 340 988 324 979 q 374 999 355 998 q 409 996 392 1001 q 441 978 427 990 q 463 949 455 966 q 471 876 478 913 q 441 804 463 838 q 389 742 420 770 q 326 700 357 715 q 327 706 326 705 q 332 713 328 707 z "},"":{"ha":387,"x_min":82,"x_max":267,"o":"m 229 1109 q 188 1059 206 1088 q 163 998 170 1031 q 190 997 177 998 q 216 992 203 996 q 238 979 228 987 q 256 956 248 970 q 266 924 264 941 q 262 889 267 906 q 247 858 258 873 q 221 834 237 843 q 187 823 205 825 q 152 827 169 821 q 120 844 134 832 q 98 873 106 856 q 90 947 82 909 q 119 1019 98 985 q 172 1080 141 1053 q 235 1122 203 1107 q 234 1116 235 1117 q 229 1109 233 1115 z "},"":{"ha":387,"x_min":67,"x_max":252,"o":"m 106 713 q 146 763 128 734 q 172 824 165 791 q 144 825 157 824 q 119 830 131 826 q 96 844 106 835 q 78 867 86 852 q 68 899 70 881 q 72 933 67 916 q 87 964 77 949 q 113 988 98 979 q 147 999 129 998 q 183 996 165 1001 q 214 978 200 990 q 237 949 229 966 q 244 876 252 913 q 215 804 237 838 q 162 742 193 770 q 100 700 131 715 q 100 706 100 705 q 106 713 101 707 z "},"":{"ha":787,"x_min":104,"x_max":683,"o":"m 405 707 q 472 679 444 707 q 500 611 500 650 q 472 546 500 574 q 405 517 444 517 q 338 546 367 517 q 309 611 309 574 q 338 679 309 650 q 405 707 366 707 m 405 206 q 472 178 444 206 q 500 112 500 151 q 472 44 500 73 q 405 16 444 16 q 338 45 367 16 q 309 112 309 74 q 337 178 309 150 q 405 206 366 206 m 104 339 q 108 364 104 355 q 121 376 112 372 q 146 379 131 379 q 186 379 162 379 l 683 379 q 679 355 683 363 q 665 343 675 347 q 640 339 656 340 q 601 339 624 339 l 104 339 z "},"":{"ha":615,"x_min":-34,"x_max":615,"o":"m -32 747 l 32 747 q 98 741 71 747 q 144 719 125 734 q 176 682 163 705 q 199 627 189 659 l 350 151 l 532 715 q 547 742 539 736 q 572 747 555 747 l 612 747 q 615 746 615 747 q 612 745 615 745 q 583 736 593 745 q 567 707 574 727 l 309 -109 q 285 -166 299 -144 q 254 -202 271 -189 q 218 -220 237 -215 q 180 -225 199 -225 l 166 -225 q 86 -211 116 -226 q 40 -173 56 -196 q 19 -124 24 -151 q 13 -75 14 -97 q 29 -75 22 -75 q 40 -80 36 -76 q 48 -91 45 -83 q 53 -111 51 -98 q 91 -173 62 -153 q 178 -191 120 -193 q 246 -155 221 -190 q 287 -61 271 -121 l 303 -7 q 281 4 293 -3 q 259 22 270 11 q 238 51 248 34 q 220 93 228 68 l 31 685 q 21 711 26 700 q 10 730 16 722 q -6 742 3 738 q -32 745 -16 745 q -34 746 -34 745 q -32 747 -34 747 m 486 1003 q 547 976 521 1003 q 573 913 573 949 q 548 850 573 876 q 486 825 523 825 q 421 850 447 825 q 395 913 395 876 q 422 976 395 949 q 486 1003 449 1003 m 163 1003 q 226 976 199 1003 q 253 913 253 949 q 227 850 253 876 q 163 825 201 825 q 100 850 125 825 q 75 913 75 876 q 101 976 75 949 q 163 1003 127 1003 z "},"":{"ha":735,"x_min":0,"x_max":735,"o":"m 281 462 l 77 894 q 63 919 71 907 q 47 940 56 931 q 27 955 39 949 q 1 961 16 961 q 0 962 0 961 q 1 964 0 964 l 77 964 q 132 962 108 964 q 176 952 157 960 q 213 925 196 943 q 244 876 229 907 l 410 522 l 617 919 q 647 953 629 943 q 694 964 664 964 l 734 964 q 735 962 735 964 q 734 961 735 961 q 695 951 710 961 q 669 919 680 942 l 435 475 l 435 162 q 427 86 435 117 q 401 36 419 55 q 353 8 382 17 q 281 0 323 0 l 281 462 m 531 1234 q 592 1207 566 1234 q 618 1144 618 1180 q 593 1081 618 1107 q 531 1055 568 1055 q 466 1081 492 1055 q 440 1144 440 1107 q 467 1207 440 1180 q 531 1234 494 1234 m 208 1234 q 272 1207 245 1234 q 298 1144 298 1180 q 272 1081 298 1107 q 208 1055 246 1055 q 146 1081 171 1055 q 121 1144 121 1107 q 147 1207 121 1180 q 208 1234 173 1234 z "},"":{"ha":166,"x_min":-255,"x_max":412,"o":"m 331 925 q 347 950 340 942 q 362 961 354 958 q 382 963 371 964 q 412 963 394 963 l -165 47 q -184 20 -176 30 q -200 6 -192 10 q -221 1 -209 1 q -255 0 -234 0 l 331 925 z "},"":{"ha":813,"x_min":87,"x_max":711,"o":"m 635 648 q 656 613 648 631 q 670 575 665 594 q 676 537 675 555 q 678 502 678 518 l 678 378 q 676 343 678 361 q 670 306 675 324 q 656 269 665 287 q 634 234 648 250 l 711 157 q 690 143 699 146 q 672 144 682 140 q 652 160 663 149 q 624 187 640 171 l 604 207 q 546 179 581 189 q 465 170 512 170 l 330 170 q 250 180 283 170 q 193 207 217 190 l 174 187 q 146 160 157 171 q 125 144 134 149 q 107 143 116 140 q 87 157 98 146 l 164 235 q 142 270 151 251 q 130 307 134 288 q 124 344 125 326 q 122 378 122 362 l 122 502 q 124 536 122 517 q 130 573 125 554 q 142 612 134 593 q 163 648 151 631 l 87 724 q 107 739 98 736 q 125 738 116 742 q 146 722 134 733 q 174 694 157 711 l 192 676 q 249 705 216 694 q 330 715 283 715 l 465 715 q 547 704 513 715 q 606 675 582 693 l 624 694 q 652 722 640 711 q 672 738 663 733 q 690 739 682 742 q 711 724 699 736 l 635 648 m 240 253 q 278 236 256 242 q 330 230 300 230 l 465 230 q 519 236 496 230 q 558 253 542 242 l 588 280 q 610 331 605 303 q 615 382 615 358 l 615 502 q 609 552 615 526 q 588 601 604 578 l 559 629 q 519 648 542 641 q 465 654 496 654 l 330 654 q 277 648 300 654 q 239 629 255 641 l 211 600 q 191 552 196 578 q 185 502 185 526 l 185 382 q 191 331 185 358 q 212 281 196 304 l 240 253 z "},"":{"ha":397,"x_min":0,"x_max":293,"o":"m 293 593 l 293 153 q 281 93 293 121 q 249 45 269 66 q 200 13 228 24 q 141 1 172 1 l 0 1 q 67 29 39 14 q 111 65 94 44 q 135 115 127 86 q 142 185 142 144 l 142 559 q 135 630 142 601 q 110 681 127 660 q 66 717 93 702 q 0 745 39 732 l 141 745 q 200 733 172 745 q 249 700 228 721 q 281 652 269 680 q 293 593 293 624 z "},"":{"ha":397,"x_min":0,"x_max":293,"o":"m 293 503 l 293 305 q 281 246 293 273 q 249 198 269 218 q 200 165 228 177 q 141 153 172 153 l 0 153 q 67 182 39 167 q 111 218 94 197 q 135 268 127 239 q 142 338 142 296 l 142 469 q 135 540 142 511 q 110 591 127 570 q 66 627 93 612 q 0 654 39 642 l 141 654 q 200 643 172 654 q 249 610 228 631 q 281 562 269 589 q 293 503 293 534 z "},"":{"ha":764,"x_min":0,"x_max":730,"o":"m 639 185 q 639 125 639 157 q 647 66 639 93 q 673 22 654 39 q 728 4 692 4 q 730 2 730 4 q 728 0 730 0 l 637 0 q 554 12 584 0 q 508 44 524 24 q 489 93 493 65 q 486 152 486 121 l 486 801 q 491 868 486 840 q 510 916 496 896 q 437 928 476 928 l 386 928 q 317 921 346 928 q 271 896 289 913 q 243 852 252 879 q 234 787 235 825 l 234 745 l 382 745 l 382 711 l 234 711 l 234 158 q 227 84 234 114 q 202 35 220 54 q 155 8 184 16 q 81 0 125 0 l 81 711 l 0 711 l 0 745 l 81 745 l 81 811 q 93 870 81 842 q 125 919 104 898 q 173 951 146 939 q 232 963 201 963 l 639 963 l 639 185 z "},"":{"ha":361,"x_min":94,"x_max":267,"o":"m 181 574 q 242 548 217 574 q 267 488 267 523 q 242 426 267 452 q 181 400 216 400 q 120 427 146 400 q 94 488 94 453 q 120 548 94 522 q 181 574 146 574 z "},"":{"ha":351,"x_min":67,"x_max":252,"o":"m 106 -129 q 146 -79 128 -107 q 172 -18 165 -50 q 144 -17 157 -18 q 119 -11 131 -16 q 96 2 106 -7 q 78 25 86 11 q 68 57 70 39 q 72 91 67 75 q 87 122 77 108 q 113 146 98 137 q 147 158 129 156 q 183 154 165 159 q 214 137 200 149 q 237 107 229 125 q 244 34 252 72 q 215 -38 237 -4 q 162 -99 193 -72 q 100 -142 131 -127 q 100 -135 100 -136 q 106 -129 101 -134 z "},"":{"ha":600,"x_min":67,"x_max":478,"o":"m 106 -129 q 146 -79 128 -107 q 172 -18 165 -50 q 144 -17 157 -18 q 119 -11 131 -16 q 96 2 106 -7 q 78 25 86 11 q 68 57 70 39 q 72 91 67 75 q 87 122 77 108 q 113 146 98 137 q 147 158 129 156 q 183 154 165 159 q 214 137 200 149 q 237 107 229 125 q 244 34 252 72 q 215 -38 237 -4 q 162 -99 193 -72 q 100 -142 131 -127 q 100 -135 100 -136 q 106 -129 101 -134 m 332 -129 q 373 -79 355 -107 q 398 -18 391 -50 q 371 -17 384 -18 q 345 -11 357 -16 q 323 2 333 -7 q 304 25 313 11 q 295 57 296 39 q 298 91 294 75 q 314 122 303 108 q 340 146 324 137 q 374 158 355 156 q 409 154 392 159 q 441 137 427 149 q 463 107 455 125 q 471 34 478 72 q 441 -38 463 -4 q 389 -99 420 -72 q 326 -142 357 -127 q 327 -135 326 -136 q 332 -129 328 -134 z "},"":{"ha":1713,"x_min":104,"x_max":1712,"o":"m 104 843 q 114 895 104 871 q 142 938 124 920 q 183 966 159 956 q 236 977 208 977 l 445 977 q 497 966 473 977 q 539 938 522 956 q 568 895 557 920 q 578 843 578 871 l 578 736 q 568 683 578 708 q 539 640 557 659 q 497 611 522 622 q 445 600 473 600 l 236 600 q 183 611 208 600 q 142 640 159 622 q 114 683 124 659 q 104 736 104 708 l 104 843 m 448 814 q 424 913 448 881 q 342 946 399 946 q 258 914 282 946 q 234 814 234 882 l 234 764 q 258 664 234 697 q 342 631 282 631 q 424 665 399 631 q 448 764 448 698 l 448 814 m 687 226 q 697 278 687 254 q 725 321 707 302 q 767 350 743 339 q 819 361 791 361 l 1027 361 q 1080 350 1056 361 q 1123 321 1105 339 q 1151 278 1141 302 q 1162 226 1162 254 l 1162 121 q 1151 68 1162 93 q 1123 25 1141 43 q 1080 -4 1105 7 q 1027 -15 1056 -15 l 819 -15 q 767 -4 791 -15 q 725 25 743 7 q 697 68 707 43 q 687 121 687 93 l 687 226 m 1031 197 q 1007 297 1031 264 q 926 330 983 330 q 842 297 867 330 q 817 197 817 264 l 817 149 q 842 49 817 81 q 926 17 867 17 q 1007 49 983 17 q 1031 149 1031 81 l 1031 197 m 861 941 q 874 966 869 958 q 885 977 880 974 q 900 979 891 979 q 927 979 909 979 l 421 34 q 407 7 412 17 q 395 -7 402 -2 q 377 -13 389 -12 q 345 -14 366 -14 l 861 941 m 1237 226 q 1247 278 1237 254 q 1275 321 1257 302 q 1317 350 1293 339 q 1369 361 1341 361 l 1577 361 q 1630 350 1606 361 q 1673 321 1655 339 q 1701 278 1691 302 q 1712 226 1712 254 l 1712 121 q 1701 68 1712 93 q 1673 25 1691 43 q 1630 -4 1655 7 q 1577 -15 1606 -15 l 1369 -15 q 1317 -4 1341 -15 q 1275 25 1293 7 q 1247 68 1257 43 q 1237 121 1237 93 l 1237 226 m 1581 197 q 1557 297 1581 264 q 1476 330 1533 330 q 1392 297 1417 330 q 1367 197 1367 264 l 1367 149 q 1392 49 1367 81 q 1476 17 1417 17 q 1557 49 1533 17 q 1581 149 1581 81 l 1581 197 z "},"":{"ha":769,"x_min":0,"x_max":774,"o":"m 772 3 q 774 1 774 3 q 772 0 774 0 l 716 0 q 648 10 677 0 q 598 37 618 20 q 566 73 578 53 q 547 113 553 93 l 469 375 l 186 375 l 77 35 q 61 6 69 13 q 33 0 52 0 l 1 0 q 0 1 0 0 q 1 3 0 3 q 26 14 19 3 q 40 43 34 26 l 311 896 q 338 942 321 925 q 374 966 355 958 q 408 976 392 975 q 431 978 424 978 l 722 62 q 729 41 726 52 q 738 22 732 31 q 752 8 744 14 q 772 3 760 3 m 197 410 l 459 410 l 334 844 l 197 410 m 567 952 l 376 1078 l 186 952 l 322 1133 q 343 1151 332 1148 q 376 1153 355 1153 l 377 1153 q 409 1151 397 1153 q 431 1133 421 1148 l 567 952 z "},"":{"ha":798,"x_min":104,"x_max":730,"o":"m 258 931 l 258 511 l 311 511 q 367 522 339 511 q 418 554 395 532 q 457 607 441 575 q 476 683 473 640 l 505 683 l 505 315 l 476 315 q 454 385 471 355 q 415 435 438 415 q 365 465 392 455 q 311 476 338 475 l 258 476 l 258 33 l 448 33 q 550 56 505 33 q 626 116 595 79 q 675 203 658 154 q 692 306 692 253 l 692 374 l 730 374 l 730 151 q 718 92 730 119 q 685 44 706 64 q 637 12 665 24 q 578 0 609 0 l 104 0 l 104 876 q 105 927 104 909 q 114 954 106 945 q 137 963 121 962 q 182 964 153 964 l 623 964 q 670 962 654 964 q 693 951 686 960 q 702 925 701 943 q 703 876 703 907 l 703 684 l 665 684 l 665 780 q 657 851 665 823 q 631 898 649 880 q 583 924 612 916 q 511 931 553 931 l 258 931 m 612 997 l 422 1122 l 231 997 l 368 1177 q 389 1195 377 1193 q 421 1198 401 1198 l 422 1198 q 455 1195 443 1198 q 476 1177 467 1193 l 612 997 z "},"":{"ha":769,"x_min":0,"x_max":774,"o":"m 772 3 q 774 1 774 3 q 772 0 774 0 l 716 0 q 648 10 677 0 q 598 37 618 20 q 566 73 578 53 q 547 113 553 93 l 469 375 l 186 375 l 77 35 q 61 6 69 13 q 33 0 52 0 l 1 0 q 0 1 0 0 q 1 3 0 3 q 26 14 19 3 q 40 43 34 26 l 311 896 q 338 942 321 925 q 374 966 355 958 q 408 976 392 975 q 431 978 424 978 l 722 62 q 729 41 726 52 q 738 22 732 31 q 752 8 744 14 q 772 3 760 3 m 197 410 l 459 410 l 334 844 l 197 410 m 414 1244 q 460 1226 442 1246 q 474 1204 470 1217 q 477 1180 478 1192 q 472 1156 477 1167 q 460 1136 468 1144 q 423 1112 446 1122 q 373 1089 400 1102 q 315 1059 345 1077 q 254 1010 284 1040 l 233 1010 q 287 1073 267 1041 q 321 1134 307 1105 q 346 1187 335 1163 q 371 1225 356 1211 q 414 1244 385 1240 z "},"":{"ha":798,"x_min":104,"x_max":730,"o":"m 258 931 l 258 511 l 311 511 q 367 522 339 511 q 418 554 395 532 q 457 607 441 575 q 476 683 473 640 l 505 683 l 505 315 l 476 315 q 454 385 471 355 q 415 435 438 415 q 365 465 392 455 q 311 476 338 475 l 258 476 l 258 33 l 448 33 q 550 56 505 33 q 626 116 595 79 q 675 203 658 154 q 692 306 692 253 l 692 374 l 730 374 l 730 151 q 718 92 730 119 q 685 44 706 64 q 637 12 665 24 q 578 0 609 0 l 104 0 l 104 876 q 105 927 104 909 q 114 954 106 945 q 137 963 121 962 q 182 964 153 964 l 623 964 q 670 962 654 964 q 693 951 686 960 q 702 925 701 943 q 703 876 703 907 l 703 684 l 665 684 l 665 780 q 657 851 665 823 q 631 898 649 880 q 583 924 612 916 q 511 931 553 931 l 258 931 m 559 1232 q 621 1205 595 1232 q 647 1142 647 1178 q 622 1079 647 1105 q 559 1053 597 1053 q 495 1079 521 1053 q 469 1142 469 1105 q 496 1205 469 1178 q 559 1232 523 1232 m 237 1232 q 300 1205 273 1232 q 327 1142 327 1178 q 301 1079 327 1105 q 237 1053 275 1053 q 174 1079 199 1053 q 149 1142 149 1105 q 175 1205 149 1178 q 237 1232 201 1232 z "},"":{"ha":798,"x_min":104,"x_max":730,"o":"m 258 931 l 258 511 l 311 511 q 367 522 339 511 q 418 554 395 532 q 457 607 441 575 q 476 683 473 640 l 505 683 l 505 315 l 476 315 q 454 385 471 355 q 415 435 438 415 q 365 465 392 455 q 311 476 338 475 l 258 476 l 258 33 l 448 33 q 550 56 505 33 q 626 116 595 79 q 675 203 658 154 q 692 306 692 253 l 692 374 l 730 374 l 730 151 q 718 92 730 119 q 685 44 706 64 q 637 12 665 24 q 578 0 609 0 l 104 0 l 104 876 q 105 927 104 909 q 114 954 106 945 q 137 963 121 962 q 182 964 153 964 l 623 964 q 670 962 654 964 q 693 951 686 960 q 702 925 701 943 q 703 876 703 907 l 703 684 l 665 684 l 665 780 q 657 851 665 823 q 631 898 649 880 q 583 924 612 916 q 511 931 553 931 l 258 931 m 368 1244 q 410 1225 396 1240 q 436 1187 425 1211 q 460 1134 446 1163 q 494 1073 474 1105 q 549 1010 515 1041 l 528 1010 q 467 1059 497 1040 q 409 1089 436 1077 q 358 1112 381 1102 q 321 1136 335 1122 q 309 1156 313 1144 q 304 1180 304 1167 q 307 1204 303 1192 q 321 1226 311 1217 q 368 1244 339 1246 z "},"":{"ha":324,"x_min":-12,"x_max":233,"o":"m 208 159 q 201 84 208 115 q 177 35 194 54 q 130 8 159 16 q 55 0 100 0 l 55 814 q 63 891 55 860 q 89 942 71 922 q 136 969 107 961 q 208 977 165 977 l 208 159 m 169 1219 q 216 1201 197 1221 q 229 1179 225 1192 q 233 1155 233 1167 q 228 1131 232 1142 q 216 1111 223 1119 q 178 1087 201 1097 q 128 1064 155 1077 q 70 1034 100 1052 q 9 985 39 1015 l -12 985 q 42 1048 22 1016 q 76 1109 62 1080 q 101 1162 90 1138 q 126 1200 111 1185 q 169 1219 140 1215 z "},"":{"ha":517,"x_min":92,"x_max":473,"o":"m 339 159 q 332 84 339 115 q 308 35 325 54 q 261 8 290 16 q 186 0 231 0 l 186 814 q 194 891 186 860 q 220 942 202 922 q 267 969 238 961 q 339 977 296 977 l 339 159 m 473 998 l 283 1124 l 92 998 l 229 1179 q 250 1197 238 1194 q 282 1199 262 1199 l 283 1199 q 316 1197 304 1199 q 337 1179 328 1194 l 473 998 z "},"":{"ha":370,"x_min":-64,"x_max":434,"o":"m 259 159 q 252 84 259 115 q 228 35 245 54 q 181 8 210 16 q 106 0 151 0 l 106 814 q 114 891 106 860 q 140 942 122 922 q 187 969 158 961 q 259 977 216 977 l 259 159 m 347 1232 q 408 1205 382 1232 q 434 1142 434 1178 q 409 1079 434 1105 q 347 1053 384 1053 q 282 1079 308 1053 q 256 1142 256 1105 q 283 1205 256 1178 q 347 1232 310 1232 m 24 1232 q 87 1205 60 1232 q 114 1142 114 1178 q 88 1079 114 1105 q 24 1053 62 1053 q -39 1079 -14 1053 q -64 1142 -64 1105 q -38 1205 -64 1178 q 24 1232 -12 1232 z "},"":{"ha":337,"x_min":104,"x_max":349,"o":"m 257 159 q 250 84 257 115 q 225 35 243 54 q 179 8 208 16 q 104 0 149 0 l 104 814 q 112 891 104 860 q 138 942 120 922 q 185 969 156 961 q 257 977 214 977 l 257 159 m 168 1239 q 211 1221 197 1236 q 236 1182 226 1206 q 261 1129 247 1158 q 295 1068 275 1100 q 349 1005 315 1036 l 328 1005 q 267 1054 298 1036 q 209 1085 237 1072 q 159 1107 182 1097 q 121 1131 136 1117 q 110 1151 114 1139 q 104 1175 105 1162 q 108 1200 104 1187 q 121 1221 112 1212 q 168 1239 140 1241 z "},"":{"ha":896,"x_min":104,"x_max":792,"o":"m 640 964 q 699 952 671 964 q 748 920 727 941 q 780 872 768 900 q 792 812 792 844 l 792 152 q 780 93 792 121 q 748 44 768 65 q 699 12 727 24 q 640 0 671 0 l 256 0 q 197 12 224 0 q 149 44 170 24 q 116 93 128 65 q 104 152 104 121 l 104 812 q 116 872 104 844 q 149 920 128 900 q 197 952 170 941 q 256 964 224 964 l 640 964 m 409 931 q 337 924 366 931 q 290 899 308 916 q 263 852 271 881 q 256 781 256 823 l 256 184 q 263 114 256 142 q 290 67 271 85 q 337 42 308 50 q 409 34 366 34 l 486 34 q 558 42 529 34 q 606 67 588 50 q 632 114 624 85 q 640 184 640 142 l 640 781 q 632 852 640 823 q 606 899 624 881 q 558 924 588 916 q 486 931 529 931 l 409 931 m 498 1247 q 545 1230 527 1249 q 559 1208 555 1220 q 562 1183 563 1196 q 557 1159 562 1171 q 545 1139 553 1147 q 508 1115 531 1125 q 457 1093 485 1105 q 399 1062 430 1080 q 338 1013 369 1044 l 317 1013 q 372 1076 351 1044 q 406 1137 392 1108 q 430 1190 420 1166 q 456 1229 441 1214 q 498 1247 470 1244 z "},"":{"ha":896,"x_min":104,"x_max":792,"o":"m 640 964 q 699 952 671 964 q 748 920 727 941 q 780 872 768 900 q 792 812 792 844 l 792 152 q 780 93 792 121 q 748 44 768 65 q 699 12 727 24 q 640 0 671 0 l 256 0 q 197 12 224 0 q 149 44 170 24 q 116 93 128 65 q 104 152 104 121 l 104 812 q 116 872 104 844 q 149 920 128 900 q 197 952 170 941 q 256 964 224 964 l 640 964 m 409 931 q 337 924 366 931 q 290 899 308 916 q 263 852 271 881 q 256 781 256 823 l 256 184 q 263 114 256 142 q 290 67 271 85 q 337 42 308 50 q 409 34 366 34 l 486 34 q 558 42 529 34 q 606 67 588 50 q 632 114 624 85 q 640 184 640 142 l 640 781 q 632 852 640 823 q 606 899 624 881 q 558 924 588 916 q 486 931 529 931 l 409 931 m 638 997 l 448 1122 l 257 997 l 393 1177 q 415 1195 403 1193 q 447 1198 427 1198 l 448 1198 q 480 1195 469 1198 q 502 1177 492 1193 l 638 997 z "},"":{"ha":896,"x_min":104,"x_max":792,"o":"m 640 964 l 256 964 q 197 952 224 964 q 149 920 170 941 q 116 872 128 900 q 104 812 104 844 l 104 152 q 116 93 104 121 q 149 44 128 65 q 197 12 170 24 q 256 0 224 0 l 640 0 q 699 12 671 0 q 748 44 727 24 q 780 93 768 65 q 792 152 792 121 l 792 812 q 780 872 792 844 q 748 920 768 900 q 699 952 727 941 q 640 964 671 964 m 486 931 q 558 924 529 931 q 606 899 588 916 q 632 852 624 881 q 640 781 640 823 l 640 184 q 632 114 640 142 q 606 67 624 85 q 558 42 588 50 q 486 34 529 34 l 409 34 q 337 42 366 34 q 290 67 308 50 q 263 114 271 85 q 256 184 256 142 l 256 781 q 263 852 256 823 q 290 899 271 881 q 337 924 308 916 q 409 931 366 931 l 486 931 m 386 1242 q 429 1224 414 1239 q 454 1185 444 1209 q 478 1133 465 1162 q 513 1072 492 1103 q 567 1008 533 1040 l 546 1008 q 485 1057 515 1039 q 427 1088 454 1076 q 376 1111 399 1101 q 339 1135 353 1120 q 327 1154 332 1143 q 322 1178 323 1166 q 326 1203 321 1191 q 339 1225 330 1215 q 386 1242 357 1244 z "},"":{"ha":786,"x_min":104,"x_max":682,"o":"m 104 814 q 112 891 104 860 q 138 941 120 922 q 186 968 157 960 q 258 977 216 977 l 258 184 q 274 106 258 135 q 310 61 289 77 q 353 40 331 45 q 387 35 374 35 l 490 35 q 562 42 532 35 q 610 67 591 50 q 637 114 629 85 q 645 186 645 143 l 645 896 q 646 934 645 919 q 650 959 646 949 q 661 972 653 968 q 682 977 669 977 l 682 153 q 677 103 682 130 q 657 53 673 76 q 611 15 642 31 q 530 0 581 0 l 256 0 q 197 12 224 0 q 148 45 169 24 q 116 93 127 66 q 104 153 104 121 l 104 814 m 497 1244 q 544 1227 526 1246 q 557 1205 553 1217 q 561 1180 562 1193 q 556 1156 560 1168 q 544 1137 551 1145 q 507 1113 530 1122 q 456 1090 484 1103 q 398 1059 429 1078 q 337 1010 368 1041 l 316 1010 q 370 1074 350 1042 q 405 1135 391 1105 q 429 1187 418 1164 q 454 1226 439 1211 q 497 1244 469 1241 z "},"":{"ha":786,"x_min":104,"x_max":682,"o":"m 104 814 q 112 891 104 860 q 138 941 120 922 q 186 968 157 960 q 258 977 216 977 l 258 184 q 274 106 258 135 q 310 61 289 77 q 353 40 331 45 q 387 35 374 35 l 490 35 q 562 42 532 35 q 610 67 591 50 q 637 114 629 85 q 645 186 645 143 l 645 896 q 646 934 645 919 q 650 959 646 949 q 661 972 653 968 q 682 977 669 977 l 682 153 q 677 103 682 130 q 657 53 673 76 q 611 15 642 31 q 530 0 581 0 l 256 0 q 197 12 224 0 q 148 45 169 24 q 116 93 127 66 q 104 153 104 121 l 104 814 m 643 990 l 452 1116 l 262 990 l 398 1171 q 419 1188 408 1186 q 452 1191 431 1191 l 453 1191 q 485 1188 473 1191 q 507 1171 497 1186 l 643 990 z "},"":{"ha":786,"x_min":104,"x_max":682,"o":"m 104 153 q 116 93 104 121 q 148 45 127 66 q 197 12 169 24 q 256 0 224 0 l 530 0 q 611 15 581 0 q 657 53 642 31 q 677 103 673 76 q 682 153 682 130 l 682 977 q 661 972 669 977 q 650 959 653 968 q 646 934 646 949 q 645 896 645 919 l 645 186 q 637 114 645 143 q 610 67 629 85 q 562 42 591 50 q 490 35 532 35 l 387 35 q 353 40 374 35 q 310 61 331 45 q 274 106 289 77 q 258 184 258 135 l 258 977 q 186 968 216 977 q 138 941 157 960 q 112 891 120 922 q 104 814 104 860 l 104 153 m 395 1225 q 438 1207 424 1222 q 464 1168 453 1192 q 488 1116 474 1145 q 522 1055 502 1086 q 576 991 543 1023 l 555 991 q 494 1040 525 1022 q 436 1071 464 1059 q 386 1094 409 1084 q 349 1118 363 1103 q 337 1137 341 1126 q 332 1161 332 1149 q 335 1186 331 1174 q 349 1208 339 1198 q 395 1225 367 1227 z "},"":{"ha":324,"x_min":68,"x_max":220,"o":"m 220 157 q 213 83 220 113 q 189 35 206 53 q 142 8 172 16 q 68 0 113 0 l 68 597 q 76 674 68 643 q 102 724 84 705 q 149 751 120 743 q 220 760 178 760 l 220 157 z "},"":{"ha":517,"x_min":68,"x_max":449,"o":"m 449 854 l 258 980 l 68 854 l 204 1035 q 225 1053 214 1050 q 258 1055 237 1055 l 259 1055 q 291 1053 279 1055 q 313 1035 303 1050 l 449 854 z "},"":{"ha":604,"x_min":103,"x_max":506,"o":"m 110 919 q 144 955 124 941 q 187 973 164 968 q 234 975 210 978 q 280 960 258 971 q 330 940 305 947 q 387 933 355 933 q 444 944 418 935 q 490 977 469 954 q 494 939 506 956 q 469 909 484 924 q 439 883 454 894 q 378 864 412 865 q 319 879 345 863 q 290 897 304 887 q 262 914 276 906 q 233 927 248 922 q 199 932 218 932 q 149 917 169 932 q 110 881 128 903 q 104 900 104 891 q 110 919 103 909 z "},"":{"ha":498,"x_min":68,"x_max":431,"o":"m 68 936 q 72 961 68 952 q 85 972 76 969 q 111 976 95 976 q 150 976 126 976 l 431 976 q 427 951 431 960 q 413 940 422 943 q 388 936 404 937 q 349 936 372 936 l 68 936 z "},"":{"ha":370,"x_min":104,"x_max":336,"o":"m 336 965 q 332 928 336 948 q 315 889 328 907 q 279 860 302 871 q 218 848 256 848 q 158 860 180 848 q 123 890 135 872 q 107 928 111 908 q 104 965 104 949 l 141 965 q 144 937 141 951 q 155 912 146 924 q 178 895 163 901 q 218 888 193 888 q 260 895 244 888 q 284 913 276 902 q 296 938 293 924 q 298 965 298 952 l 336 965 z "},"":{"ha":774,"x_min":294,"x_max":471,"o":"m 381 1002 q 445 975 418 1002 q 471 912 471 948 q 445 849 471 875 q 381 823 419 823 q 319 849 344 823 q 294 912 294 875 q 320 975 294 948 q 381 1002 346 1002 z "},"":{"ha":439,"x_min":104,"x_max":336,"o":"m 336 1152 q 332 1115 336 1135 q 315 1077 328 1095 q 279 1048 302 1060 q 218 1037 256 1037 q 158 1049 180 1037 q 123 1078 135 1061 q 107 1115 111 1095 q 104 1152 104 1135 l 104 1154 q 107 1190 104 1170 q 123 1229 111 1211 q 158 1259 135 1246 q 218 1271 180 1271 q 279 1259 256 1271 q 315 1229 302 1247 q 332 1190 328 1211 q 336 1152 336 1169 m 298 1154 q 296 1180 298 1166 q 284 1205 293 1194 q 260 1224 276 1217 q 218 1231 244 1231 q 178 1224 193 1231 q 155 1206 163 1217 q 144 1181 146 1195 q 141 1154 141 1168 q 143 1127 141 1141 q 154 1101 146 1113 q 177 1082 162 1089 q 218 1074 193 1074 q 261 1082 245 1074 q 286 1101 277 1089 q 296 1127 294 1113 q 298 1154 298 1141 z "},"":{"ha":641,"x_min":104,"x_max":537,"o":"m 267 0 q 271 -30 267 -20 q 283 -44 275 -39 q 306 -51 292 -50 q 339 -54 319 -52 q 368 -53 353 -54 q 398 -54 384 -52 q 445 -68 420 -56 q 490 -98 469 -79 q 524 -140 511 -116 q 537 -191 537 -163 q 525 -240 537 -217 q 494 -280 513 -263 q 449 -308 474 -298 q 395 -319 423 -318 l 390 -319 l 245 -319 q 171 -303 199 -318 q 128 -266 142 -288 q 109 -218 113 -243 q 104 -171 104 -193 l 145 -171 q 179 -258 149 -231 q 271 -286 208 -286 q 330 -272 306 -286 q 368 -237 355 -258 q 384 -193 382 -217 q 376 -148 386 -169 q 345 -110 366 -126 q 289 -90 323 -94 q 253 -83 264 -88 q 236 -67 241 -77 q 232 -42 232 -58 q 233 -2 233 -26 l 233 0 l 267 0 z "},"":{"ha":526,"x_min":20,"x_max":435,"o":"m 201 1031 q 248 1013 230 1033 q 262 991 258 1004 q 265 967 266 979 q 260 943 264 954 q 248 923 256 931 q 211 899 234 909 q 160 877 188 889 q 102 846 133 864 q 41 797 72 827 l 20 797 q 75 860 54 828 q 109 921 95 892 q 133 974 123 950 q 159 1013 144 998 q 201 1031 173 1027 m 370 1031 q 417 1013 399 1033 q 431 991 427 1004 q 434 967 435 979 q 429 943 433 954 q 417 923 425 931 q 380 899 403 909 q 329 877 357 889 q 271 846 302 864 q 210 797 241 827 l 189 797 q 243 860 223 828 q 278 921 264 892 q 302 974 292 950 q 328 1013 313 998 q 370 1031 342 1027 z "},"":{"ha":641,"x_min":104,"x_max":537,"o":"m 408 0 l 408 -2 q 409 -42 408 -26 q 405 -67 409 -58 q 388 -83 400 -77 q 352 -90 376 -88 q 296 -110 318 -94 q 265 -148 275 -126 q 257 -193 255 -169 q 273 -237 259 -217 q 311 -272 286 -258 q 370 -286 335 -286 q 462 -258 433 -286 q 496 -171 492 -231 l 537 -171 q 532 -218 537 -193 q 513 -266 528 -243 q 470 -303 498 -288 q 395 -319 442 -318 l 251 -319 l 245 -319 q 192 -308 218 -318 q 147 -280 167 -298 q 116 -240 127 -263 q 104 -191 104 -217 q 117 -140 104 -163 q 151 -98 130 -116 q 196 -68 172 -79 q 243 -54 220 -56 q 273 -53 257 -52 q 302 -54 288 -54 q 335 -51 321 -52 q 357 -44 349 -50 q 370 -30 366 -39 q 374 0 374 -20 l 408 0 z "},"":{"ha":517,"x_min":68,"x_max":449,"o":"m 313 873 q 291 856 303 858 q 259 853 279 853 l 258 853 q 225 856 237 853 q 204 873 214 858 l 68 1054 l 258 928 l 449 1054 l 313 873 z "},"":{"ha":731,"x_min":-1,"x_max":640,"o":"m 245 34 l 359 34 q 460 57 416 34 q 537 117 505 79 q 585 203 568 155 q 602 305 602 252 l 602 374 l 640 374 l 640 151 q 627 93 640 120 q 594 44 615 65 q 546 12 574 24 q 488 0 519 0 l 90 0 l 90 381 l -1 333 l -1 394 l 90 441 l 90 814 q 98 890 90 859 q 125 941 106 922 q 173 968 143 960 q 245 976 202 976 l 245 521 l 349 574 l 349 518 l 245 463 l 245 34 z "},"":{"ha":350,"x_min":0,"x_max":350,"o":"m 0 394 l 97 444 l 97 817 q 105 893 97 862 q 131 943 113 924 q 178 970 149 962 q 250 979 208 979 l 250 523 l 350 574 l 350 518 l 250 465 l 250 185 q 250 125 250 157 q 258 66 250 93 q 284 22 266 39 q 340 4 303 4 q 342 2 342 4 q 340 0 342 0 l 248 0 q 165 12 195 0 q 120 44 135 24 q 101 93 104 65 q 97 152 97 121 l 97 384 l 0 333 l 0 394 z "},"":{"ha":772,"x_min":68,"x_max":705,"o":"m 68 374 l 68 151 q 80 93 68 120 q 113 44 92 65 q 161 12 134 24 q 220 0 189 0 l 482 0 q 650 62 595 0 q 705 240 705 123 l 705 300 q 691 380 705 345 q 656 443 678 416 q 605 490 633 470 q 544 526 576 510 q 480 554 512 542 q 420 579 448 567 q 312 633 352 608 q 252 683 273 659 q 225 731 231 707 q 220 779 220 755 q 227 851 220 822 q 252 897 234 880 q 299 923 269 915 q 374 930 328 930 l 383 930 q 478 910 435 930 q 553 857 521 890 q 604 779 585 823 q 626 684 623 734 l 665 684 l 665 813 q 653 872 665 844 q 620 920 641 899 q 571 952 600 941 q 512 964 543 964 l 275 964 q 186 952 222 964 q 127 919 150 939 q 92 873 104 899 q 75 822 80 848 q 69 771 70 795 q 68 730 68 747 q 72 687 68 709 q 81 644 75 665 q 98 603 87 623 q 122 569 108 584 q 185 516 149 541 q 261 472 221 492 q 342 434 301 452 q 419 401 382 417 q 472 374 448 388 q 514 340 496 359 q 543 294 532 320 q 553 231 553 267 l 553 184 q 545 119 553 147 q 519 71 537 90 q 472 43 501 52 q 399 33 442 33 l 349 33 q 248 56 293 33 q 171 116 203 79 q 123 203 140 154 q 106 306 106 252 l 106 374 l 68 374 m 437 1076 q 416 1058 428 1060 q 384 1055 404 1055 l 382 1055 q 350 1058 362 1055 q 329 1076 338 1060 l 193 1256 l 383 1131 l 574 1256 l 437 1076 z "},"":{"ha":694,"x_min":68,"x_max":627,"o":"m 218 747 l 458 747 q 536 732 509 747 q 576 694 564 717 q 592 645 589 671 q 594 597 594 619 l 594 547 l 553 547 q 533 614 547 583 q 495 666 518 644 q 440 701 471 688 q 370 713 408 713 l 331 713 q 261 707 289 713 q 217 684 233 700 q 193 643 200 669 q 186 580 186 618 q 202 530 186 551 q 247 493 219 509 q 310 465 275 477 q 384 443 346 453 q 458 423 421 433 q 525 401 494 413 q 565 379 547 393 q 597 347 584 366 q 619 306 611 328 q 627 259 627 283 l 627 151 q 615 93 627 120 q 582 44 603 65 q 534 12 562 24 q 475 0 506 0 l 260 0 q 172 9 209 0 q 113 41 136 19 q 79 98 90 62 q 68 184 68 133 l 68 249 l 106 249 l 106 184 q 115 113 106 142 q 141 66 123 84 q 188 41 159 49 q 260 34 217 34 l 354 34 q 426 39 397 34 q 473 59 455 44 q 499 100 491 74 q 507 168 507 125 l 507 184 q 488 240 507 218 q 438 276 469 261 q 368 300 407 290 q 287 321 328 310 q 207 347 246 332 q 137 384 168 361 q 87 442 106 408 q 68 528 68 477 l 68 597 q 80 655 68 628 q 112 703 92 683 q 160 735 132 724 q 218 747 187 747 m 410 876 q 389 858 401 861 q 357 856 377 856 l 355 856 q 323 858 335 856 q 302 876 311 861 l 165 1057 l 356 931 l 547 1057 l 410 876 z "},"":{"ha":799,"x_min":68,"x_max":736,"o":"m 555 930 l 368 930 q 273 910 316 930 q 198 857 230 890 q 148 778 167 823 q 126 683 130 733 l 87 683 l 87 813 q 99 872 87 844 q 132 920 111 899 q 180 952 153 941 q 239 964 208 964 l 736 964 l 246 33 l 450 33 q 551 56 506 33 q 628 117 596 79 q 676 204 659 155 q 692 306 692 254 l 692 374 l 731 374 l 731 152 q 719 93 731 121 q 687 44 707 65 q 638 12 666 24 q 579 0 610 0 l 68 0 l 555 930 m 465 1075 q 443 1057 455 1059 q 411 1055 431 1055 l 410 1055 q 377 1057 389 1055 q 356 1075 366 1059 l 220 1255 l 410 1130 l 601 1255 l 465 1075 z "},"":{"ha":718,"x_min":63,"x_max":650,"o":"m 650 747 l 187 747 q 140 742 156 747 q 116 726 123 736 q 108 698 109 715 q 107 659 107 682 l 107 547 l 146 547 l 146 564 q 155 634 146 606 q 181 681 163 663 q 228 706 199 699 q 300 714 258 714 l 467 714 l 63 0 l 498 0 q 579 15 549 0 q 625 53 609 31 q 646 102 641 76 q 650 151 650 129 l 650 248 l 611 248 l 611 153 q 603 99 611 121 q 577 61 595 76 q 530 40 559 47 q 458 33 500 33 l 245 33 l 650 747 m 425 873 q 403 856 415 858 q 371 853 391 853 l 370 853 q 337 856 349 853 q 316 873 326 858 l 180 1054 l 370 928 l 561 1054 l 425 873 z "},"":{"ha":342,"x_min":92,"x_max":245,"o":"m 245 623 q 238 549 245 579 q 213 499 231 518 q 166 473 196 481 q 92 465 137 465 l 92 814 q 100 891 92 860 q 126 942 108 922 q 173 969 144 961 q 245 977 202 977 l 245 623 m 245 -78 q 238 -153 245 -122 q 213 -202 231 -183 q 166 -229 196 -220 q 92 -237 137 -237 l 92 113 q 100 190 92 159 q 126 240 108 221 q 173 268 144 260 q 245 276 202 276 l 245 -78 z "},"":{"ha":890,"x_min":0,"x_max":786,"o":"m 0 470 q 4 495 0 486 q 18 507 8 503 q 43 510 27 510 q 82 510 58 510 l 412 510 q 408 486 412 494 q 394 474 404 477 q 369 470 385 471 q 330 470 353 470 l 0 470 m 250 930 l 250 35 l 516 35 q 570 47 548 37 q 606 75 592 57 q 626 119 620 92 q 632 183 632 146 l 632 782 q 606 893 632 856 q 516 930 580 930 l 250 930 m 95 876 q 96 925 95 907 q 104 951 97 943 q 128 963 111 960 q 176 965 144 965 l 632 965 q 691 953 663 965 q 741 920 720 941 q 774 871 762 899 q 786 812 786 844 l 786 153 q 774 94 786 121 q 741 45 762 66 q 691 12 720 24 q 632 0 663 0 l 95 0 l 95 876 z "},"":{"ha":729,"x_min":68,"x_max":625,"o":"m 218 0 q 160 12 187 0 q 112 45 132 24 q 80 94 92 66 q 68 154 68 122 l 68 532 q 80 591 68 563 q 112 640 92 619 q 160 674 132 661 q 218 686 187 686 l 424 686 l 353 804 l 258 778 q 234 779 243 774 q 218 804 224 784 l 336 834 l 292 910 q 280 928 288 917 q 260 949 272 939 q 235 967 249 960 q 205 975 221 975 q 226 975 212 975 q 257 975 241 975 q 289 975 273 975 q 313 975 304 975 q 355 969 334 973 q 396 954 376 964 q 434 927 416 944 q 468 884 452 911 l 475 871 l 552 893 q 581 894 568 897 q 600 868 593 891 l 492 841 l 593 666 q 620 601 614 634 q 625 532 625 567 l 625 154 q 613 94 625 122 q 579 45 600 66 q 530 12 558 24 q 471 0 503 0 l 218 0 m 344 34 q 443 72 414 34 q 471 188 471 111 l 471 498 q 465 565 471 536 q 443 612 458 593 q 403 640 427 631 q 344 649 379 649 q 247 612 275 649 q 218 498 218 576 l 218 188 q 247 72 218 111 q 344 34 275 34 z "},"":{"ha":735,"x_min":0,"x_max":735,"o":"m 281 462 l 77 894 q 63 919 71 907 q 47 940 56 931 q 27 955 39 949 q 1 961 16 961 q 0 962 0 961 q 1 964 0 964 l 77 964 q 132 962 108 964 q 176 952 157 960 q 213 925 196 943 q 244 876 229 907 l 410 522 l 617 919 q 647 953 629 943 q 694 964 664 964 l 734 964 q 735 962 735 964 q 734 961 735 961 q 695 951 710 961 q 669 919 680 942 l 435 475 l 435 162 q 427 86 435 117 q 401 36 419 55 q 353 8 382 17 q 281 0 323 0 l 281 462 m 433 1231 q 479 1213 461 1233 q 493 1192 489 1204 q 496 1167 497 1179 q 491 1143 496 1154 q 479 1123 487 1131 q 442 1099 465 1109 q 392 1077 419 1089 q 334 1046 364 1064 q 273 997 303 1027 l 252 997 q 306 1060 286 1028 q 340 1121 326 1092 q 365 1174 354 1150 q 390 1213 375 1198 q 433 1231 404 1227 z "},"":{"ha":615,"x_min":-34,"x_max":615,"o":"m -32 747 l 32 747 q 98 741 71 747 q 144 719 125 734 q 176 682 163 705 q 199 627 189 659 l 350 151 l 532 715 q 547 742 539 736 q 572 747 555 747 l 612 747 q 615 746 615 747 q 612 745 615 745 q 583 736 593 745 q 567 707 574 727 l 309 -109 q 285 -166 299 -144 q 254 -202 271 -189 q 218 -220 237 -215 q 180 -225 199 -225 l 166 -225 q 86 -211 116 -226 q 40 -173 56 -196 q 19 -124 24 -151 q 13 -75 14 -97 q 29 -75 22 -75 q 40 -80 36 -76 q 48 -91 45 -83 q 53 -111 51 -98 q 91 -173 62 -153 q 178 -191 120 -193 q 246 -155 221 -190 q 287 -61 271 -121 l 303 -7 q 281 4 293 -3 q 259 22 270 11 q 238 51 248 34 q 220 93 228 68 l 31 685 q 21 711 26 700 q 10 730 16 722 q -6 742 3 738 q -32 745 -16 745 q -34 746 -34 745 q -32 747 -34 747 m 345 1023 q 392 1006 374 1025 q 406 984 401 996 q 409 959 410 972 q 404 935 408 947 q 392 916 399 924 q 355 891 378 901 q 304 869 332 882 q 246 838 277 857 q 185 789 216 820 l 164 789 q 218 852 198 821 q 253 913 239 884 q 277 966 267 943 q 302 1005 288 990 q 345 1023 317 1020 z "},"":{"ha":842,"x_min":104,"x_max":739,"o":"m 589 733 q 647 721 620 733 q 694 688 674 709 q 727 640 715 667 q 739 581 739 612 l 739 403 q 727 344 739 372 q 694 296 715 317 q 647 263 674 275 q 588 251 619 251 l 256 251 l 256 157 q 249 83 256 113 q 225 35 242 53 q 178 8 208 16 q 104 0 149 0 l 104 819 q 111 893 104 863 q 135 942 117 924 q 181 968 152 960 q 256 977 211 977 l 256 733 l 589 733 m 256 699 l 256 286 l 434 286 q 506 293 476 286 q 554 318 535 300 q 581 365 572 336 q 589 435 589 393 l 589 547 q 581 619 589 590 q 554 665 572 648 q 506 691 535 683 q 434 699 476 699 l 256 699 z "},"":{"ha":729,"x_min":68,"x_max":625,"o":"m 221 977 l 221 746 l 475 746 q 533 734 505 746 q 581 702 560 722 q 613 653 602 681 q 625 594 625 625 l 625 151 q 613 92 625 119 q 581 43 602 64 q 533 11 560 23 q 475 -1 505 -1 l 221 -1 l 221 -71 q 213 -148 221 -117 q 187 -197 205 -178 q 140 -224 169 -216 q 68 -233 111 -233 l 68 815 q 76 891 68 861 q 102 941 83 922 q 149 968 120 960 q 221 977 178 977 m 221 33 l 321 33 q 393 41 364 33 q 441 66 422 49 q 467 113 459 84 q 475 184 475 142 l 475 561 q 446 675 475 638 q 349 711 418 711 q 251 676 280 711 q 221 568 222 642 l 221 33 z "},"":{"ha":792,"x_min":102,"x_max":680,"o":"m 102 336 q 106 361 102 353 q 120 373 111 370 q 145 376 130 376 q 184 376 161 376 l 680 376 q 676 352 680 360 q 663 340 672 344 q 637 337 653 337 q 598 336 621 336 l 102 336 z "},"":{"ha":498,"x_min":44,"x_max":467,"o":"m 65 136 q 51 156 54 147 q 52 174 47 165 q 67 194 56 183 q 95 222 79 205 l 226 353 l 89 489 q 62 518 73 506 q 48 539 52 530 q 48 558 44 549 q 63 579 52 568 l 258 385 l 449 576 q 464 556 460 564 q 462 538 467 547 q 447 517 458 529 q 419 490 435 506 l 286 357 l 416 227 q 443 198 432 210 q 457 176 453 186 q 457 157 460 166 q 442 136 453 148 l 254 324 l 65 136 z "},"":{"ha":260,"x_min":17,"x_max":193,"o":"m 193 977 l 193 570 q 188 520 193 541 q 172 488 184 500 q 141 471 161 476 q 91 465 121 465 l 91 890 l 49 811 l 17 811 l 90 949 q 110 970 98 964 q 143 977 121 977 l 193 977 z "},"":{"ha":477,"x_min":34,"x_max":409,"o":"m 309 964 q 346 957 328 964 q 376 937 363 949 q 396 906 389 924 q 404 870 404 889 l 404 832 q 395 778 404 800 q 374 738 387 755 q 342 707 360 721 q 302 677 323 692 l 192 609 q 175 592 182 602 q 161 569 167 581 q 153 544 156 557 q 151 519 151 531 l 151 488 l 289 488 q 363 509 342 488 q 385 582 385 530 l 385 585 l 409 585 l 409 561 q 406 531 409 547 q 393 500 403 515 q 365 477 383 486 q 315 467 346 467 l 34 467 l 34 524 q 54 606 34 570 q 109 667 74 642 l 216 744 q 251 770 234 758 q 280 796 268 783 q 300 823 293 809 q 308 851 308 836 l 308 860 q 294 922 308 903 q 244 943 279 940 l 199 943 q 121 914 151 943 q 85 840 92 885 l 59 840 l 59 870 q 61 901 59 884 q 70 931 62 918 q 95 955 78 945 q 143 964 112 964 l 309 964 z "},"":{"ha":471,"x_min":34,"x_max":403,"o":"m 218 492 q 285 515 266 492 q 304 590 304 538 l 304 618 q 298 665 304 646 q 281 695 293 684 q 250 712 269 707 q 203 717 231 717 l 140 718 l 140 739 l 203 739 q 250 744 231 739 q 281 761 269 749 q 298 792 293 772 q 304 839 304 811 l 304 843 q 298 890 304 871 q 281 920 293 909 q 250 937 269 932 q 203 942 231 942 l 191 942 q 112 910 142 941 q 75 832 83 879 l 48 832 l 48 865 q 50 897 48 879 q 60 929 52 914 q 86 954 68 944 q 137 964 104 964 l 303 964 q 341 957 323 964 q 372 935 359 949 q 393 903 385 922 q 400 865 400 885 l 400 816 q 386 764 400 787 q 348 728 372 741 q 388 692 372 716 q 403 640 403 668 l 403 568 q 395 530 403 548 q 374 498 387 511 q 342 476 360 484 q 303 469 323 469 l 133 469 q 95 476 113 469 q 63 498 77 484 q 42 530 50 511 q 34 568 34 548 l 34 653 l 59 653 q 74 592 61 621 q 107 541 86 563 q 156 505 127 518 q 218 492 184 492 z "},"":{"ha":914,"x_min":34,"x_max":846,"o":"m 218 492 q 156 505 184 492 q 107 541 127 518 q 74 592 86 563 q 59 653 61 621 l 34 653 l 34 568 q 42 530 34 548 q 63 498 50 511 q 95 476 77 484 q 133 469 113 469 l 303 469 q 342 476 323 469 q 374 498 360 484 q 395 530 387 511 q 403 568 403 548 l 403 640 q 388 692 403 668 q 348 728 372 716 q 386 764 372 741 q 400 816 400 787 l 400 864 q 393 903 400 884 q 372 935 385 921 q 341 956 359 948 q 303 964 323 964 l 137 964 q 86 954 104 964 q 60 928 68 943 q 50 896 52 913 q 48 864 48 878 l 48 831 l 75 831 q 112 909 83 878 q 191 941 142 940 l 203 941 q 250 936 231 941 q 281 920 269 931 q 298 889 293 908 q 304 842 304 870 l 304 838 q 298 791 304 810 q 281 761 293 772 q 250 744 269 749 q 203 739 231 739 l 140 739 l 140 718 l 203 717 q 250 712 231 717 q 281 695 269 707 q 298 665 293 684 q 304 618 304 646 l 304 590 q 285 515 304 538 q 218 492 266 492 m 763 952 q 780 977 772 969 q 796 988 787 985 q 817 990 805 991 q 846 990 829 990 l 241 34 q 224 7 231 16 q 208 -7 217 -3 q 186 -13 199 -12 q 152 -14 173 -14 l 763 952 m 836 149 l 787 149 l 787 81 q 760 19 787 37 q 686 1 732 1 l 686 149 l 489 149 l 489 169 l 697 475 q 714 492 705 487 q 738 497 722 497 l 787 497 l 787 169 l 836 169 l 836 149 m 512 169 l 686 169 l 686 425 l 512 169 z "},"":{"ha":1139,"x_min":104,"x_max":1139,"o":"m 258 931 l 258 511 l 310 511 q 367 521 338 511 q 418 553 395 532 q 456 607 441 574 q 475 682 472 639 l 505 682 l 505 315 l 475 315 q 454 386 471 355 q 415 436 438 416 q 365 467 392 456 q 310 477 337 477 l 258 477 l 258 159 q 251 84 258 114 q 226 35 243 54 q 179 8 208 16 q 104 0 149 0 l 104 876 q 105 927 104 909 q 114 954 106 945 q 137 963 121 962 q 182 964 153 964 l 608 964 q 654 961 637 964 q 677 948 670 958 q 686 921 685 938 q 688 876 688 903 l 688 684 l 648 684 l 648 781 q 640 851 648 823 q 614 898 632 880 q 567 923 596 916 q 495 931 538 931 l 258 931 m 1139 546 l 1139 602 q 1134 659 1138 632 q 1117 705 1129 685 q 1082 736 1104 724 q 1025 747 1061 747 l 882 747 q 810 739 840 747 q 763 712 781 731 q 737 662 745 693 q 729 585 729 631 l 729 0 q 804 8 774 0 q 851 35 833 16 q 875 84 868 54 q 882 158 882 114 l 882 602 q 904 676 882 647 q 966 705 926 705 q 1017 691 994 705 q 1055 655 1039 677 q 1082 604 1072 633 q 1097 546 1093 575 l 1139 546 z "},"":{"ha":826,"x_min":104,"x_max":758,"o":"m 254 964 q 191 952 218 964 q 143 920 163 941 q 114 872 124 899 q 104 813 104 844 l 104 152 q 116 93 104 121 q 148 45 127 66 q 196 12 168 24 q 254 0 223 0 l 608 0 q 666 12 639 0 q 714 45 694 24 q 746 93 734 66 q 758 152 758 121 l 758 376 q 754 414 758 401 q 742 433 751 427 q 717 441 732 439 q 678 442 701 442 l 477 442 l 477 408 l 609 408 l 609 185 q 601 114 609 143 q 574 67 593 85 q 526 42 555 50 q 454 34 496 34 l 408 34 q 336 42 366 34 q 289 67 307 50 q 262 114 271 85 q 254 185 254 143 l 254 780 q 262 851 254 823 q 289 898 271 880 q 336 923 307 916 q 408 930 366 930 l 454 930 q 549 910 506 930 q 624 857 592 890 q 674 778 655 823 q 696 684 693 733 l 734 684 l 734 813 q 723 872 734 844 q 690 920 711 899 q 643 952 670 941 q 584 964 615 964 l 254 964 m 548 1173 q 544 1136 548 1156 q 527 1098 540 1116 q 492 1068 515 1080 q 431 1056 469 1056 q 370 1068 393 1056 q 335 1098 347 1080 q 320 1137 323 1116 q 316 1173 316 1157 l 353 1173 q 356 1145 353 1159 q 367 1121 359 1132 q 390 1103 375 1109 q 431 1096 406 1096 q 472 1103 456 1096 q 497 1121 488 1110 q 508 1146 505 1133 q 511 1173 511 1160 l 548 1173 z "},"":{"ha":732,"x_min":68,"x_max":629,"o":"m 68 -70 q 73 -118 68 -92 q 92 -166 77 -144 q 135 -204 107 -189 q 211 -219 163 -219 l 473 -219 q 540 -212 511 -219 q 589 -189 569 -205 q 618 -146 608 -172 q 629 -81 629 -119 l 629 747 l 211 747 q 153 735 180 747 q 108 703 127 724 q 78 655 89 682 q 68 597 68 627 l 68 151 q 79 93 68 120 q 110 45 90 66 q 155 12 129 24 q 211 0 181 0 l 473 0 l 473 -81 q 434 -162 473 -139 q 323 -185 395 -185 l 261 -185 q 195 -179 223 -185 q 149 -159 168 -173 q 121 -124 131 -146 q 108 -70 111 -102 l 68 -70 m 347 35 q 248 71 277 35 q 218 183 218 106 l 218 562 q 227 634 218 605 q 253 680 235 663 q 301 706 271 698 q 373 713 330 713 l 473 713 l 473 183 q 445 71 473 106 q 347 35 416 35 m 490 964 q 486 926 490 947 q 469 888 481 906 q 433 858 456 870 q 372 846 410 846 q 312 859 334 846 q 277 889 289 871 q 261 927 265 907 q 258 964 258 947 l 295 964 q 298 936 295 949 q 309 911 300 922 q 332 893 317 900 q 372 886 347 886 q 414 893 398 886 q 438 912 430 901 q 450 937 447 923 q 452 964 452 951 l 490 964 z "},"":{"ha":772,"x_min":68,"x_max":705,"o":"m 220 0 q 161 12 189 0 q 113 44 134 24 q 80 93 92 65 q 68 151 68 120 l 68 374 l 106 374 l 106 306 q 123 203 106 252 q 171 116 140 154 q 248 56 203 79 q 349 33 293 33 l 399 33 q 472 43 442 33 q 519 71 501 52 q 545 119 537 90 q 553 184 553 147 l 553 231 q 543 294 553 267 q 514 340 532 320 q 472 374 496 359 q 419 401 448 388 q 342 434 382 417 q 261 472 301 452 q 185 516 221 492 q 122 569 149 541 q 98 603 108 584 q 81 644 87 623 q 72 687 75 665 q 68 730 68 709 q 69 771 68 747 q 75 822 70 795 q 92 873 80 848 q 127 919 104 899 q 186 952 150 939 q 275 964 222 964 l 512 964 q 571 952 543 964 q 620 920 600 941 q 653 872 641 899 q 665 813 665 844 l 665 684 l 626 684 q 604 779 623 734 q 553 857 585 823 q 478 910 521 890 q 383 930 435 930 l 374 930 q 299 923 328 930 q 252 897 269 915 q 227 851 234 880 q 220 779 220 822 q 225 731 220 755 q 252 683 231 707 q 312 633 273 659 q 420 579 352 608 q 480 554 448 567 q 544 526 512 542 q 605 490 576 510 q 656 443 633 470 q 691 380 678 416 q 705 300 705 345 l 705 240 q 650 62 705 123 q 482 0 595 0 l 333 0 q 337 -30 333 -20 q 349 -44 340 -39 q 372 -51 358 -50 q 405 -54 385 -52 q 434 -53 418 -54 q 464 -54 450 -52 q 511 -68 486 -56 q 556 -98 535 -79 q 590 -140 576 -116 q 603 -191 603 -163 q 591 -240 603 -217 q 559 -280 579 -263 q 514 -308 540 -298 q 461 -319 489 -318 l 311 -319 q 236 -303 264 -318 q 194 -266 208 -288 q 174 -218 179 -243 q 170 -171 170 -193 l 211 -171 q 244 -258 215 -231 q 336 -286 274 -286 q 396 -272 372 -286 q 434 -237 420 -258 q 450 -193 448 -217 q 442 -148 452 -169 q 410 -110 432 -126 q 355 -90 389 -94 q 318 -83 330 -88 q 302 -67 307 -77 q 298 -42 298 -58 q 298 -2 298 -26 l 298 0 l 220 0 z "},"":{"ha":694,"x_min":68,"x_max":627,"o":"m 294 0 q 298 -30 294 -20 q 311 -44 302 -39 q 333 -51 319 -50 q 366 -54 347 -52 q 395 -53 380 -54 q 425 -54 411 -52 q 472 -68 448 -56 q 517 -98 496 -79 q 551 -140 538 -116 q 564 -191 564 -163 q 552 -240 564 -217 q 521 -280 541 -263 q 476 -308 501 -298 q 422 -319 450 -318 l 273 -319 q 198 -303 226 -318 q 155 -266 170 -288 q 136 -218 140 -243 q 131 -171 131 -193 l 172 -171 q 206 -258 176 -231 q 298 -286 235 -286 q 357 -272 333 -286 q 395 -237 382 -258 q 411 -193 409 -217 q 403 -148 413 -169 q 372 -110 393 -126 q 316 -90 350 -94 q 280 -83 292 -88 q 263 -67 268 -77 q 259 -42 259 -58 q 260 -2 260 -26 l 260 0 q 172 9 209 0 q 113 41 136 19 q 79 98 90 62 q 68 184 68 133 l 68 249 l 106 249 l 106 184 q 115 113 106 142 q 141 66 123 84 q 188 41 159 49 q 260 34 217 34 l 354 34 q 426 39 397 34 q 473 59 455 44 q 499 100 491 74 q 507 168 507 125 l 507 184 q 488 240 507 218 q 438 276 469 261 q 368 300 407 290 q 287 321 328 310 q 207 347 246 332 q 137 384 168 361 q 87 442 106 408 q 68 528 68 477 l 68 597 q 80 655 68 628 q 112 703 92 683 q 160 735 132 724 q 218 747 187 747 l 458 747 q 536 732 509 747 q 576 694 564 717 q 592 645 589 671 q 594 597 594 619 l 594 547 l 553 547 q 533 614 547 583 q 495 666 518 644 q 440 701 471 688 q 370 713 408 713 l 331 713 q 261 707 289 713 q 217 684 233 700 q 193 643 200 669 q 186 580 186 618 q 202 530 186 551 q 247 493 219 509 q 310 465 275 477 q 384 443 346 453 q 458 423 421 433 q 525 401 494 413 q 565 379 547 393 q 597 347 584 366 q 619 306 611 328 q 627 259 627 283 l 627 151 q 615 93 627 120 q 582 44 603 65 q 534 12 562 24 q 475 0 506 0 l 294 0 z "},"":{"ha":798,"x_min":104,"x_max":730,"o":"m 562 964 q 621 952 593 964 q 669 920 648 941 q 702 871 690 899 q 714 812 714 844 l 714 683 l 675 683 q 652 792 671 746 q 604 869 633 839 q 537 915 574 900 q 460 930 500 930 l 409 930 q 339 922 368 930 q 291 896 310 913 q 264 849 273 878 q 255 780 255 821 l 255 184 q 264 114 255 143 q 291 67 273 85 q 339 41 310 50 q 409 33 368 33 l 460 33 q 543 51 501 33 q 617 103 584 68 q 671 188 650 137 q 692 305 692 239 l 692 373 l 730 373 l 730 151 q 718 93 730 120 q 685 44 706 65 q 637 12 665 24 q 578 0 610 0 l 255 0 q 196 12 224 0 q 148 44 169 24 q 116 93 127 65 q 104 151 104 120 l 104 812 q 116 871 104 844 q 148 920 127 899 q 196 952 169 941 q 255 964 224 964 l 562 964 m 473 1280 q 519 1263 501 1282 q 533 1241 529 1253 q 536 1216 537 1229 q 531 1192 536 1204 q 519 1173 527 1181 q 482 1148 505 1158 q 432 1126 459 1139 q 374 1095 404 1114 q 313 1046 343 1077 l 292 1046 q 346 1109 326 1078 q 380 1171 366 1141 q 405 1223 394 1200 q 430 1262 415 1247 q 473 1280 444 1277 z "},"":{"ha":662,"x_min":68,"x_max":594,"o":"m 553 547 q 532 613 548 583 q 490 665 515 643 q 432 700 465 688 q 361 713 399 713 q 295 705 322 713 q 251 679 268 697 q 226 632 234 661 q 218 562 218 604 l 218 184 q 226 113 218 142 q 252 66 234 84 q 300 41 271 49 q 372 34 330 34 l 404 34 q 474 42 446 34 q 520 67 503 50 q 546 114 538 85 q 553 184 553 142 l 553 249 l 594 249 l 594 152 q 589 103 594 130 q 569 53 585 76 q 523 15 553 31 q 442 0 492 0 l 220 0 q 162 12 190 0 q 114 44 135 24 q 80 93 93 65 q 68 152 68 120 l 68 595 q 80 654 68 627 q 114 703 93 682 q 163 735 136 724 q 220 747 190 747 l 442 747 q 523 732 492 747 q 569 694 553 717 q 589 645 585 671 q 594 595 594 618 l 594 547 l 553 547 m 372 1023 q 418 1006 400 1025 q 432 984 428 996 q 435 959 436 972 q 430 935 435 947 q 418 916 426 924 q 381 891 404 901 q 331 869 358 882 q 273 838 303 857 q 212 789 242 820 l 191 789 q 245 852 224 821 q 279 913 265 884 q 303 966 293 943 q 329 1005 314 990 q 372 1023 343 1020 z "},"":{"ha":798,"x_min":104,"x_max":730,"o":"m 255 964 q 196 952 224 964 q 148 920 169 941 q 116 871 127 899 q 104 812 104 844 l 104 151 q 116 93 104 120 q 148 44 127 65 q 196 12 169 24 q 255 0 224 0 l 578 0 q 637 12 610 0 q 685 44 665 24 q 718 93 706 65 q 730 151 730 120 l 730 373 l 692 373 l 692 305 q 671 188 692 239 q 617 103 650 137 q 543 51 584 68 q 460 33 501 33 l 409 33 q 339 41 368 33 q 291 67 310 50 q 264 114 273 85 q 255 184 255 143 l 255 780 q 264 849 255 821 q 291 896 273 878 q 339 922 310 913 q 409 930 368 930 l 460 930 q 537 915 500 930 q 604 869 574 900 q 652 792 633 839 q 675 683 671 746 l 714 683 l 714 812 q 702 871 714 844 q 669 920 690 899 q 621 952 648 941 q 562 964 593 964 l 255 964 m 477 1034 q 456 1016 468 1018 q 424 1013 444 1013 l 422 1013 q 390 1016 402 1013 q 369 1034 378 1018 l 233 1214 l 423 1088 l 614 1214 l 477 1034 z "},"":{"ha":662,"x_min":68,"x_max":594,"o":"m 594 547 l 594 595 q 589 645 594 618 q 569 694 585 671 q 523 732 553 717 q 442 747 492 747 l 220 747 q 163 735 190 747 q 114 703 136 724 q 80 654 93 682 q 68 595 68 627 l 68 152 q 80 93 68 120 q 114 44 93 65 q 162 12 135 24 q 220 0 190 0 l 442 0 q 523 15 492 0 q 569 53 553 31 q 589 103 585 76 q 594 152 594 130 l 594 249 l 553 249 l 553 184 q 546 114 553 142 q 520 67 538 85 q 474 42 503 50 q 404 34 446 34 l 372 34 q 300 41 330 34 q 252 66 271 49 q 226 113 234 84 q 218 184 218 142 l 218 562 q 226 632 218 604 q 251 679 234 661 q 295 705 268 697 q 361 713 322 713 q 432 700 399 713 q 490 665 465 688 q 532 613 515 643 q 553 547 548 583 l 594 547 m 408 877 q 386 859 398 861 q 354 857 374 857 l 353 857 q 320 859 332 857 q 299 877 309 861 l 163 1057 l 353 932 l 544 1057 l 408 877 z "},"":{"ha":555,"x_min":68,"x_max":452,"o":"m 68 366 q 72 390 68 382 q 85 402 76 399 q 111 406 95 406 q 150 406 126 406 l 452 406 q 448 381 452 389 q 434 370 444 373 q 409 366 425 366 q 370 366 393 366 l 68 366 z "},"$":{"ha":772,"x_min":68,"x_max":705,"o":"m 409 964 l 512 964 q 571 952 543 964 q 620 919 600 940 q 653 871 641 899 q 665 812 665 844 l 665 684 l 626 684 q 606 772 623 730 q 561 847 589 814 q 494 902 532 880 q 409 928 455 923 l 409 584 q 420 579 413 581 q 480 554 448 567 q 544 526 512 542 q 605 490 576 510 q 656 443 633 470 q 691 380 678 416 q 705 300 705 345 l 705 240 q 650 62 705 123 q 482 0 595 0 l 409 0 l 409 -60 q 408 -100 409 -84 q 402 -125 407 -115 q 389 -138 397 -134 q 363 -142 380 -142 l 363 0 l 220 0 q 161 12 189 0 q 113 44 134 24 q 80 93 92 65 q 68 151 68 120 l 68 374 l 106 374 l 106 306 q 123 203 106 252 q 171 116 140 154 q 248 56 203 79 q 349 33 293 33 l 363 33 l 363 425 q 297 454 331 439 q 232 487 264 469 q 172 525 201 505 q 122 569 144 545 q 98 603 108 584 q 81 644 87 623 q 72 687 75 665 q 68 730 68 709 q 69 771 68 747 q 75 821 70 795 q 92 872 80 847 q 127 918 104 898 q 186 951 150 939 q 275 964 222 964 l 363 964 l 363 974 q 365 1013 363 997 q 370 1038 366 1029 q 384 1052 374 1048 q 409 1056 393 1056 l 409 964 m 409 405 l 409 33 q 476 44 449 34 q 521 73 504 54 q 546 120 538 92 q 553 184 553 148 l 553 231 q 543 294 553 267 q 514 340 532 320 q 472 374 496 359 q 419 401 448 388 l 409 405 m 220 779 q 224 736 220 757 q 243 694 229 715 q 287 651 258 673 q 363 605 315 629 l 363 930 q 294 921 321 929 q 250 895 266 912 q 227 848 233 877 q 220 779 220 820 z "},"":{"ha":734,"x_min":68,"x_max":631,"o":"m 589 -1 l 592 41 q 542 11 572 22 q 464 0 511 0 l 224 0 l 222 -224 q 147 -216 177 -224 q 100 -189 117 -208 q 75 -140 82 -170 q 68 -66 68 -110 l 71 602 q 78 676 71 646 q 102 725 85 706 q 150 751 120 743 q 224 760 180 760 l 224 146 q 234 96 225 117 q 260 61 242 75 q 308 40 279 47 q 378 34 336 34 l 438 34 q 553 61 514 34 q 592 149 592 88 l 592 679 q 593 718 592 702 q 598 742 594 733 q 609 755 602 751 q 631 760 617 760 l 628 -81 q 607 -77 614 -81 q 595 -64 599 -73 q 590 -39 591 -55 q 589 -1 589 -24 z "},"%":{"ha":1102,"x_min":34,"x_max":1092,"o":"m 34 843 q 44 895 34 871 q 72 938 54 920 q 114 966 90 956 q 166 977 138 977 l 375 977 q 427 966 403 977 q 470 938 452 956 q 498 895 488 920 q 509 843 509 871 l 509 736 q 498 683 509 708 q 470 640 488 659 q 427 611 452 622 q 375 600 403 600 l 166 600 q 114 611 138 600 q 72 640 90 622 q 44 683 54 659 q 34 736 34 708 l 34 843 m 378 814 q 354 913 378 881 q 272 946 329 946 q 188 914 212 946 q 164 814 164 882 l 164 764 q 188 664 164 697 q 272 631 212 631 q 354 665 329 631 q 378 764 378 698 l 378 814 m 617 242 q 627 294 617 270 q 655 337 637 319 q 697 366 673 355 q 749 377 721 377 l 958 377 q 1010 366 986 377 q 1053 337 1035 355 q 1081 294 1071 319 q 1092 242 1092 270 l 1092 137 q 1081 84 1092 109 q 1053 41 1071 60 q 1010 12 1035 23 q 958 1 986 1 l 749 1 q 697 12 721 1 q 655 41 673 23 q 627 84 637 60 q 617 137 617 109 l 617 242 m 961 213 q 937 313 961 281 q 856 346 913 346 q 772 313 797 346 q 747 213 747 281 l 747 165 q 772 65 747 97 q 856 33 797 33 q 937 65 913 33 q 961 165 961 97 l 961 213 m 792 941 q 806 966 801 958 q 817 977 811 974 q 832 979 823 979 q 859 979 841 979 l 353 34 q 338 7 343 17 q 327 -7 334 -2 q 309 -13 320 -12 q 277 -14 298 -14 l 792 941 z "},"":{"ha":584,"x_min":0,"x_max":583,"o":"m 0 707 q 4 732 0 724 q 18 744 8 741 q 43 747 27 747 q 82 747 58 747 l 267 747 l 267 974 q 268 1013 267 997 q 274 1038 269 1029 q 287 1052 278 1048 q 313 1056 296 1056 l 313 747 l 583 747 q 579 723 583 731 q 566 711 575 715 q 540 708 556 708 q 501 707 524 707 l 313 707 l 313 -60 q 312 -100 313 -84 q 306 -125 311 -115 q 292 -138 301 -134 q 267 -142 283 -142 l 267 707 l 0 707 z "},"":{"ha":584,"x_min":1,"x_max":584,"o":"m 1 170 q 5 194 1 186 q 18 206 9 203 q 43 210 28 210 q 83 210 59 210 l 270 210 l 270 707 l 1 707 q 5 732 1 724 q 18 744 9 741 q 43 747 28 747 q 83 747 59 747 l 270 747 l 270 974 q 271 1013 270 997 q 276 1038 272 1029 q 290 1052 281 1048 q 315 1056 299 1056 l 315 747 l 584 747 q 580 723 584 731 q 566 711 576 715 q 541 708 557 708 q 502 707 525 707 l 315 707 l 315 210 l 584 210 q 580 185 584 193 q 566 174 576 177 q 541 170 557 170 q 502 170 525 170 l 315 170 l 315 -60 q 314 -100 315 -84 q 309 -125 313 -115 q 295 -138 304 -134 q 270 -142 286 -142 l 270 170 l 1 170 z "},"":{"ha":856,"x_min":68,"x_max":788,"o":"m 155 152 q 189 145 173 152 q 217 126 205 138 q 235 99 229 115 q 242 65 242 83 q 235 32 242 47 q 217 3 229 16 q 189 -16 205 -9 q 155 -23 173 -23 q 122 -16 138 -23 q 94 3 106 -9 q 75 32 82 16 q 68 65 68 47 q 75 98 68 83 q 94 126 82 114 q 122 145 106 138 q 155 152 138 152 m 429 152 q 462 145 446 152 q 489 126 477 138 q 508 99 501 115 q 515 65 515 83 q 508 32 515 47 q 489 3 501 16 q 462 -16 477 -9 q 429 -23 446 -23 q 395 -16 411 -23 q 367 3 379 -9 q 348 32 355 16 q 340 65 340 47 q 348 98 340 83 q 367 126 355 114 q 395 145 379 138 q 429 152 411 152 m 702 152 q 735 145 720 152 q 763 126 751 138 q 781 99 774 115 q 788 65 788 83 q 781 32 788 47 q 763 3 774 16 q 735 -16 751 -9 q 702 -23 720 -23 q 668 -16 684 -23 q 640 3 652 -9 q 621 32 628 16 q 614 65 614 47 q 621 98 614 83 q 640 126 628 114 q 668 145 652 138 q 702 152 684 152 z "},"":{"ha":1036,"x_min":-201,"x_max":968,"o":"m 341 375 l 85 375 l -100 35 q -130 7 -111 15 q -168 0 -149 0 l -199 0 q -201 1 -201 0 q -199 3 -201 3 q -166 13 -182 3 q -140 43 -150 24 l 326 896 q 332 911 329 902 q 341 928 334 920 q 362 945 349 937 q 402 958 376 954 q 421 961 410 960 q 445 962 432 962 q 470 963 457 963 q 496 964 484 964 l 861 964 q 908 962 892 964 q 931 951 924 960 q 940 924 939 942 q 941 876 941 907 l 941 683 l 903 683 l 903 779 q 895 851 903 822 q 869 898 887 880 q 821 923 850 916 q 749 930 791 930 l 496 930 l 496 511 l 549 511 q 605 522 577 511 q 656 554 633 532 q 695 607 680 575 q 714 683 711 640 l 743 683 l 743 315 l 714 315 q 692 385 709 355 q 653 435 676 415 q 603 465 630 455 q 549 476 576 475 l 496 476 l 496 33 l 686 33 q 788 56 743 33 q 864 116 833 79 q 913 203 896 154 q 930 306 930 253 l 930 374 l 968 374 l 968 151 q 956 92 968 119 q 923 44 944 64 q 875 12 903 24 q 816 0 847 0 l 342 0 l 341 375 m 341 410 l 343 859 l 104 410 l 341 410 m 442 1227 q 489 1210 471 1230 q 503 1188 498 1200 q 506 1163 507 1176 q 501 1139 505 1151 q 489 1120 496 1128 q 452 1096 475 1105 q 401 1073 429 1086 q 343 1042 374 1061 q 282 994 313 1024 l 261 994 q 315 1057 295 1025 q 350 1118 336 1088 q 374 1171 363 1147 q 399 1209 385 1194 q 442 1227 414 1224 z "},"":{"ha":368,"x_min":68,"x_max":300,"o":"m 254 159 q 247 84 254 115 q 223 35 240 54 q 176 8 205 16 q 101 0 146 0 l 101 814 q 109 891 101 860 q 135 942 117 922 q 182 969 153 961 q 254 977 212 977 l 254 159 m 300 1173 q 296 1136 300 1156 q 279 1098 292 1116 q 243 1068 267 1080 q 182 1056 220 1056 q 122 1068 144 1056 q 87 1098 99 1080 q 72 1137 75 1116 q 68 1173 68 1157 l 105 1173 q 108 1145 105 1159 q 119 1121 111 1132 q 142 1103 127 1109 q 182 1096 157 1096 q 224 1103 208 1096 q 249 1121 240 1110 q 260 1146 257 1133 q 262 1173 262 1160 l 300 1173 z "},"":{"ha":361,"x_min":96,"x_max":273,"o":"m 257 159 q 250 84 257 115 q 225 35 243 54 q 179 8 208 16 q 104 0 149 0 l 104 814 q 112 891 104 860 q 138 942 120 922 q 185 969 156 961 q 257 977 214 977 l 257 159 m 183 1234 q 247 1207 220 1234 q 273 1144 273 1180 q 247 1081 273 1107 q 183 1055 221 1055 q 121 1081 146 1055 q 96 1144 96 1107 q 122 1207 96 1180 q 183 1234 148 1234 z "},"":{"ha":812,"x_min":68,"x_max":744,"o":"m 590 481 l 222 481 l 222 165 q 213 78 222 111 q 186 28 205 45 q 138 5 168 11 q 68 0 109 0 l 68 811 q 222 977 68 977 l 222 515 l 590 515 l 590 812 q 744 977 590 977 l 744 165 q 735 78 744 111 q 708 28 727 45 q 661 5 690 11 q 590 0 631 0 l 590 481 m 601 997 l 410 1122 l 220 997 l 356 1177 q 377 1195 366 1193 q 410 1198 389 1198 l 411 1198 q 443 1195 431 1198 q 465 1177 455 1193 l 601 997 z "},"":{"ha":884,"x_min":104,"x_max":780,"o":"m 626 481 l 258 481 l 258 165 q 249 78 258 111 q 222 28 241 45 q 174 5 203 11 q 104 0 145 0 l 104 811 q 258 977 104 977 l 258 515 l 626 515 l 626 812 q 780 977 626 977 l 780 165 q 771 78 780 111 q 744 28 763 45 q 696 5 726 11 q 626 0 667 0 l 626 481 z "},"":{"ha":826,"x_min":104,"x_max":758,"o":"m 254 964 q 191 952 218 964 q 143 920 163 941 q 114 872 124 899 q 104 813 104 844 l 104 152 q 116 93 104 121 q 148 45 127 66 q 196 12 168 24 q 254 0 223 0 l 608 0 q 666 12 639 0 q 714 45 694 24 q 746 93 734 66 q 758 152 758 121 l 758 376 q 754 414 758 401 q 742 433 751 427 q 717 441 732 439 q 678 442 701 442 l 477 442 l 477 408 l 609 408 l 609 185 q 601 114 609 143 q 574 67 593 85 q 526 42 555 50 q 454 34 496 34 l 408 34 q 336 42 366 34 q 289 67 307 50 q 262 114 271 85 q 254 185 254 143 l 254 780 q 262 851 254 823 q 289 898 271 880 q 336 923 307 916 q 408 930 366 930 l 454 930 q 549 910 506 930 q 624 857 592 890 q 674 778 655 823 q 696 684 693 733 l 734 684 l 734 813 q 723 872 734 844 q 690 920 711 899 q 643 952 670 941 q 584 964 615 964 l 254 964 m 446 1234 q 509 1207 482 1234 q 536 1144 536 1180 q 510 1081 536 1107 q 446 1055 484 1055 q 383 1081 408 1055 q 358 1144 358 1107 q 384 1207 358 1180 q 446 1234 410 1234 z "},"":{"ha":769,"x_min":0,"x_max":774,"o":"m 143 1057 q 147 1081 143 1073 q 161 1093 151 1090 q 186 1097 170 1097 q 225 1097 201 1097 l 612 1097 q 608 1072 612 1080 q 594 1061 604 1064 q 569 1057 585 1057 q 530 1057 553 1057 l 143 1057 m 772 3 q 752 8 760 3 q 738 22 744 14 q 729 41 732 31 q 722 62 726 52 l 431 978 q 408 976 424 978 q 374 966 392 975 q 338 942 355 958 q 311 896 321 925 l 40 43 q 26 14 34 26 q 1 3 19 3 q 0 1 0 3 q 1 0 0 0 l 33 0 q 61 6 52 0 q 77 35 69 13 l 186 375 l 469 375 l 547 113 q 566 73 553 93 q 598 37 578 53 q 648 10 618 20 q 716 0 677 0 l 772 0 q 774 1 774 0 q 772 3 774 3 m 334 844 l 459 410 l 197 410 l 334 844 z "},"":{"ha":896,"x_min":104,"x_max":792,"o":"m 115 -93 q 146 -35 131 -64 q 178 22 162 -7 q 124 76 144 42 q 104 152 104 111 l 104 811 q 116 871 104 843 q 149 919 128 899 q 197 951 170 939 q 256 963 224 963 l 640 963 q 681 958 661 963 q 697 987 689 972 q 713 1017 705 1002 q 727 1042 722 1034 q 738 1053 732 1050 q 753 1056 744 1056 q 780 1055 762 1055 q 749 998 764 1027 q 718 941 734 970 q 772 887 751 922 q 792 811 792 853 l 792 152 q 780 93 792 121 q 748 44 768 65 q 699 12 727 24 q 640 0 671 0 l 256 0 q 218 5 235 0 q 204 -20 211 -7 q 191 -45 198 -33 q 176 -73 181 -63 q 164 -86 171 -82 q 147 -92 158 -91 q 115 -93 136 -93 m 409 930 q 337 922 366 930 q 290 897 308 915 q 263 851 271 880 q 256 780 256 822 l 256 168 q 442 514 350 342 q 629 861 534 686 q 581 914 614 899 q 486 930 547 930 l 409 930 m 640 795 q 455 447 547 621 q 269 98 363 273 q 317 48 283 63 q 409 34 350 34 l 486 34 q 558 42 529 34 q 606 67 588 50 q 632 114 624 85 q 640 184 640 142 l 640 795 m 498 1220 q 540 1204 524 1222 q 552 1185 549 1196 q 556 1162 556 1174 q 551 1140 555 1151 q 540 1122 547 1129 q 506 1100 527 1109 q 460 1080 486 1091 q 407 1052 435 1069 q 352 1008 379 1036 l 333 1008 q 382 1065 364 1036 q 413 1120 401 1094 q 435 1168 426 1147 q 458 1204 445 1190 q 498 1220 473 1218 z "},"":{"ha":896,"x_min":104,"x_max":792,"o":"m 640 964 l 256 964 q 197 952 224 964 q 149 920 170 941 q 116 872 128 900 q 104 812 104 844 l 104 152 q 116 93 104 121 q 149 44 128 65 q 197 12 170 24 q 256 0 224 0 l 640 0 q 699 12 671 0 q 748 44 727 24 q 780 93 768 65 q 792 152 792 121 l 792 812 q 780 872 792 844 q 748 920 768 900 q 699 952 727 941 q 640 964 671 964 m 486 931 q 558 924 529 931 q 606 899 588 916 q 632 852 624 881 q 640 781 640 823 l 640 184 q 632 114 640 142 q 606 67 624 85 q 558 42 588 50 q 486 34 529 34 l 409 34 q 337 42 366 34 q 290 67 308 50 q 263 114 271 85 q 256 184 256 142 l 256 781 q 263 852 256 823 q 290 899 271 881 q 337 924 308 916 q 409 931 366 931 l 486 931 m 256 1055 q 260 1080 256 1072 q 273 1092 264 1088 q 298 1095 283 1095 q 338 1095 314 1095 l 646 1095 q 642 1071 646 1079 q 629 1059 638 1063 q 603 1056 619 1056 q 564 1055 587 1055 l 256 1055 z "},"":{"ha":753,"x_min":0,"x_max":875,"o":"m 772 3 q 774 1 774 3 q 772 0 774 0 l 716 0 q 648 10 677 0 q 598 37 618 20 q 566 73 578 53 q 547 113 553 93 l 469 375 l 186 375 l 77 35 q 61 6 69 13 q 33 0 52 0 l 1 0 q 0 1 0 0 q 1 3 0 3 q 26 14 19 3 q 40 43 34 26 l 311 896 q 338 942 321 925 q 374 966 355 958 q 408 976 392 975 q 431 978 424 978 l 722 62 q 729 41 726 52 q 738 22 732 31 q 752 8 744 14 q 772 3 760 3 m 197 410 l 459 410 l 334 844 l 197 410 m 746 0 l 746 -2 q 746 -42 746 -26 q 742 -67 747 -58 q 726 -83 738 -77 q 690 -90 714 -88 q 634 -110 656 -94 q 603 -148 612 -126 q 595 -193 593 -169 q 610 -237 597 -217 q 648 -272 624 -258 q 708 -286 673 -286 q 800 -258 770 -286 q 833 -171 829 -231 l 875 -171 q 870 -218 875 -193 q 851 -266 865 -243 q 808 -303 836 -288 q 733 -319 780 -318 l 583 -319 q 530 -308 555 -318 q 485 -280 505 -298 q 453 -240 465 -263 q 441 -191 441 -217 q 455 -140 441 -163 q 489 -98 468 -116 q 534 -68 509 -79 q 581 -54 558 -56 q 610 -53 595 -52 q 640 -54 626 -54 q 673 -51 659 -52 q 695 -44 686 -50 q 708 -30 704 -39 q 711 0 711 -20 l 746 0 z "},"":{"ha":798,"x_min":104,"x_max":730,"o":"m 562 964 q 621 952 593 964 q 669 920 648 941 q 702 871 690 899 q 714 812 714 844 l 714 683 l 675 683 q 652 792 671 746 q 604 869 633 839 q 537 915 574 900 q 460 930 500 930 l 409 930 q 339 922 368 930 q 291 896 310 913 q 264 849 273 878 q 255 780 255 821 l 255 184 q 264 114 255 143 q 291 67 273 85 q 339 41 310 50 q 409 33 368 33 l 460 33 q 543 51 501 33 q 617 103 584 68 q 671 188 650 137 q 692 305 692 239 l 692 373 l 730 373 l 730 151 q 718 93 730 120 q 685 44 706 65 q 637 12 665 24 q 578 0 610 0 l 255 0 q 196 12 224 0 q 148 44 169 24 q 116 93 127 65 q 104 151 104 120 l 104 812 q 116 871 104 844 q 148 920 127 899 q 196 952 169 941 q 255 964 224 964 l 562 964 m 625 997 l 435 1122 l 244 997 l 380 1177 q 402 1195 390 1193 q 434 1198 414 1198 l 435 1198 q 468 1195 456 1198 q 489 1177 479 1193 l 625 997 z "},"":{"ha":328,"x_min":-35,"x_max":368,"o":"m 229 159 q 222 84 229 115 q 198 35 215 54 q 151 8 180 16 q 76 0 121 0 l 76 814 q 84 891 76 860 q 110 942 92 922 q 157 969 128 961 q 229 977 186 977 l 229 159 m -28 1107 q 6 1143 -14 1129 q 50 1161 26 1156 q 97 1162 73 1166 q 142 1148 121 1159 q 193 1128 168 1135 q 249 1121 218 1121 q 306 1132 281 1122 q 353 1165 332 1142 q 356 1126 368 1143 q 331 1097 346 1112 q 302 1071 317 1082 q 241 1052 274 1053 q 181 1067 208 1051 q 152 1084 166 1075 q 124 1102 138 1094 q 95 1115 111 1110 q 62 1120 80 1120 q 11 1105 31 1120 q -28 1069 -9 1090 q -34 1088 -33 1079 q -28 1107 -35 1097 z "},"":{"ha":399,"x_min":-34,"x_max":399,"o":"m 274 144 q 273 116 274 130 q 271 92 272 103 q 269 33 271 64 q 262 -25 268 1 q 245 -70 256 -52 q 214 -90 234 -88 q 159 -110 180 -94 q 127 -148 137 -126 q 119 -193 117 -169 q 135 -237 121 -217 q 173 -272 149 -258 q 233 -286 197 -286 q 325 -258 295 -286 q 358 -171 354 -231 l 399 -171 q 395 -218 399 -193 q 375 -266 390 -243 q 333 -303 361 -288 q 258 -319 304 -318 l 108 -319 q 55 -308 80 -318 q 9 -280 29 -298 q -22 -240 -10 -263 q -34 -191 -34 -217 q -21 -140 -34 -163 q 13 -98 -7 -116 q 58 -68 34 -79 q 105 -54 83 -56 q 135 -53 119 -52 q 164 -54 151 -54 q 188 -51 177 -53 q 206 -44 198 -50 q 220 -26 214 -38 q 229 9 226 -14 q 121 -14 195 -14 l 121 814 q 129 891 121 860 q 155 942 137 922 q 202 969 173 961 q 274 977 231 977 l 274 144 z "},"":{"ha":798,"x_min":104,"x_max":730,"o":"m 255 964 q 196 952 224 964 q 148 920 169 941 q 116 871 127 899 q 104 812 104 844 l 104 151 q 116 93 104 120 q 148 44 127 65 q 196 12 169 24 q 255 0 224 0 l 578 0 q 637 12 610 0 q 685 44 665 24 q 718 93 706 65 q 730 151 730 120 l 730 373 l 692 373 l 692 305 q 671 188 692 239 q 617 103 650 137 q 543 51 584 68 q 460 33 501 33 l 409 33 q 339 41 368 33 q 291 67 310 50 q 264 114 273 85 q 255 184 255 143 l 255 780 q 264 849 255 821 q 291 896 273 878 q 339 922 310 913 q 409 930 368 930 l 460 930 q 537 915 500 930 q 604 869 574 900 q 652 792 633 839 q 675 683 671 746 l 714 683 l 714 812 q 702 871 714 844 q 669 920 690 899 q 621 952 648 941 q 562 964 593 964 l 255 964 m 429 1234 q 493 1207 466 1234 q 519 1145 519 1181 q 493 1082 519 1107 q 429 1056 467 1056 q 367 1082 392 1056 q 342 1145 342 1107 q 368 1207 342 1181 q 429 1234 394 1234 z "},"":{"ha":899,"x_min":104,"x_max":795,"o":"m 259 930 l 259 35 l 526 35 q 579 47 557 37 q 615 75 602 57 q 635 119 629 92 q 642 183 642 146 l 642 781 q 615 892 642 855 q 526 930 589 930 l 259 930 m 104 875 q 105 924 104 906 q 114 951 106 942 q 137 962 121 960 q 185 964 154 964 l 642 964 q 701 952 673 964 q 750 919 729 940 q 783 871 771 899 q 795 812 795 843 l 795 153 q 783 94 795 121 q 750 45 771 66 q 701 12 729 24 q 642 0 673 0 l 104 0 l 104 875 m 488 1042 q 467 1024 479 1027 q 435 1022 455 1022 l 433 1022 q 401 1024 413 1022 q 380 1042 389 1027 l 243 1223 l 434 1097 l 625 1223 l 488 1042 z "},"":{"ha":882,"x_min":0,"x_max":778,"o":"m 87 876 q 88 925 87 907 q 96 951 89 943 q 120 963 103 960 q 168 965 136 965 l 624 965 q 683 953 655 965 q 732 920 711 941 q 766 871 753 899 q 778 812 778 844 l 778 153 q 766 94 778 121 q 732 45 753 66 q 683 12 711 24 q 624 0 655 0 l 87 0 l 87 474 l 0 474 q 4 499 0 490 q 18 511 8 507 q 43 514 27 514 q 82 514 58 514 l 87 514 l 87 876 m 241 930 l 241 514 l 412 514 q 408 490 412 498 q 394 478 404 481 q 369 474 385 475 q 330 474 353 474 l 241 474 l 241 35 l 508 35 q 562 47 540 37 q 598 75 584 57 q 618 119 612 92 q 624 183 624 146 l 624 782 q 598 893 624 856 q 508 930 572 930 l 241 930 z "},"":{"ha":1013,"x_min":104,"x_max":909,"o":"m 257 159 q 250 84 257 115 q 225 35 243 54 q 179 8 208 16 q 104 0 149 0 l 104 814 q 112 891 104 860 q 138 942 120 922 q 185 969 156 961 q 257 977 214 977 l 257 159 m 909 153 q 898 94 909 122 q 865 45 886 66 q 818 12 845 24 q 760 0 790 0 l 494 0 q 442 13 466 0 q 400 48 418 26 q 372 97 382 70 q 362 153 362 125 l 362 374 l 400 374 l 400 307 q 421 188 400 239 q 476 104 443 138 q 552 54 510 71 q 636 37 594 37 q 693 45 670 37 q 731 73 717 54 q 752 119 745 91 q 758 185 758 147 l 758 814 q 766 892 758 861 q 792 942 774 923 q 839 969 810 961 q 909 977 867 977 l 909 153 z "},"":{"ha":654,"x_min":17,"x_max":688,"o":"m 564 153 q 552 94 564 122 q 520 45 541 66 q 472 12 500 24 q 414 0 445 0 l 149 0 q 97 13 121 0 q 55 48 73 26 q 27 97 37 70 q 17 153 17 125 l 17 374 l 55 374 l 55 307 q 76 188 55 239 q 131 104 98 138 q 207 54 165 71 q 291 37 249 37 q 348 45 325 37 q 386 73 372 54 q 407 119 400 91 q 413 185 413 147 l 413 814 q 421 892 413 861 q 447 942 429 923 q 493 969 465 961 q 564 977 522 977 l 564 153 m 688 1006 l 497 1131 l 307 1006 l 443 1186 q 464 1204 452 1202 q 496 1206 476 1206 l 498 1206 q 530 1204 518 1206 q 551 1186 542 1202 l 688 1006 z "},"":{"ha":833,"x_min":104,"x_max":838,"o":"m 401 -232 q 373 -231 387 -232 q 348 -225 360 -230 q 326 -212 336 -221 q 307 -189 315 -203 q 298 -157 299 -175 q 301 -123 296 -140 q 316 -92 306 -106 q 342 -68 327 -77 q 376 -57 358 -58 q 412 -60 395 -55 q 444 -78 429 -66 q 466 -107 458 -90 q 474 -183 482 -145 q 444 -255 467 -221 q 389 -314 421 -288 q 323 -351 356 -339 q 352 -325 339 -338 q 374 -297 364 -311 q 390 -268 384 -283 q 401 -232 397 -252 m 256 502 l 640 936 q 653 949 646 942 q 670 963 660 956 q 692 973 680 969 q 722 977 705 977 l 766 977 q 769 976 770 977 q 766 974 768 974 q 724 965 741 974 q 690 936 708 956 l 372 580 l 752 68 q 769 45 760 56 q 788 24 778 33 q 809 9 798 15 q 836 3 821 3 q 838 1 838 3 q 836 0 838 0 l 712 0 q 660 1 680 0 q 624 11 640 3 q 592 36 608 19 q 554 85 576 54 l 256 498 l 256 157 q 249 83 256 113 q 225 35 242 53 q 178 8 208 16 q 104 0 149 0 l 104 816 q 112 892 104 861 q 138 942 120 923 q 185 969 156 961 q 256 977 214 977 l 256 502 z "},"":{"ha":659,"x_min":19,"x_max":642,"o":"m 247 34 l 361 34 q 463 57 418 34 q 539 117 507 79 q 587 203 570 155 q 604 305 604 252 l 604 374 l 642 374 l 642 151 q 629 93 642 120 q 596 44 617 65 q 548 12 576 24 q 490 0 521 0 l 92 0 l 92 814 q 100 890 92 859 q 127 941 109 922 q 175 968 145 960 q 247 976 204 976 l 247 34 m 200 1248 q 247 1230 229 1250 q 260 1208 256 1221 q 264 1184 264 1196 q 259 1160 263 1171 q 247 1140 254 1148 q 210 1116 233 1126 q 159 1094 186 1106 q 101 1063 132 1081 q 40 1014 71 1044 l 19 1014 q 73 1077 53 1045 q 107 1138 94 1109 q 132 1191 121 1167 q 157 1230 142 1215 q 200 1248 172 1244 z "},"":{"ha":670,"x_min":104,"x_max":653,"o":"m 258 976 q 186 968 216 976 q 138 941 157 960 q 112 890 120 922 q 104 814 104 859 l 104 0 l 502 0 q 560 12 532 0 q 608 44 587 24 q 641 93 629 65 q 653 151 653 120 l 653 374 l 616 374 l 616 305 q 599 203 616 252 q 550 117 582 155 q 474 57 519 79 q 373 34 429 34 l 258 34 l 258 976 m 353 945 q 394 995 376 966 q 419 1056 412 1023 q 392 1057 405 1056 q 366 1062 378 1058 q 344 1076 354 1067 q 326 1099 334 1084 q 316 1131 317 1113 q 319 1165 315 1148 q 335 1196 324 1181 q 361 1220 345 1211 q 395 1231 376 1230 q 430 1227 413 1233 q 462 1210 448 1222 q 484 1181 476 1198 q 492 1107 499 1145 q 463 1036 484 1069 q 410 974 441 1002 q 347 932 378 947 q 348 938 347 937 q 353 945 349 939 z "},"":{"ha":670,"x_min":104,"x_max":653,"o":"m 367 -233 q 339 -232 353 -233 q 314 -226 326 -231 q 292 -213 302 -222 q 273 -190 281 -204 q 264 -158 265 -176 q 267 -124 262 -140 q 282 -93 272 -107 q 309 -68 293 -78 q 342 -57 324 -59 q 378 -61 361 -56 q 410 -78 395 -66 q 432 -108 424 -90 q 440 -184 448 -146 q 410 -255 433 -222 q 355 -314 387 -289 q 289 -352 322 -340 q 318 -325 305 -338 q 340 -298 330 -312 q 356 -268 350 -284 q 367 -233 363 -252 m 258 34 l 373 34 q 474 57 429 34 q 550 117 519 79 q 599 203 582 155 q 616 305 616 252 l 616 374 l 653 374 l 653 151 q 641 93 653 120 q 608 44 629 65 q 560 12 587 24 q 502 0 532 0 l 104 0 l 104 814 q 112 890 104 859 q 138 941 120 922 q 186 968 157 960 q 258 976 216 976 l 258 34 z "},"":{"ha":670,"x_min":104,"x_max":653,"o":"m 258 34 l 373 34 q 474 57 429 34 q 550 117 519 79 q 599 203 582 155 q 616 305 616 252 l 616 374 l 653 374 l 653 151 q 641 93 653 120 q 608 44 629 65 q 560 12 587 24 q 502 0 532 0 l 104 0 l 104 814 q 112 890 104 859 q 138 941 120 922 q 186 968 157 960 q 258 976 216 976 l 258 34 m 452 640 q 513 615 488 640 q 538 554 538 589 q 512 493 538 519 q 452 467 487 467 q 391 493 417 467 q 365 554 365 519 q 391 614 365 589 q 452 640 416 640 z "},"":{"ha":878,"x_min":104,"x_max":774,"o":"m 774 977 l 774 0 q 709 0 739 0 q 655 5 679 1 q 615 20 632 9 q 587 50 597 30 l 140 908 l 141 80 q 140 42 141 58 q 136 18 140 27 q 125 4 133 8 q 104 0 118 0 l 104 834 q 111 900 104 873 q 135 945 117 928 q 183 969 153 962 q 262 977 214 977 l 736 62 l 736 896 q 738 935 736 919 q 743 960 739 950 q 754 973 747 969 q 774 977 762 977 m 511 1245 q 557 1227 539 1247 q 571 1206 567 1218 q 574 1181 575 1194 q 569 1157 574 1168 q 557 1137 565 1145 q 520 1113 543 1123 q 470 1091 497 1103 q 412 1060 442 1078 q 351 1011 381 1042 l 330 1011 q 384 1074 363 1042 q 418 1135 404 1106 q 443 1188 432 1164 q 468 1227 453 1212 q 511 1245 482 1242 z "},"":{"ha":878,"x_min":104,"x_max":774,"o":"m 774 977 l 774 0 q 709 0 739 0 q 655 5 679 1 q 615 20 632 9 q 587 50 597 30 l 140 908 l 141 80 q 140 42 141 58 q 136 18 140 27 q 125 4 133 8 q 104 0 118 0 l 104 834 q 111 900 104 873 q 135 945 117 928 q 183 969 153 962 q 262 977 214 977 l 736 62 l 736 896 q 738 935 736 919 q 743 960 739 950 q 754 973 747 969 q 774 977 762 977 m 530 1074 q 508 1056 520 1058 q 476 1053 496 1053 l 475 1053 q 443 1056 454 1053 q 421 1074 431 1058 l 285 1254 l 475 1128 l 666 1254 l 530 1074 z "},"":{"ha":878,"x_min":104,"x_max":774,"o":"m 774 977 l 774 0 q 709 0 739 0 q 655 5 679 1 q 615 20 632 9 q 587 50 597 30 l 140 908 l 141 80 q 140 42 141 58 q 136 18 140 27 q 125 4 133 8 q 104 0 118 0 l 104 834 q 111 900 104 873 q 135 945 117 928 q 183 969 153 962 q 262 977 214 977 l 736 62 l 736 896 q 738 935 736 919 q 743 960 739 950 q 754 973 747 969 q 774 977 762 977 z "},"":{"ha":714,"x_min":68,"x_max":646,"o":"m 220 0 q 161 12 189 0 q 112 45 133 24 q 80 93 92 66 q 68 153 68 121 l 68 814 q 76 891 68 860 q 102 941 84 922 q 150 968 121 960 q 222 977 180 977 l 222 184 q 238 106 222 135 q 274 61 253 77 q 317 40 295 45 q 351 35 338 35 l 454 35 q 526 42 496 35 q 574 67 555 50 q 601 114 593 85 q 609 186 609 143 l 609 896 q 610 934 609 919 q 614 959 610 949 q 625 972 617 968 q 646 977 633 977 l 646 153 q 642 103 646 130 q 621 53 637 76 q 575 15 606 31 q 494 0 545 0 l 445 0 l 445 -2 q 445 -42 445 -26 q 441 -67 446 -58 q 425 -83 437 -77 q 389 -90 413 -88 q 333 -110 355 -94 q 301 -148 311 -126 q 294 -193 292 -169 q 309 -237 296 -217 q 347 -272 323 -258 q 407 -286 372 -286 q 499 -258 469 -286 q 532 -171 528 -231 l 574 -171 q 569 -218 574 -193 q 550 -266 564 -243 q 507 -303 535 -288 q 432 -319 479 -318 l 282 -319 q 229 -308 254 -318 q 184 -280 203 -298 q 152 -240 164 -263 q 140 -191 140 -217 q 154 -140 140 -163 q 188 -98 167 -116 q 233 -68 208 -79 q 279 -54 257 -56 q 309 -53 294 -52 q 338 -54 325 -54 q 372 -51 358 -52 q 394 -44 385 -50 q 407 -30 403 -39 q 410 0 410 -20 l 220 0 z "},"":{"ha":786,"x_min":104,"x_max":682,"o":"m 104 153 q 116 93 104 121 q 148 45 127 66 q 197 12 169 24 q 256 0 224 0 l 530 0 q 611 15 581 0 q 657 53 642 31 q 677 103 673 76 q 682 153 682 130 l 682 977 q 661 972 669 977 q 650 959 653 968 q 646 934 646 949 q 645 896 645 919 l 645 186 q 637 114 645 143 q 610 67 629 85 q 562 42 591 50 q 490 35 532 35 l 387 35 q 353 40 374 35 q 310 61 331 45 q 274 106 289 77 q 258 184 258 135 l 258 977 q 186 968 216 977 q 138 941 157 960 q 112 891 120 922 q 104 814 104 860 l 104 153 m 566 1171 q 562 1134 566 1154 q 545 1096 557 1114 q 509 1067 532 1079 q 448 1056 486 1056 q 388 1068 410 1056 q 353 1097 365 1080 q 337 1134 341 1114 q 334 1171 334 1154 l 334 1173 q 337 1209 334 1189 q 353 1247 341 1230 q 388 1278 365 1265 q 448 1290 410 1290 q 509 1278 486 1290 q 545 1248 532 1266 q 562 1209 557 1230 q 566 1171 566 1188 m 528 1173 q 526 1199 528 1185 q 514 1224 523 1213 q 490 1243 506 1236 q 448 1250 474 1250 q 408 1243 423 1250 q 385 1225 393 1236 q 374 1200 376 1214 q 371 1173 371 1187 q 373 1146 371 1160 q 384 1120 376 1132 q 407 1101 392 1108 q 448 1093 422 1093 q 491 1101 475 1093 q 515 1120 507 1108 q 526 1146 524 1132 q 528 1173 528 1160 z "},"":{"ha":786,"x_min":104,"x_max":682,"o":"m 104 814 q 112 891 104 860 q 138 941 120 922 q 186 968 157 960 q 258 977 216 977 l 258 184 q 274 106 258 135 q 310 61 289 77 q 353 40 331 45 q 387 35 374 35 l 490 35 q 562 42 532 35 q 610 67 591 50 q 637 114 629 85 q 645 186 645 143 l 645 896 q 646 934 645 919 q 650 959 646 949 q 661 972 653 968 q 682 977 669 977 l 682 153 q 677 103 682 130 q 657 53 673 76 q 611 15 642 31 q 530 0 581 0 l 256 0 q 197 12 224 0 q 148 45 169 24 q 116 93 127 66 q 104 153 104 121 l 104 814 m 264 1150 q 299 1186 279 1173 q 342 1204 319 1200 q 389 1206 365 1209 q 435 1192 413 1202 q 485 1172 460 1179 q 541 1164 510 1164 q 598 1176 573 1166 q 645 1208 624 1185 q 648 1170 661 1187 q 624 1140 638 1155 q 594 1114 609 1125 q 533 1096 566 1097 q 473 1110 500 1095 q 445 1128 458 1118 q 417 1145 431 1137 q 388 1159 403 1154 q 354 1163 372 1164 q 303 1148 323 1163 q 264 1112 283 1134 q 258 1132 259 1122 q 264 1150 258 1141 z "},"":{"ha":1114,"x_min":-22,"x_max":1131,"o":"m 389 148 l 536 690 l 477 901 q 469 923 473 912 q 459 942 465 934 q 445 955 454 950 q 422 960 436 960 l 422 960 q 421 962 421 960 l 422 964 l 484 964 q 551 953 523 964 q 598 926 579 943 q 629 890 618 910 q 646 851 641 870 l 833 148 q 943 538 889 340 q 1051 928 996 736 q 1065 957 1057 949 q 1090 964 1074 964 l 1131 964 q 1124 961 1130 964 q 1110 951 1118 958 q 1096 938 1103 945 q 1087 921 1089 930 l 821 -14 q 799 -12 815 -14 q 765 0 783 -9 q 729 32 747 10 q 701 92 711 53 l 554 627 l 377 -14 q 356 -12 372 -14 q 322 0 341 -9 q 285 32 304 10 q 255 92 267 53 l 33 901 q 25 923 29 912 q 16 942 22 934 q 2 955 11 950 q -20 960 -6 960 q -22 962 -22 960 l -22 963 l -21 963 q -20 964 -20 964 l 39 964 q 106 953 77 964 q 154 926 134 943 q 186 890 174 910 q 204 851 199 870 l 389 148 m 605 1228 q 652 1211 633 1230 q 665 1189 661 1201 q 669 1164 669 1177 q 664 1140 668 1152 q 652 1120 659 1128 q 614 1096 637 1106 q 564 1074 591 1086 q 506 1043 536 1061 q 445 994 475 1025 l 424 994 q 478 1057 458 1025 q 512 1118 498 1089 q 537 1171 526 1147 q 562 1210 547 1195 q 605 1228 576 1225 z "},"":{"ha":1114,"x_min":-22,"x_max":1131,"o":"m 389 148 l 536 690 l 477 901 q 469 923 473 912 q 459 942 465 934 q 445 955 454 950 q 422 960 436 960 l 422 960 q 421 962 421 960 l 422 964 l 484 964 q 551 953 523 964 q 598 926 579 943 q 629 890 618 910 q 646 851 641 870 l 833 148 q 943 538 889 340 q 1051 928 996 736 q 1065 957 1057 949 q 1090 964 1074 964 l 1131 964 q 1124 961 1130 964 q 1110 951 1118 958 q 1096 938 1103 945 q 1087 921 1089 930 l 821 -14 q 799 -12 815 -14 q 765 0 783 -9 q 729 32 747 10 q 701 92 711 53 l 554 627 l 377 -14 q 356 -12 372 -14 q 322 0 341 -9 q 285 32 304 10 q 255 92 267 53 l 33 901 q 25 923 29 912 q 16 942 22 934 q 2 955 11 950 q -20 960 -6 960 q -22 962 -22 960 l -22 963 l -21 963 q -20 964 -20 964 l 39 964 q 106 953 77 964 q 154 926 134 943 q 186 890 174 910 q 204 851 199 870 l 389 148 m 730 1002 l 539 1128 l 349 1002 l 485 1183 q 506 1201 494 1198 q 538 1203 518 1203 l 540 1203 q 572 1201 560 1203 q 593 1183 584 1198 l 730 1002 z "},"":{"ha":1114,"x_min":-22,"x_max":1131,"o":"m 389 148 l 536 690 l 477 901 q 469 923 473 912 q 459 942 465 934 q 445 955 454 950 q 422 960 436 960 l 422 960 q 421 962 421 960 l 422 964 l 484 964 q 551 953 523 964 q 598 926 579 943 q 629 890 618 910 q 646 851 641 870 l 833 148 q 943 538 889 340 q 1051 928 996 736 q 1065 957 1057 949 q 1090 964 1074 964 l 1131 964 q 1124 961 1130 964 q 1110 951 1118 958 q 1096 938 1103 945 q 1087 921 1089 930 l 821 -14 q 799 -12 815 -14 q 765 0 783 -9 q 729 32 747 10 q 701 92 711 53 l 554 627 l 377 -14 q 356 -12 372 -14 q 322 0 341 -9 q 285 32 304 10 q 255 92 267 53 l 33 901 q 25 923 29 912 q 16 942 22 934 q 2 955 11 950 q -20 960 -6 960 q -22 962 -22 960 l -22 963 l -21 963 q -20 964 -20 964 l 39 964 q 106 953 77 964 q 154 926 134 943 q 186 890 174 910 q 204 851 199 870 l 389 148 m 711 1234 q 773 1207 747 1234 q 799 1144 799 1180 q 774 1081 799 1107 q 711 1055 749 1055 q 647 1081 673 1055 q 621 1144 621 1107 q 648 1207 621 1180 q 711 1234 675 1234 m 389 1234 q 452 1207 425 1234 q 479 1144 479 1180 q 453 1081 479 1107 q 389 1055 427 1055 q 326 1081 351 1055 q 301 1144 301 1107 q 327 1207 301 1180 q 389 1234 353 1234 z "},"":{"ha":1114,"x_min":-22,"x_max":1131,"o":"m 389 148 l 536 690 l 477 901 q 469 923 473 912 q 459 942 465 934 q 445 955 454 950 q 422 960 436 960 l 422 960 q 421 962 421 960 l 422 964 l 484 964 q 551 953 523 964 q 598 926 579 943 q 629 890 618 910 q 646 851 641 870 l 833 148 q 943 538 889 340 q 1051 928 996 736 q 1065 957 1057 949 q 1090 964 1074 964 l 1131 964 q 1124 961 1130 964 q 1110 951 1118 958 q 1096 938 1103 945 q 1087 921 1089 930 l 821 -14 q 799 -12 815 -14 q 765 0 783 -9 q 729 32 747 10 q 701 92 711 53 l 554 627 l 377 -14 q 356 -12 372 -14 q 322 0 341 -9 q 285 32 304 10 q 255 92 267 53 l 33 901 q 25 923 29 912 q 16 942 22 934 q 2 955 11 950 q -20 960 -6 960 q -22 962 -22 960 l -22 963 l -21 963 q -20 964 -20 964 l 39 964 q 106 953 77 964 q 154 926 134 943 q 186 890 174 910 q 204 851 199 870 l 389 148 m 496 1221 q 538 1203 524 1218 q 564 1164 553 1188 q 588 1112 574 1141 q 623 1050 602 1082 q 677 987 643 1019 l 656 987 q 595 1036 625 1018 q 537 1067 564 1055 q 486 1089 509 1080 q 449 1114 463 1099 q 437 1133 441 1122 q 432 1157 433 1145 q 435 1182 431 1170 q 449 1204 439 1194 q 496 1221 467 1223 z "},"":{"ha":735,"x_min":0,"x_max":735,"o":"m 281 462 l 77 894 q 63 919 71 907 q 47 940 56 931 q 27 955 39 949 q 1 961 16 961 q 0 962 0 961 q 1 964 0 964 l 77 964 q 132 962 108 964 q 176 952 157 960 q 213 925 196 943 q 244 876 229 907 l 410 522 l 617 919 q 647 953 629 943 q 694 964 664 964 l 734 964 q 735 962 735 964 q 734 961 735 961 q 695 951 710 961 q 669 919 680 942 l 435 475 l 435 162 q 427 86 435 117 q 401 36 419 55 q 353 8 382 17 q 281 0 323 0 l 281 462 m 610 1000 l 420 1125 l 229 1000 l 366 1180 q 387 1198 375 1196 q 419 1200 399 1200 l 420 1200 q 453 1198 441 1200 q 474 1180 465 1196 l 610 1000 z "},"":{"ha":735,"x_min":0,"x_max":735,"o":"m 281 462 l 77 894 q 63 919 71 907 q 47 940 56 931 q 27 955 39 949 q 1 961 16 961 q 0 962 0 961 q 1 964 0 964 l 77 964 q 132 962 108 964 q 176 952 157 960 q 213 925 196 943 q 244 876 229 907 l 410 522 l 617 919 q 647 953 629 943 q 694 964 664 964 l 734 964 q 735 962 735 964 q 734 961 735 961 q 695 951 710 961 q 669 919 680 942 l 435 475 l 435 162 q 427 86 435 117 q 401 36 419 55 q 353 8 382 17 q 281 0 323 0 l 281 462 m 359 1231 q 402 1213 388 1227 q 428 1174 417 1198 q 452 1121 438 1150 q 486 1060 466 1092 q 541 997 507 1028 l 519 997 q 458 1046 489 1027 q 400 1077 428 1064 q 350 1099 373 1089 q 313 1123 327 1109 q 301 1143 305 1131 q 296 1167 296 1154 q 299 1192 295 1179 q 313 1213 303 1204 q 359 1231 331 1233 z "},"":{"ha":799,"x_min":68,"x_max":736,"o":"m 555 930 l 368 930 q 273 910 316 930 q 198 857 230 890 q 148 778 167 823 q 126 683 130 733 l 87 683 l 87 813 q 99 872 87 844 q 132 920 111 899 q 180 952 153 941 q 239 964 208 964 l 736 964 l 246 33 l 450 33 q 551 56 506 33 q 628 117 596 79 q 676 204 659 155 q 692 306 692 254 l 692 374 l 731 374 l 731 152 q 719 93 731 121 q 687 44 707 65 q 638 12 666 24 q 579 0 610 0 l 68 0 l 555 930 m 454 1228 q 501 1211 483 1230 q 515 1189 511 1201 q 518 1164 519 1177 q 513 1140 517 1152 q 501 1120 509 1128 q 464 1096 487 1106 q 413 1074 441 1086 q 355 1043 386 1061 q 294 994 325 1025 l 273 994 q 328 1057 307 1025 q 362 1118 348 1089 q 386 1171 376 1147 q 412 1210 397 1195 q 454 1228 426 1225 z "},"":{"ha":799,"x_min":68,"x_max":736,"o":"m 555 930 l 368 930 q 273 910 316 930 q 198 857 230 890 q 148 778 167 823 q 126 683 130 733 l 87 683 l 87 813 q 99 872 87 844 q 132 920 111 899 q 180 952 153 941 q 239 964 208 964 l 736 964 l 246 33 l 450 33 q 551 56 506 33 q 628 117 596 79 q 676 204 659 155 q 692 306 692 254 l 692 374 l 731 374 l 731 152 q 719 93 731 121 q 687 44 707 65 q 638 12 666 24 q 579 0 610 0 l 68 0 l 555 930 m 432 1234 q 495 1207 469 1234 q 522 1145 522 1181 q 496 1082 522 1107 q 432 1056 470 1056 q 370 1082 395 1056 q 345 1145 345 1107 q 371 1207 345 1181 q 432 1234 397 1234 z "},"":{"ha":786,"x_min":104,"x_max":682,"o":"m 104 814 q 112 891 104 860 q 138 941 120 922 q 186 968 157 960 q 258 977 216 977 l 258 184 q 274 106 258 135 q 310 61 289 77 q 353 40 331 45 q 387 35 374 35 l 490 35 q 562 42 532 35 q 610 67 591 50 q 637 114 629 85 q 645 186 645 143 l 645 896 q 646 934 645 919 q 650 959 646 949 q 661 972 653 968 q 682 977 669 977 l 682 153 q 677 103 682 130 q 657 53 673 76 q 611 15 642 31 q 530 0 581 0 l 256 0 q 197 12 224 0 q 148 45 169 24 q 116 93 127 66 q 104 153 104 121 l 104 814 m 416 1240 q 463 1222 445 1242 q 477 1200 473 1213 q 480 1176 481 1188 q 475 1152 479 1163 q 463 1132 471 1140 q 426 1108 449 1118 q 375 1085 403 1098 q 317 1055 348 1073 q 256 1006 287 1036 l 235 1006 q 290 1069 269 1037 q 324 1130 310 1101 q 348 1183 338 1159 q 374 1221 359 1206 q 416 1240 388 1236 m 585 1240 q 632 1222 614 1242 q 646 1200 642 1213 q 649 1176 650 1188 q 644 1152 648 1163 q 632 1132 640 1140 q 595 1108 618 1118 q 544 1085 572 1098 q 486 1055 517 1073 q 425 1006 456 1036 l 404 1006 q 458 1069 438 1037 q 493 1130 479 1101 q 517 1183 507 1159 q 543 1221 528 1206 q 585 1240 557 1236 z "},"":{"ha":786,"x_min":104,"x_max":682,"o":"m 104 153 q 116 93 104 121 q 148 45 127 66 q 197 12 169 24 q 256 0 224 0 l 530 0 q 611 15 581 0 q 657 53 642 31 q 677 103 673 76 q 682 153 682 130 l 682 977 q 661 972 669 977 q 650 959 653 968 q 646 934 646 949 q 645 896 645 919 l 645 186 q 637 114 645 143 q 610 67 629 85 q 562 42 591 50 q 490 35 532 35 l 387 35 q 353 40 374 35 q 310 61 331 45 q 274 106 289 77 q 258 184 258 135 l 258 977 q 186 968 216 977 q 138 941 157 960 q 112 891 120 922 q 104 814 104 860 l 104 153 m 256 1055 q 260 1080 256 1072 q 274 1092 264 1088 q 299 1095 283 1095 q 338 1095 315 1095 l 647 1095 q 643 1071 647 1079 q 629 1059 639 1063 q 604 1056 620 1056 q 565 1055 588 1055 l 256 1055 z "},"":{"ha":646,"x_min":0,"x_max":646,"o":"m 245 0 l 245 929 l 193 929 q 121 922 150 929 q 73 897 92 914 q 47 850 55 879 q 39 780 39 822 l 39 684 l 0 684 l 0 876 q 2 924 0 907 q 11 951 3 942 q 35 962 18 960 q 80 964 51 964 l 564 964 q 611 962 594 964 q 635 951 627 960 q 645 924 643 942 q 646 876 646 906 l 646 684 l 607 684 l 607 780 q 599 850 607 822 q 572 897 591 879 q 525 922 554 914 q 452 929 495 929 l 399 929 l 399 162 q 391 85 399 117 q 365 35 383 54 q 317 8 347 16 q 245 0 288 0 m 262 -342 q 302 -292 284 -320 q 328 -231 321 -263 q 300 -230 313 -231 q 275 -224 287 -229 q 252 -211 262 -220 q 234 -188 242 -202 q 224 -156 226 -174 q 228 -122 223 -138 q 243 -91 233 -105 q 269 -66 254 -76 q 303 -55 285 -57 q 339 -59 321 -54 q 370 -76 356 -64 q 393 -106 385 -88 q 400 -179 408 -141 q 371 -251 393 -217 q 318 -312 349 -285 q 256 -355 287 -340 q 256 -348 256 -349 q 262 -342 257 -347 z "},"":{"ha":646,"x_min":0,"x_max":646,"o":"m 245 0 l 245 929 l 193 929 q 121 922 150 929 q 73 897 92 914 q 47 850 55 879 q 39 780 39 822 l 39 684 l 0 684 l 0 876 q 2 924 0 907 q 11 951 3 942 q 35 962 18 960 q 80 964 51 964 l 564 964 q 611 962 594 964 q 635 951 627 960 q 645 924 643 942 q 646 876 646 906 l 646 684 l 607 684 l 607 780 q 599 850 607 822 q 572 897 591 879 q 525 922 554 914 q 452 929 495 929 l 399 929 l 399 162 q 391 85 399 117 q 365 35 383 54 q 317 8 347 16 q 245 0 288 0 m 377 1076 q 356 1058 368 1060 q 323 1055 344 1055 l 322 1055 q 290 1058 302 1055 q 269 1076 278 1060 l 132 1256 l 323 1131 l 513 1256 l 377 1076 z "},"":{"ha":896,"x_min":104,"x_max":792,"o":"m 640 964 l 256 964 q 197 952 224 964 q 149 920 170 941 q 116 872 128 900 q 104 812 104 844 l 104 152 q 116 93 104 121 q 149 44 128 65 q 197 12 170 24 q 256 0 224 0 l 640 0 q 699 12 671 0 q 748 44 727 24 q 780 93 768 65 q 792 152 792 121 l 792 812 q 780 872 792 844 q 748 920 768 900 q 699 952 727 941 q 640 964 671 964 m 486 931 q 558 924 529 931 q 606 899 588 916 q 632 852 624 881 q 640 781 640 823 l 640 184 q 632 114 640 142 q 606 67 624 85 q 558 42 588 50 q 486 34 529 34 l 409 34 q 337 42 366 34 q 290 67 308 50 q 263 114 271 85 q 256 184 256 142 l 256 781 q 263 852 256 823 q 290 899 271 881 q 337 924 308 916 q 409 931 366 931 l 486 931 m 564 1173 q 559 1136 564 1156 q 543 1098 555 1116 q 507 1068 530 1080 q 446 1056 484 1056 q 386 1068 408 1056 q 351 1098 363 1080 q 335 1137 339 1116 q 332 1173 332 1157 l 369 1173 q 372 1145 369 1159 q 382 1121 374 1132 q 406 1103 391 1109 q 446 1096 421 1096 q 488 1103 472 1096 q 512 1121 504 1110 q 524 1146 521 1133 q 526 1173 526 1160 l 564 1173 z "},"":{"ha":798,"x_min":104,"x_max":730,"o":"m 258 931 l 258 511 l 311 511 q 367 522 339 511 q 418 554 395 532 q 457 607 441 575 q 476 683 473 640 l 505 683 l 505 315 l 476 315 q 454 385 471 355 q 415 435 438 415 q 365 465 392 455 q 311 476 338 475 l 258 476 l 258 33 l 448 33 q 550 56 505 33 q 626 116 595 79 q 675 203 658 154 q 692 306 692 253 l 692 374 l 730 374 l 730 151 q 718 92 730 119 q 685 44 706 64 q 637 12 665 24 q 578 0 609 0 l 104 0 l 104 876 q 105 927 104 909 q 114 954 106 945 q 137 963 121 962 q 182 964 153 964 l 623 964 q 670 962 654 964 q 693 951 686 960 q 702 925 701 943 q 703 876 703 907 l 703 684 l 665 684 l 665 780 q 657 851 665 823 q 631 898 649 880 q 583 924 612 916 q 511 931 553 931 l 258 931 m 536 1173 q 532 1135 536 1156 q 516 1097 528 1115 q 480 1067 503 1079 q 419 1055 457 1055 q 358 1067 381 1055 q 324 1098 336 1080 q 308 1136 312 1116 q 304 1173 304 1156 l 342 1173 q 345 1145 342 1158 q 355 1120 347 1131 q 379 1102 363 1109 q 419 1095 394 1095 q 461 1102 445 1095 q 485 1121 477 1109 q 496 1146 494 1132 q 499 1173 499 1160 l 536 1173 z "},"":{"ha":798,"x_min":104,"x_max":730,"o":"m 258 931 l 258 511 l 311 511 q 367 522 339 511 q 418 554 395 532 q 457 607 441 575 q 476 683 473 640 l 505 683 l 505 315 l 476 315 q 454 385 471 355 q 415 435 438 415 q 365 465 392 455 q 311 476 338 475 l 258 476 l 258 33 l 448 33 q 550 56 505 33 q 626 116 595 79 q 675 203 658 154 q 692 306 692 253 l 692 374 l 730 374 l 730 151 q 718 92 730 119 q 685 44 706 64 q 637 12 665 24 q 578 0 609 0 l 104 0 l 104 876 q 105 927 104 909 q 114 954 106 945 q 137 963 121 962 q 182 964 153 964 l 623 964 q 670 962 654 964 q 693 951 686 960 q 702 925 701 943 q 703 876 703 907 l 703 684 l 665 684 l 665 780 q 657 851 665 823 q 631 898 649 880 q 583 924 612 916 q 511 931 553 931 l 258 931 m 505 1040 q 483 1022 495 1025 q 451 1020 471 1020 l 450 1020 q 417 1022 429 1020 q 396 1040 406 1025 l 260 1221 l 450 1095 l 641 1221 l 505 1040 z "},"":{"ha":798,"x_min":104,"x_max":730,"o":"m 258 931 l 258 511 l 311 511 q 367 522 339 511 q 418 554 395 532 q 457 607 441 575 q 476 683 473 640 l 505 683 l 505 315 l 476 315 q 454 385 471 355 q 415 435 438 415 q 365 465 392 455 q 311 476 338 475 l 258 476 l 258 33 l 448 33 q 550 56 505 33 q 626 116 595 79 q 675 203 658 154 q 692 306 692 253 l 692 374 l 730 374 l 730 151 q 718 92 730 119 q 685 44 706 64 q 637 12 665 24 q 578 0 609 0 l 104 0 l 104 876 q 105 927 104 909 q 114 954 106 945 q 137 963 121 962 q 182 964 153 964 l 623 964 q 670 962 654 964 q 693 951 686 960 q 702 925 701 943 q 703 876 703 907 l 703 684 l 665 684 l 665 780 q 657 851 665 823 q 631 898 649 880 q 583 924 612 916 q 511 931 553 931 l 258 931 m 448 1235 q 511 1208 484 1235 q 538 1145 538 1181 q 512 1082 538 1108 q 448 1057 486 1057 q 385 1082 410 1057 q 360 1145 360 1108 q 386 1208 360 1181 q 448 1235 412 1235 z "},"":{"ha":798,"x_min":104,"x_max":730,"o":"m 226 1057 q 230 1081 226 1073 q 243 1093 234 1090 q 269 1097 253 1097 q 308 1097 284 1097 l 616 1097 q 612 1072 616 1080 q 599 1061 608 1064 q 573 1057 589 1057 q 534 1057 557 1057 l 226 1057 m 258 931 l 258 511 l 311 511 q 367 522 339 511 q 418 554 395 532 q 457 607 441 575 q 476 683 473 640 l 505 683 l 505 315 l 476 315 q 454 385 471 355 q 415 435 438 415 q 365 465 392 455 q 311 476 338 475 l 258 476 l 258 33 l 448 33 q 550 56 505 33 q 626 116 595 79 q 675 203 658 154 q 692 306 692 253 l 692 374 l 730 374 l 730 151 q 718 92 730 119 q 685 44 706 64 q 637 12 665 24 q 578 0 609 0 l 104 0 l 104 876 q 105 927 104 909 q 114 954 106 945 q 137 963 121 962 q 182 964 153 964 l 623 964 q 670 962 654 964 q 693 951 686 960 q 702 925 701 943 q 703 876 703 907 l 703 684 l 665 684 l 665 780 q 657 851 665 823 q 631 898 649 880 q 583 924 612 916 q 511 931 553 931 l 258 931 z "},"":{"ha":798,"x_min":104,"x_max":730,"o":"m 490 0 l 490 -2 q 490 -42 490 -26 q 486 -67 490 -58 q 470 -83 481 -77 q 433 -90 458 -88 q 378 -110 399 -94 q 346 -148 356 -126 q 338 -193 336 -169 q 354 -237 340 -217 q 392 -272 368 -258 q 452 -286 416 -286 q 544 -258 514 -286 q 577 -171 573 -231 l 618 -171 q 614 -218 618 -193 q 594 -266 609 -243 q 552 -303 580 -288 q 477 -319 524 -318 l 327 -319 q 274 -308 299 -318 q 229 -280 248 -298 q 197 -240 209 -263 q 185 -191 185 -217 q 198 -140 185 -163 q 232 -98 212 -116 q 277 -68 253 -79 q 324 -54 302 -56 q 354 -53 338 -52 q 383 -54 370 -54 q 416 -51 403 -52 q 439 -44 430 -50 q 451 -30 448 -39 q 455 0 455 -20 l 104 0 l 104 876 q 105 927 104 909 q 114 954 106 945 q 137 963 121 962 q 182 964 153 964 l 623 964 q 670 962 654 964 q 693 951 686 960 q 702 925 701 943 q 703 876 703 907 l 703 684 l 665 684 l 665 780 q 657 851 665 823 q 631 898 649 880 q 583 924 612 916 q 511 931 553 931 l 258 931 l 258 511 l 311 511 q 367 522 339 511 q 418 554 395 532 q 457 607 441 575 q 476 683 473 640 l 505 683 l 505 315 l 476 315 q 454 385 471 355 q 415 435 438 415 q 365 465 392 455 q 311 476 338 475 l 258 476 l 258 33 l 448 33 q 550 56 505 33 q 626 116 595 79 q 675 203 658 154 q 692 306 692 253 l 692 374 l 730 374 l 730 151 q 718 92 730 119 q 685 44 706 64 q 637 12 665 24 q 578 0 609 0 l 490 0 z "},"":{"ha":826,"x_min":104,"x_max":758,"o":"m 584 964 q 643 952 615 964 q 690 920 670 941 q 723 872 711 899 q 734 813 734 844 l 734 684 l 696 684 q 674 778 693 733 q 624 857 655 823 q 549 910 592 890 q 454 930 506 930 l 408 930 q 336 923 366 930 q 289 898 307 916 q 262 851 271 880 q 254 780 254 823 l 254 185 q 262 114 254 143 q 289 67 271 85 q 336 42 307 50 q 408 34 366 34 l 454 34 q 526 42 496 34 q 574 67 555 50 q 601 114 593 85 q 609 185 609 143 l 609 408 l 477 408 l 477 442 l 678 442 q 717 441 701 442 q 742 433 732 439 q 754 414 751 427 q 758 376 758 401 l 758 152 q 746 93 758 121 q 714 45 734 66 q 666 12 694 24 q 608 0 639 0 l 254 0 q 196 12 223 0 q 148 45 168 24 q 116 93 127 66 q 104 152 104 121 l 104 813 q 114 872 104 844 q 143 920 124 899 q 191 952 163 941 q 254 964 218 964 l 584 964 m 642 994 l 451 1119 l 260 994 l 397 1174 q 418 1192 406 1190 q 450 1194 430 1194 l 452 1194 q 484 1192 472 1194 q 505 1174 496 1190 l 642 994 z "},"":{"ha":826,"x_min":104,"x_max":758,"o":"m 584 964 q 643 952 615 964 q 690 920 670 941 q 723 872 711 899 q 734 813 734 844 l 734 684 l 696 684 q 674 778 693 733 q 624 857 655 823 q 549 910 592 890 q 454 930 506 930 l 408 930 q 336 923 366 930 q 289 898 307 916 q 262 851 271 880 q 254 780 254 823 l 254 185 q 262 114 254 143 q 289 67 271 85 q 336 42 307 50 q 408 34 366 34 l 454 34 q 526 42 496 34 q 574 67 555 50 q 601 114 593 85 q 609 185 609 143 l 609 408 l 477 408 l 477 442 l 678 442 q 717 441 701 442 q 742 433 732 439 q 754 414 751 427 q 758 376 758 401 l 758 152 q 746 93 758 121 q 714 45 734 66 q 666 12 694 24 q 608 0 639 0 l 254 0 q 196 12 223 0 q 148 45 168 24 q 116 93 127 66 q 104 152 104 121 l 104 813 q 114 872 104 844 q 143 920 124 899 q 191 952 163 941 q 254 964 218 964 l 584 964 z "},"":{"ha":808,"x_min":104,"x_max":825,"o":"m 587 964 q 645 952 618 964 q 693 920 673 941 q 726 871 714 899 q 738 812 738 844 l 738 633 q 726 574 738 602 q 693 526 714 547 q 645 493 673 505 q 587 481 618 481 l 435 481 l 741 66 q 757 43 749 54 q 775 23 766 32 q 797 9 785 15 q 825 3 809 3 q 824 0 825 0 l 682 0 q 646 4 663 0 q 611 17 628 7 q 577 43 594 26 q 542 83 560 59 l 256 481 l 256 158 q 250 84 256 114 q 225 35 243 54 q 179 8 208 16 q 104 0 149 0 l 104 872 q 105 926 104 907 q 114 953 106 945 q 136 963 121 962 q 181 964 152 964 l 587 964 m 256 930 l 256 516 l 433 516 q 506 524 476 516 q 553 549 535 531 q 580 595 572 566 q 588 667 588 624 l 588 779 q 580 851 588 822 q 553 897 572 880 q 506 922 535 915 q 433 930 476 930 l 256 930 m 465 1076 q 444 1058 456 1060 q 412 1055 432 1055 l 410 1055 q 378 1058 390 1055 q 357 1076 366 1060 l 220 1256 l 411 1131 l 602 1256 l 465 1076 z "}}}
